<?xml version="1.0" standalone="no"?>
<!DOCTYPE svg PUBLIC "-//W3C//DTD SVG 1.1//EN" "http://www.w3.org/Graphics/SVG/1.1/DTD/svg11.dtd" >
<svg>
<metadata>
Created by FontForge 20090914 at Wed Oct 19 15:55:55 2011
 By www-data
(c) Copyright 1999-2005 Bitstream/Galapagos Design Group. All rights reserved.
</metadata>
<defs>
<font id="FuturaBk-Italic" horiz-adv-x="1262" >
  <font-face 
    font-family="Futura Bk"
    font-weight="400"
    font-style="italic"
    font-stretch="normal"
    units-per-em="2048"
    panose-1="2 11 5 2 2 2 4 9 3 3"
    ascent="1556"
    descent="-492"
    x-height="956"
    cap-height="1544"
    bbox="-365 -553.001 2529 2141"
    underline-thickness="131"
    underline-position="-201"
    slope="-9"
    unicode-range="U+0020-U+FB02"
  />
<missing-glyph horiz-adv-x="1229" 
d="M102 -362v1806h1024v-1806h-1024zM217 -248h795v1577h-795v-1577z" />
    <glyph glyph-name=".notdef" horiz-adv-x="1229" 
d="M102 -362v1806h1024v-1806h-1024zM217 -248h795v1577h-795v-1577z" />
    <glyph glyph-name="space" unicode=" " horiz-adv-x="631" 
 />
    <glyph glyph-name="exclam" unicode="!" horiz-adv-x="692" 
d="M672 1544l-183 -1153h-165l182 1153h166zM479 88c-4.66699 -32.667 -20.5 -60.667 -47.5 -84s-56.833 -35 -89.5 -35c-29.333 0 -53.666 9.66699 -72.999 29s-29 43.333 -29 72c0 2 0.333008 5 1 9s1 7 1 9c4.66699 32.667 20.5 60.667 47.5 84s56.833 35 89.5 35
c29.333 0 53.666 -9.5 72.999 -28.5s29 -43.167 29 -72.5c0 -2 -0.333008 -5 -1 -9s-1 -7 -1 -9z" />
    <glyph glyph-name="quotedbl" unicode="&#x22;" horiz-adv-x="936" 
d="M965 1544l-88 -565h-129l88 565h129zM586 1544l-88 -565h-127l88 565h127z" />
    <glyph glyph-name="numbersign" unicode="#" 
d="M1384 1049l-43 -107h-225l-158 -344h250l-41 -106h-249l-224 -492h-129l226 492h-299l-228 -492h-127l223 492h-239l43 106h237l158 344h-266l43 107h264l221 495h127l-221 -495h301l221 495h127l-219 -495h227zM987 942h-303l-154 -344h301z" />
    <glyph glyph-name="dollar" unicode="$" 
d="M1202 1370l-132.999 -97.999c-17.333 38 -41.333 67.5 -72 88.5s-66.667 33.167 -108 36.5l-80 -506c110.667 -54 191.5 -112.333 242.5 -175s76.5 -134.667 76.5 -216c0 -12 -0.5 -24 -1.5 -36s-2.5 -24 -4.5 -36c-18 -118 -68.667 -216.667 -152 -296
s-184 -123.333 -302 -132l-33 -211h-92l32 211c-94.667 2.66699 -174.667 26.667 -240 72s-112.666 109.333 -141.999 192l139 94c16 -61.333 47.833 -110.5 95.5 -147.5s105.167 -56.5 172.5 -58.5l94 600c-106.667 53.333 -184.5 108.833 -233.5 166.5
s-73.5 122.834 -73.5 195.501c0 16.667 0.333008 29.334 1 38.001s1.66699 16.667 3 24c15.333 97.333 63.166 181.166 143.499 251.499s175.166 109.166 284.499 116.499l25 146h92l-24 -146c64.667 -2 121.167 -17.333 169.5 -46s88.5 -71.334 120.5 -128.001z
M797.001 1397c-58.667 -6.66699 -111.168 -31.332 -157.501 -73.999s-73.833 -90.334 -82.5 -143.001c-0.666992 -4.66699 -1.16699 -9.5 -1.5 -14.5s-0.5 -11.833 -0.5 -20.5c0 -42.667 13.833 -81.667 41.5 -117s69.834 -68 126.501 -98zM954 419.003
c2 11.333 3.16797 20.332 3.50098 26.999s0.5 13 0.5 19c0 50.667 -14.667 96.334 -44 137.001s-74 77 -134 109l-88 -559c70.667 9.33301 129.167 37.833 175.5 85.5s75.166 108.167 86.499 181.5z" />
    <glyph glyph-name="percent" unicode="%" horiz-adv-x="1632" 
d="M969 1208c-15.333 -98 -62.667 -182.168 -142 -252.501s-166.666 -105.5 -261.999 -105.5c-84.667 0 -155.334 28.667 -212.001 86s-85 129 -85 215c0 6.66699 0.333008 14.334 1 23.001s1.66699 20 3 34c15.333 98 62.833 182 142.5 252s167.5 105 263.5 105
c85.333 0 155.833 -28.5 211.5 -85.5s83.5 -128.167 83.5 -213.5c0 -15.333 -0.333008 -27 -1 -35s-1.66699 -15.667 -3 -23zM1597 1544l-1200 -1544h-118l1200 1544h118zM1604 337.999c-15.333 -98 -63 -182.167 -143 -252.5s-167.667 -105.5 -263 -105.5
c-84.667 0 -155 28.5 -211 85.5s-84 128.833 -84 215.5c0 14.667 0.333008 26 1 34s1.66699 15.667 3 23c15.333 98 62.833 181.833 142.5 251.5s167.5 104.5 263.5 104.5c84.667 0 155 -28.333 211 -85s84 -128 84 -214c0 -15.333 -0.333008 -26.833 -1 -34.5
s-1.66699 -15.167 -3 -22.5zM833.999 1209l3 25.501c0.666992 5.66699 1 10.5 1 14.5c0 55.333 -17 101 -51 137s-77.333 54 -130 54c-59.333 0 -113.5 -22.5 -162.5 -67.5s-78.5 -99.833 -88.5 -164.5c-2 -8.66699 -3.33301 -16 -4 -22s-1 -11.667 -1 -17
c0 -54.667 17.667 -100.334 53 -137.001s79.333 -55 132 -55c58.667 0 112 22.5 160 67.5s77.333 99.833 88 164.5zM1468 337c2 12.667 3.16504 21.668 3.49805 27.001s0.833008 10.333 1.5 15c0 55.333 -17 100.833 -51 136.5s-77.333 53.5 -130 53.5
c-58.667 0 -112.667 -22.5 -162 -67.5s-79.333 -99.5 -90 -163.5v-5c-2.66699 -16 -4 -27.333 -4 -34c0 -55.333 17.333 -101.333 52 -138s78.334 -55 131.001 -55c58.667 0 112.334 22.667 161.001 68s78 99.666 88 162.999z" />
    <glyph glyph-name="ampersand" unicode="&#x26;" horiz-adv-x="1423" 
d="M1427 598c-37.333 -50.667 -76.835 -100 -118.502 -148s-84.5 -94.333 -128.5 -139l198 -311h-198l-129 197c-89.333 -76 -175.166 -133 -257.499 -171s-161.833 -57 -238.5 -57c-121.333 0 -217.5 32.5 -288.5 97.5s-106.5 151.5 -106.5 259.5c0 12 0.5 24.333 1.5 37
s2.5 25.667 4.5 39c14 88 54.667 168.833 122 242.5s176 153.167 326 238.5l-43 71c-34 58.667 -57.167 105.667 -69.5 141s-18.5 70.333 -18.5 105c0 15.333 0.333008 27 1 35s1.66699 15.333 3 22c15.333 92.667 59.333 168.834 132 228.501s161.334 89.5 266.001 89.5
c88 0 158.5 -24.333 211.5 -73s79.5 -112.334 79.5 -191.001c0 -5.33301 -0.333008 -11.833 -1 -19.5s-2 -19.167 -4 -34.5c-11.333 -76 -43.166 -145.333 -95.499 -208s-133.833 -127 -244.5 -193l273 -426c39.333 42 76.666 84 111.999 126s69 84.667 101 128zM1014 1252
c0.666992 4 1.16797 8.16699 1.50098 12.5s0.5 10.833 0.5 19.5c0 44 -14.333 78.833 -43 104.5s-67 38.5 -115 38.5c-58 0 -105.833 -15.167 -143.5 -45.5s-60.834 -72.5 -69.501 -126.5c-0.666992 -2.66699 -1.16699 -5.83398 -1.5 -9.50098s-0.5 -9.16699 -0.5 -16.5
c0 -26 6.16699 -54.667 18.5 -86s31.5 -67.666 57.5 -108.999l43 -67c84.667 51.333 145.667 98 183 140s60.333 90.333 69 145zM976.999 313l-288.998 458.998c-126.667 -76 -214 -139.167 -262 -189.5s-77.333 -110.5 -88 -180.5c-2 -14 -3.16699 -24.167 -3.5 -30.5
s-0.5 -12.166 -0.5 -17.499c0 -69.333 23.167 -125.166 69.5 -167.499s107.166 -63.5 182.499 -63.5c58.667 0 120.667 15.833 186 47.5s133.666 79.167 204.999 142.5z" />
    <glyph glyph-name="quotesingle" unicode="'" horiz-adv-x="592" 
d="M604 1544l-88 -565h-129l88 565h129z" />
    <glyph glyph-name="parenleft" unicode="(" horiz-adv-x="588" 
d="M745 1522c-96 -136 -175.832 -284.667 -239.499 -446s-109.834 -333 -138.501 -515c-10.667 -64 -18.5 -127 -23.5 -189s-7.5 -122.667 -7.5 -182c0 -110 8.66699 -214.333 26 -313s43.333 -191.334 78 -278.001l-139 -60c-40 96 -70.167 198 -90.5 306
s-30.5 221.667 -30.5 341c0 60.667 2.66699 122.167 8 184.5s13 125.833 23 190.5c31.333 194 81.5 376.333 150.5 547s156.833 328.334 263.5 473.001z" />
    <glyph glyph-name="parenright" unicode=")" horiz-adv-x="588" 
d="M553 561c-31.333 -194.667 -81.667 -377.502 -151 -548.502s-157 -328.833 -263 -473.5l-119 60c96 134.667 175.5 282.834 238.5 444.501s109.167 334.167 138.5 517.5c10.667 65.333 18.5 129.333 23.5 192s7.5 123.667 7.5 183c0 108 -8.5 211 -25.5 309
s-42.5 190.333 -76.5 277l137 59c40 -96 70.167 -197.667 90.5 -305s30.5 -220.666 30.5 -339.999c0 -60.667 -2.66699 -122.167 -8 -184.5s-13 -125.833 -23 -190.5z" />
    <glyph glyph-name="asterisk" unicode="*" horiz-adv-x="1212" 
d="M1178 1305l-297 -148l249 -149l-73 -97l-236 168l-37 -311h-114l61 311l-289 -168l-41 97l299 149l-251 148l71 98l236 -170l37 311h114l-61 -311l289 170z" />
    <glyph glyph-name="plus" unicode="+" 
d="M1264 623l-21 -131h-467l-78 -492h-135l78 492h-467l21 131h467l77 489h135l-77 -489h467z" />
    <glyph glyph-name="comma" unicode="," horiz-adv-x="631" 
d="M461 170l-355 -528l-94 41l287 561z" />
    <glyph glyph-name="hyphen" unicode="-" horiz-adv-x="426" 
d="M494 621l-25 -156h-365l25 156h365z" />
    <glyph glyph-name="period" unicode="." horiz-adv-x="631" 
d="M449 88c-5.33301 -32.667 -21.5 -60.667 -48.5 -84s-56.833 -35 -89.5 -35c-28.667 0 -52.834 9.66699 -72.501 29s-29.5 43.333 -29.5 72c0 2 0.333008 5 1 9s1 7 1 9c5.33301 32.667 21.333 60.667 48 84s56.334 35 89.001 35c29.333 0 53.833 -9.5 73.5 -28.5
s29.5 -43.167 29.5 -72.5c0 -1.33301 -0.333008 -4 -1 -8s-1 -7.33301 -1 -10z" />
    <glyph glyph-name="slash" unicode="/" horiz-adv-x="1167" 
d="M1389 1649l-1348 -1956l-100 63l1345 1956z" />
    <glyph glyph-name="zero" unicode="0" 
d="M1292 772c-38.667 -245.333 -118.499 -440.5 -239.499 -585.5s-262.833 -217.5 -425.5 -217.5c-133.333 0 -238.333 51.833 -315 155.5s-115 245.167 -115 424.5c0 34.667 1.5 70.5 4.5 107.5s7.5 75.5 13.5 115.5c39.333 243.333 119.666 438 240.999 584
s263 219 425 219c134 0 239.167 -51 315.5 -153s114.5 -243 114.5 -423c0 -34 -1.66699 -70.167 -5 -108.5s-8 -77.833 -14 -118.5zM1129 775c6 37.333 10.4971 73.501 13.4971 108.501s4.5 68.167 4.5 99.5c0 138.667 -25.667 247 -77 325s-122.666 117 -213.999 117
c-109.333 0 -208.166 -61 -296.499 -183s-147.833 -279.333 -178.5 -472c-5.33301 -38.667 -9.33301 -74.5 -12 -107.5s-4 -64.167 -4 -93.5c0 -138.667 25.333 -248.334 76 -329.001s120 -121 208 -121c114.667 0 215.334 59 302.001 177s146 277.667 178 479z" />
    <glyph glyph-name="one" unicode="1" 
d="M1008 1544l-244 -1544h-166l219 1386h-293l101 158h383z" />
    <glyph glyph-name="two" unicode="2" 
d="M1284 1132c-15.333 -94.667 -53.334 -186.832 -114.001 -276.499s-180.334 -219.834 -359.001 -390.501l-332 -318h649l-22 -147h-969l627 621c119.333 117.333 204.833 213 256.5 287s83.5 146.667 95.5 218c1.33301 12 2.33301 22 3 30s1 15.333 1 22
c0 74 -24.667 133.667 -74 179s-116 68 -200 68c-90 0 -169 -31.667 -237 -95s-110 -143.333 -126 -240h-159c24.667 150 85.834 268.333 183.501 355s220.834 130 369.501 130c128 0 228.833 -32.833 302.5 -98.5s110.5 -154.5 110.5 -266.5
c0 -12.667 -0.5 -25.5 -1.5 -38.5s-2.5 -26.167 -4.5 -39.5z" />
    <glyph glyph-name="three" unicode="3" 
d="M1237 1171c-14 -90.667 -49.334 -168.501 -106.001 -233.501s-125 -105.167 -205 -120.5c72 -13.333 128.833 -47.333 170.5 -102s62.5 -123 62.5 -205c0 -12.667 -0.5 -25.5 -1.5 -38.5s-2.5 -26.167 -4.5 -39.5c-22.667 -142 -83.167 -254.667 -181.5 -338
s-221.5 -125 -369.5 -125c-127.333 0 -225.666 30.333 -294.999 91s-104 146.334 -104 257.001c0 19.333 0.333008 34 1 44s1.66699 19.333 3 28h165c0 -4.66699 -0.166992 -10 -0.5 -16s-0.5 -15 -0.5 -27c0 -72 22.333 -127.833 67 -167.5s107 -59.5 187 -59.5
c100 0 182.167 27.833 246.5 83.5s104.166 133.5 119.499 233.5c2 11.333 3.5 22.166 4.5 32.499s1.5 20.833 1.5 31.5c0 76.667 -24.333 136 -73 178s-119 63 -211 63h-51l24 150h49c96 0 172.333 23.333 229 70s92.334 115.334 107.001 206.001c2 14 3.16699 24 3.5 30
s0.5 11.667 0.5 17c0 64.667 -20.167 116 -60.5 154s-95.833 57 -166.5 57c-76 0 -140.833 -19 -194.5 -57s-91.167 -91.333 -112.5 -160h-158c31.333 116 90.5 206.167 177.5 270.5s193.167 96.5 318.5 96.5c114.667 0 204 -29 268 -87s96 -137.667 96 -239
c0 -12.667 -0.5 -25.5 -1.5 -38.5s-2.5 -26.167 -4.5 -39.5z" />
    <glyph glyph-name="four" unicode="4" 
d="M1247 496l-22 -150h-221l-56 -346h-166l56 346h-758l1120 1241l-174 -1091h221zM965 1151l-596 -655h491z" />
    <glyph glyph-name="five" unicode="5" 
d="M1272 1544l-23 -146.999h-538l-160 -402c30.667 13.333 62 22.833 94 28.5s67 8.5 105 8.5c134 0 239.833 -38.333 317.5 -115s116.5 -180.334 116.5 -311.001c0 -18.667 -0.666992 -36.5 -2 -53.5s-3.33301 -33.167 -6 -48.5c-25.333 -160.667 -96.5 -290 -213.5 -388
s-259.5 -147 -427.5 -147c-96 0 -177.5 17.833 -244.5 53.5s-122.167 90.167 -165.5 163.5l119 107c40.667 -66 84.167 -111.5 130.5 -136.5s105.833 -37.5 178.5 -37.5c116 0 216.5 35.833 301.5 107.5s136.833 164.167 155.5 277.5c2 11.333 3.5 22.666 4.5 33.999
s1.5 22.333 1.5 33c0 94 -30 169.833 -90 227.5s-140 86.5 -240 86.5c-68.667 0 -135.834 -10.667 -201.501 -32s-124.167 -51.666 -175.5 -90.999l24 59c58.667 140.667 152.334 381.667 281.001 723h658z" />
    <glyph glyph-name="six" unicode="6" 
d="M1231 490c-23.333 -145.333 -93.167 -268.501 -209.5 -369.501s-247.833 -151.5 -394.5 -151.5c-130.667 0 -238.167 41.167 -322.5 123.5s-126.5 186.833 -126.5 313.5c0 12.667 0.5 26.167 1.5 40.5s2.5 28.5 4.5 42.5c13.333 82 45.333 165.333 96 250
s137 197.334 259 338.001l432 504l104 -92l-454 -533c18.667 12 45.167 21.833 79.5 29.5s65.833 11.5 94.5 11.5c131.333 0 237.833 -39.167 319.5 -117.5s122.5 -179.833 122.5 -304.5c0 -13.333 -0.5 -26.833 -1.5 -40.5s-2.5 -28.5 -4.5 -44.5zM1065 488.999
c1.33301 7.33301 2.33008 15.002 2.99707 23.002s1 20.333 1 37c0 88 -28.167 160.167 -84.5 216.5s-129.166 84.5 -218.499 84.5c-101.333 0 -192 -34.5 -272 -103.5s-128 -154.833 -144 -257.5c-1.33301 -6.66699 -2.33301 -14.334 -3 -23.001s-1 -21.334 -1 -38.001
c0 -90 28.333 -164 85 -222s129.334 -87 218.001 -87c99.333 0 189.333 36 270 108s129.334 159.333 146.001 262z" />
    <glyph glyph-name="seven" unicode="7" 
d="M1440 1544l-1096 -1585l-135 80l960 1358h-827l23 147h1075z" />
    <glyph glyph-name="eight" unicode="8" 
d="M1249 1159c-12 -76.667 -42.833 -145.167 -92.5 -205.5s-112.834 -105.833 -189.501 -136.5c68.667 -26.667 122.334 -68.667 161.001 -126s58 -123 58 -197c0 -11.333 -0.5 -22.666 -1.5 -33.999s-2.5 -23.333 -4.5 -36c-21.333 -130 -84.333 -238.333 -189 -325
s-226 -130 -364 -130c-124 0 -225 35.667 -303 107s-117 162.666 -117 273.999c0 11.333 0.5 22.833 1.5 34.5s2.5 23.5 4.5 35.5c14 92 51.5 173.667 112.5 245s136.167 122 225.5 152c-58 28.667 -102.167 66.667 -132.5 114s-45.5 102.333 -45.5 165
c0 10.667 0.5 21.834 1.5 33.501s2.5 23.167 4.5 34.5c18.667 115.333 76 212.666 172 291.999s206 119 330 119c110.667 0 200.667 -32.5 270 -97.5s104 -148.5 104 -250.5c0 -12 -0.5 -23.5 -1.5 -34.5s-2.5 -22.167 -4.5 -33.5zM1081 1151
c0.666992 1.33301 1.00098 3.33203 1.00098 5.99902c2 17.333 3 30.333 3 39c0 66.667 -21.5 121.5 -64.5 164.5s-97.833 64.5 -164.5 64.5c-74.667 0 -142.5 -26.5 -203.5 -79.5s-97.5 -116.833 -109.5 -191.5c-1.33301 -10.667 -2.33301 -19.5 -3 -26.5s-1 -13.5 -1 -19.5
c0 -65.333 21.667 -119.166 65 -161.499s98.666 -63.5 165.999 -63.5c76.667 0 144.667 25.667 204 77s95 115 107 191zM1014 430.999c1.33301 12.667 2.33398 22.499 3.00098 29.499s1 13.167 1 18.5c0 74.667 -25.333 136 -76 184s-115.334 72 -194.001 72
c-89.333 0 -169.5 -29.5 -240.5 -88.5s-113.167 -131.167 -126.5 -216.5c0 -1.33301 -0.333008 -3.33301 -1 -6c-2 -20 -3 -35 -3 -45c0 -76 25.5 -138.333 76.5 -187s116.167 -73 195.5 -73c94 0 174.667 29.333 242 88s108.333 133.334 123 224.001z" />
    <glyph glyph-name="nine" unicode="9" 
d="M1315 1055c-13.333 -81.333 -45.333 -164.002 -96 -248.002s-137.667 -197.333 -261 -340l-432 -504l-110 86l461 539c-19.333 -12 -46.166 -21.833 -80.499 -29.5s-65.833 -11.5 -94.5 -11.5c-131.333 0 -237.5 38.833 -318.5 116.5s-121.5 178.834 -121.5 303.501
c0 13.333 0.5 27.333 1.5 42s2.5 29.667 4.5 45c23.333 145.333 93.166 268.5 209.499 369.5s247.833 151.5 394.5 151.5c131.333 0 239 -41.167 323 -123.5s126 -186.5 126 -312.5c0 -13.333 -0.5 -27.166 -1.5 -41.499s-2.5 -28.5 -4.5 -42.5zM1149 1055
c1.33301 7.33301 2.33398 15.168 3.00098 23.501s1 20.833 1 37.5c0 89.333 -28.667 163.166 -86 221.499s-130.333 87.5 -219 87.5c-99.333 0 -189 -35.833 -269 -107.5s-128.333 -159.167 -145 -262.5c-1.33301 -7.33301 -2.33301 -15 -3 -23s-1 -20.333 -1 -37
c0 -87.333 28.167 -159.333 84.5 -216s129.166 -85 218.499 -85c101.333 0 192 34.5 272 103.5s128 154.833 144 257.5z" />
    <glyph glyph-name="colon" unicode=":" horiz-adv-x="631" 
d="M571 868c-4.66699 -32.667 -20.5 -60.501 -47.5 -83.501s-56.833 -34.5 -89.5 -34.5c-28.667 0 -52.834 9.66699 -72.501 29s-29.5 43 -29.5 71c0 2 0.333008 5 1 9s1 7 1 9c4.66699 32.667 20.334 60.334 47.001 83.001s56.667 34 90 34c30 0 54.5 -9.16699 73.5 -27.5
s28.5 -41.833 28.5 -70.5c0 -2.66699 -0.333008 -6 -1 -10s-1 -7 -1 -9zM449 87.999c-5.33301 -32.667 -21.5 -60.667 -48.5 -84s-56.833 -35 -89.5 -35c-28.667 0 -52.834 9.66699 -72.501 29s-29.5 43.333 -29.5 72c0 2 0.333008 5 1 9s1 7 1 9
c5.33301 32.667 21.333 60.667 48 84s56.334 35 89.001 35c29.333 0 53.833 -9.5 73.5 -28.5s29.5 -43.167 29.5 -72.5c0 -1.33301 -0.333008 -4 -1 -8s-1 -7.33301 -1 -10z" />
    <glyph glyph-name="semicolon" unicode=";" horiz-adv-x="631" 
d="M576 869c-5.33301 -33.333 -21.167 -61.501 -47.5 -84.501s-55.833 -34.5 -88.5 -34.5c-28.667 0 -52.834 9.66699 -72.501 29s-29.5 43 -29.5 71c0 2 0.333008 5 1 9s1 7 1 9c5.33301 32.667 21.333 60.334 48 83.001s56.334 34 89.001 34
c29.333 0 53.5 -9.16699 72.5 -27.5s28.5 -41.833 28.5 -70.5c0 -5.33301 -0.333008 -9.33301 -1 -12s-1 -4.66699 -1 -6zM460.999 169.999l-355 -528l-94 41l287 561z" />
    <glyph glyph-name="less" unicode="&#x3c;" 
d="M1323 1087l-23 -141l-919 -389l797 -391l-23 -141l-965 475l19 114z" />
    <glyph glyph-name="equal" unicode="=" 
d="M1280 819l-20 -129h-1041l21 129h1040zM1219 426l-21 -129h-1040l20 129h1041z" />
    <glyph glyph-name="greater" unicode="&#x3e;" 
d="M1249 614l-18 -114l-1116 -475l22 141l918 391l-795 389l23 141z" />
    <glyph glyph-name="question" unicode="?" horiz-adv-x="999" 
d="M1040 1167c-8.66699 -58 -24.998 -110.836 -48.998 -158.503s-54.167 -89.334 -90.5 -125.001s-78.333 -64.5 -126 -86.5s-99.834 -36.333 -156.501 -43l-57 -363h-153l77 496h62c52 0 98.5 7.83301 139.5 23.5s76 38.334 105 68.001s51.167 66 66.5 109
s23 92.167 23 147.5c0 58.667 -14.5 105.334 -43.5 140.001s-73.167 52 -132.5 52c-36.667 0 -68.667 -6.83301 -96 -20.5s-50.5 -31 -69.5 -52s-34 -44.333 -45 -70s-18.833 -50.5 -23.5 -74.5h-154c8 47.333 22.833 93 44.5 137s50 82.833 85 116.5s76.5 60.667 124.5 81
s102 30.5 162 30.5c49.333 0 93.5 -7.16699 132.5 -21.5s72.167 -35.166 99.5 -62.499s48.166 -60.666 62.499 -99.999s21.5 -84 21.5 -134c0 -14 -1 -28.667 -3 -44zM553.002 87.9971c-2.66699 -16 -8.16699 -31.333 -16.5 -46s-18.833 -27.334 -31.5 -38.001
s-26.667 -19.167 -42 -25.5s-31 -9.5 -47 -9.5c-30 0 -54.667 9.83301 -74 29.5s-29 43.5 -29 71.5c0 18 4 35.333 12 52s18.5 31.334 31.5 44.001s28 22.667 45 30s34.167 11 51.5 11c30 0 54.5 -9.5 73.5 -28.5s28.5 -43.167 28.5 -72.5v-9
c0 -2.66699 -0.666992 -5.66699 -2 -9z" />
    <glyph glyph-name="at" unicode="@" horiz-adv-x="1638" 
d="M1735 918c-28.667 -176 -88.999 -314.335 -180.999 -415.002s-207.333 -151 -346 -151c-51.333 0 -90.666 10.833 -117.999 32.5s-41 52.5 -41 92.5c0 7.33301 0.166992 13.166 0.5 17.499s0.5 7.83301 0.5 10.5c-35.333 -48 -77.833 -85.167 -127.5 -111.5
s-101.834 -39.5 -156.501 -39.5c-78 0 -137.167 19.667 -177.5 59s-60.5 97 -60.5 173c0 12 0.666992 25.167 2 39.5s3 28.5 5 42.5c22.667 146.667 82.5 270.667 179.5 372s202.833 152 317.5 152c50.667 0 92.834 -12.167 126.501 -36.5s55.834 -58.5 66.501 -102.5
l65 102h115l-209 -534c-6 -15.333 -10.833 -29.666 -14.5 -42.999s-6.5 -25.333 -8.5 -36c-0.666992 -3.33301 -1.16699 -6.83301 -1.5 -10.5s-0.5 -8.83398 -0.5 -15.501c0 -17.333 4.83301 -29.5 14.5 -36.5s27.5 -10.5 53.5 -10.5c91.333 0 170.166 39.167 236.499 117.5
s110.5 186.833 132.5 325.5c3.33301 25.333 5.5 44.333 6.5 57s1.5 24.334 1.5 35.001c0 136.667 -46.167 246.834 -138.5 330.501s-217.5 125.5 -375.5 125.5c-218 0 -399 -66.167 -543 -198.5s-234 -313.166 -270 -542.499c-4 -25.333 -7.16699 -50.333 -9.5 -75
s-3.5 -48.334 -3.5 -71.001c0 -158 47.5 -279 142.5 -363s232.5 -126 412.5 -126c103.333 0 210.333 16 321 48s206.667 75.333 288 130l47 -92c-86.667 -63.333 -189.834 -112.666 -309.501 -147.999s-239.834 -53 -360.501 -53c-210 0 -373.667 51.167 -491 153.5
s-176 247.166 -176 434.499c0 24.667 1 50.334 3 77.001s5 54.334 9 83.001c40.667 259.333 147.667 467.166 321 623.499s387 234.5 641 234.5c186.667 0 336.5 -50.5 449.5 -151.5s169.5 -233.5 169.5 -397.5c0 -20 -0.666992 -39 -2 -57s-3.33301 -35 -6 -51z
M1173 898.998c-0.666992 57.333 -14.165 100.998 -40.498 130.998s-64.5 45 -114.5 45c-80.667 0 -153.834 -38.667 -219.501 -116s-107.834 -175.666 -126.501 -294.999c-1.33301 -7.33301 -2.33301 -15.166 -3 -23.499s-1 -19.833 -1 -34.5c0 -46 11.333 -80 34 -102
s57.667 -33 105 -33c58.667 0 116 24 172 72s99 110 129 186z" />
    <glyph glyph-name="A" unicode="A" horiz-adv-x="1432" 
d="M1417 0h-190l-127 467h-641l-273 -467h-190l962 1587zM1061 614l-162 596l-350 -596h512z" />
    <glyph glyph-name="B" unicode="B" horiz-adv-x="1163" 
d="M1131 437c-24 -147.333 -86.668 -257 -188.001 -329s-243.666 -108 -426.999 -108h-356l243 1544h312c127.333 0 226 -28.333 296 -85s105 -136 105 -238c0 -12.667 -0.5 -24.834 -1.5 -36.501s-2.5 -24.167 -4.5 -37.5c-13.333 -85.333 -43.833 -155.833 -91.5 -211.5
s-108.5 -91.834 -182.5 -108.501c92.667 -12 166 -47.667 220 -107s81 -132.666 81 -219.999c0 -10 -0.5 -20.167 -1.5 -30.5s-2.5 -21.166 -4.5 -32.499zM935.999 1133c2 11.333 3.5 22.166 4.5 32.499s1.5 20.5 1.5 30.5c0 65.333 -21.167 113.333 -63.5 144
s-107.833 46 -196.5 46h-131l-80 -505h104c106.667 0 190 20.833 250 62.5s97 104.834 111 189.501zM957.999 436c2 15.333 3.33398 26.668 4.00098 34.001s1 13.666 1 18.999c0 78.667 -30.333 138.667 -91 180s-149.334 62 -266.001 62h-157l-93 -573h191
c129.333 0 226.333 22.5 291 67.5s104.667 115.167 120 210.5z" />
    <glyph glyph-name="C" unicode="C" horiz-adv-x="1468" 
d="M1614 1440l-31.001 -193.001c-55.333 52 -122.5 92.667 -201.5 122s-159.167 44 -240.5 44c-190.667 0 -359.667 -60.833 -507 -182.5s-235.666 -273.834 -264.999 -456.501c-2.66699 -17.333 -4.83398 -35.166 -6.50098 -53.499s-2.5 -37.166 -2.5 -56.499
c0 -157.333 51.5 -285.5 154.5 -384.5s235.167 -148.5 396.5 -148.5c90.667 0 183 14.833 277 44.5s176 70.167 246 121.5l-31 -197c-63.333 -36.667 -145 -67.667 -245 -93s-189 -38 -267 -38c-210.667 0 -381.167 61.167 -511.5 183.5s-195.5 282.5 -195.5 480.5
c0 22.667 1 45.667 3 69s5.33301 47.333 10 72c35.333 226.667 144.333 416.834 327 570.501s390.334 230.5 623.001 230.5c96.667 0 185.667 -11.833 267 -35.5s148 -56.834 200 -99.501z" />
    <glyph glyph-name="D" unicode="D" horiz-adv-x="1389" 
d="M1438 770c-40.667 -254 -144.168 -445.833 -310.501 -575.5s-391.166 -194.5 -674.499 -194.5h-293l243 1544h304c242 0 426.667 -52.333 554 -157s191 -255.667 191 -453c0 -22 -1.16699 -45.667 -3.5 -71s-5.83301 -56.333 -10.5 -93zM1266 772
c4 23.333 7.00098 46.333 9.00098 69s3 44.667 3 66c0 155.333 -49.333 273.333 -148 354s-243.334 121 -434.001 121h-145l-193 -1220h127c236 0 417 49.667 543 149s205.333 253 238 461z" />
    <glyph glyph-name="E" unicode="E" horiz-adv-x="1094" 
d="M1186 1544l-25 -162h-610l-74 -469h610l-26 -161h-610l-93 -590h611l-27 -162h-782l243 1544h783z" />
    <glyph glyph-name="F" unicode="F" horiz-adv-x="979" 
d="M1120 1544l-24 -162h-545l-74 -469h545l-27 -161h-544l-119 -752h-172l243 1544h717z" />
    <glyph glyph-name="G" unicode="G" horiz-adv-x="1679" 
d="M1731 782c-39.333 -246.667 -137.835 -443.832 -295.502 -591.499s-352.167 -221.5 -583.5 -221.5c-199.333 0 -360.5 60.667 -483.5 182s-184.5 280 -184.5 476c0 22.667 1 46 3 70s5.33301 49 10 75c36.667 229.333 140.667 420.5 312 573.5
s367.666 229.5 588.999 229.5c142 0 262.833 -26.5 362.5 -79.5s176.834 -131.5 231.501 -235.5l-146 -103c-42.667 82.667 -104.167 146 -184.5 190s-174.5 66 -282.5 66c-176 0 -331.167 -61.5 -465.5 -184.5s-216.5 -278.5 -246.5 -466.5
c-3.33301 -16.667 -5.66602 -34 -6.99902 -52s-2 -37 -2 -57c0 -152 48.333 -277 145 -375s221.334 -147 374.001 -147s289 46.667 409 140s196.667 210.666 230 351.999h-484l27 159h672z" />
    <glyph glyph-name="H" unicode="H" horiz-adv-x="1462" 
d="M1546 1544l-243 -1544h-173l119 750h-798l-119 -750h-172l243 1544h172l-100 -633h799l100 633h172z" />
    <glyph glyph-name="I" unicode="I" horiz-adv-x="489" 
d="M575 1544l-243 -1544h-172l243 1544h172z" />
    <glyph glyph-name="J" unicode="J" horiz-adv-x="643" 
d="M707 1544l-200.998 -1276c-24 -156 -65.833 -266.333 -125.5 -331s-148.167 -97 -265.5 -97c-45.333 0 -85.333 6.5 -120 19.5s-64.334 32.5 -89.001 58.5l84 145c21.333 -23.333 42.666 -39.666 63.999 -48.999s47 -14 77 -14c64 0 109.833 20 137.5 60
s50.167 115 67.5 225l199 1259h172z" />
    <glyph glyph-name="K" unicode="K" horiz-adv-x="1251" 
d="M1442 1544l-793 -727l578 -817h-219l-549 799l-127 -799h-172l243 1544h172l-112 -723l772 723h207z" />
    <glyph glyph-name="L" unicode="L" horiz-adv-x="768" 
d="M768 158l-25 -158h-583l243 1544h172l-219 -1386h412z" />
    <glyph glyph-name="M" unicode="M" horiz-adv-x="1835" 
d="M1755 1587l-8 -1587h-174l18 1053l-680 -1096l-333 1096l-314 -1053h-176l500 1587l385 -1263z" />
    <glyph glyph-name="N" unicode="N" horiz-adv-x="1708" 
d="M1782 1544l-250 -1587l-1004 1217l-186 -1174h-172l252 1587l1003 -1214l185 1171h172z" />
    <glyph glyph-name="O" unicode="O" horiz-adv-x="1765" 
d="M1815 773c-36 -226.667 -144.169 -417.332 -324.502 -571.999s-384.166 -232 -611.499 -232c-203.333 0 -369.666 63.167 -498.999 189.5s-194 287.166 -194 482.499c0 18.667 0.833008 38.667 2.5 60s4.5 45.333 8.5 72c35.333 228 142.5 418.667 321.5 572
s383.833 230 614.5 230c204.667 0 371.167 -62.167 499.5 -186.5s192.5 -284.833 192.5 -481.5c0 -26 -0.833008 -49.833 -2.5 -71.5s-4.16699 -42.5 -7.5 -62.5zM1642 772.002c3.33301 16.667 5.66895 33.667 7.00195 51s2 36 2 56c0 156 -50.667 284 -152 384
s-232.333 150 -393 150c-190.667 0 -353.834 -62.5 -489.501 -187.5s-217.5 -276.167 -245.5 -453.5c-2.66699 -16.667 -4.83398 -34 -6.50098 -52s-2.5 -36.667 -2.5 -56c0 -156.667 50 -284.667 150 -384s230.333 -149 391 -149c181.333 0 343 61.833 485 185.5
s226.667 275.5 254 455.5z" />
    <glyph glyph-name="P" unicode="P" horiz-adv-x="1030" 
d="M1124 1112c-22 -140.667 -85 -247.5 -189 -320.5s-245 -109.5 -423 -109.5h-72l-108 -682h-172l243 1544h244c162.667 0 284.334 -28.333 365.001 -85s121 -141.667 121 -255c0 -16 -0.833008 -31.667 -2.5 -47s-3.83398 -30.333 -6.50098 -45zM952 1112
c2 10.667 3.5 21.167 4.5 31.5s1.5 20.5 1.5 30.5c0 72 -26 124.667 -78 158s-136.333 50 -253 50h-76l-86 -538h76c134.667 0 233.167 20.667 295.5 62s100.833 110 115.5 206z" />
    <glyph glyph-name="Q" unicode="Q" horiz-adv-x="1765" 
d="M1815 773c-16 -102 -49.168 -199.332 -99.501 -291.999s-114.833 -176 -193.5 -250l176 -231h-205l-98 129c-78.667 -52 -162 -91.667 -250 -119s-176.667 -41 -266 -41c-203.333 0 -369.666 63.167 -498.999 189.5s-194 287.166 -194 482.499
c0 18.667 0.833008 38.667 2.5 60s4.5 45.333 8.5 72c35.333 228 142.5 418.667 321.5 572s383.833 230 614.5 230c204.667 0 371.167 -62.167 499.5 -186.5s192.5 -284.833 192.5 -481.5c0 -26 -0.833008 -49.833 -2.5 -71.5s-4.16699 -42.5 -7.5 -62.5zM1642 772.001
c3.33301 16.667 5.66992 33.668 7.00293 51.001s2 36 2 56c0 156 -50.667 284 -152 384s-232.333 150 -393 150c-190.667 0 -353.834 -62.5 -489.501 -187.5s-217.5 -276.167 -245.5 -453.5c-2.66699 -16.667 -4.83398 -34 -6.50098 -52s-2.5 -36.667 -2.5 -56
c0 -156.667 50 -284.667 150 -384s230.333 -149 391 -149c69.333 0 137.666 10.167 204.999 30.5s131.333 50.5 192 90.5l-276 364h205l198 -262c58 59.333 105.5 124.666 142.5 195.999s61.167 145.333 72.5 222z" />
    <glyph glyph-name="R" unicode="R" horiz-adv-x="1110" 
d="M1165 1128c-18.667 -119.333 -70.167 -213.834 -154.5 -283.501s-192.5 -106.167 -324.5 -109.5l379 -735h-209l-358 729h-52l-114 -729h-172l243 1544h322c146.667 0 257.667 -28.333 333 -85s113 -139.667 113 -249c0 -13.333 -0.5 -26.666 -1.5 -39.999
s-2.5 -27.333 -4.5 -42zM993 1122c1.33301 7.33301 2.33203 15 2.99902 23s1 19.667 1 35c0 69.333 -25.167 120.333 -75.5 153s-129.5 49 -237.5 49h-133l-80 -505h133c122.667 0 214.834 19.333 276.501 58s99.167 101 112.5 187z" />
    <glyph glyph-name="S" unicode="S" horiz-adv-x="1145" 
d="M1149 1393l-135.001 -109.002c-17.333 41.333 -45.5 73.166 -84.5 95.499s-85.167 33.5 -138.5 33.5c-75.333 0 -137.666 -19 -186.999 -57s-79.333 -89.333 -90 -154c0 -1.33301 -0.333008 -3.33301 -1 -6c-2 -17.333 -3 -30.333 -3 -39c0 -44 14 -83.167 42 -117.5
s82.333 -75.833 163 -124.5l11 -6c236.667 -140 355 -280.667 355 -422c0 -12 -0.5 -24.333 -1.5 -37s-2.5 -25.667 -4.5 -39c-21.333 -136.667 -80.833 -244.5 -178.5 -323.5s-220.5 -118.5 -368.5 -118.5c-102 0 -187.667 23.333 -257 70
s-114.666 111.334 -135.999 194.001l139 105c14 -64.667 46.5 -115.334 97.5 -152.001s113.5 -55 187.5 -55c94 0 171 24 231 72s97 115.667 111 203c0 0.666992 0.333008 2.33398 1 5.00098c2 17.333 3 31.333 3 42c0 56.667 -21 108.334 -63 155.001
s-110.333 95.334 -205 146.001c-110.667 58.667 -188.834 115.334 -234.501 170.001s-68.5 118.667 -68.5 192c0 12.667 0.5 25.5 1.5 38.5s2.5 26.167 4.5 39.5c18 113.333 71.5 205.166 160.5 275.499s197.167 105.5 324.5 105.5c78 0 144 -15.333 198 -46
s96 -76 126 -136z" />
    <glyph glyph-name="T" unicode="T" horiz-adv-x="963" 
d="M1176 1544l-25 -155h-365l-219 -1389h-172l219 1389h-364l24 155h902z" />
    <glyph glyph-name="U" unicode="U" horiz-adv-x="1403" 
d="M1487 1544l-152 -966.002c-32 -205.333 -100.333 -358.166 -205 -458.499s-248.667 -150.5 -432 -150.5c-153.333 0 -268.333 36.5 -345 109.5s-115 182.833 -115 329.5c0 28.667 1.16699 57 3.5 85s5.83301 56.333 10.5 85l151 966h172l-157 -1001
c-4 -25.333 -6.66699 -47.166 -8 -65.499s-2 -35.5 -2 -51.5c0 -98.667 26 -172.5 78 -221.5s131 -73.5 237 -73.5c125.333 0 223.5 33.667 294.5 101s117.5 171 139.5 311l158 1001h172z" />
    <glyph glyph-name="V" unicode="V" horiz-adv-x="1278" 
d="M1532 1544l-901 -1585l-398 1585h187l276 -1169l650 1169h186z" />
    <glyph glyph-name="W" unicode="W" horiz-adv-x="2234" 
d="M2488 1544l-901 -1585l-287 1210l-669 -1210l-398 1585h187l276 -1169l674 1212l283 -1212l649 1169h186z" />
    <glyph glyph-name="X" unicode="X" horiz-adv-x="1155" 
d="M1372 1544l-567 -737l348 -807h-195l-278 657l-481 -657h-197l608 817l-334 727h195l262 -590l445 590h194z" />
    <glyph glyph-name="Y" unicode="Y" horiz-adv-x="1214" 
d="M1425 1544l-614 -835l-113 -709h-172l113 709l-363 835h193l283 -680l483 680h190z" />
    <glyph glyph-name="Z" unicode="Z" horiz-adv-x="1200" 
d="M1376 1544l-1034 -1382h770l-27 -162h-1054l1040 1382h-729l25 162h1009z" />
    <glyph glyph-name="bracketleft" unicode="[" horiz-adv-x="645" 
d="M780 1544l-22 -141h-205l-266 -1694h205l-23 -139h-356l311 1974h356z" />
    <glyph glyph-name="backslash" unicode="\" horiz-adv-x="1167" 
d="M1151 -244l-121 -63l-727 1956l119 63z" />
    <glyph glyph-name="bracketright" unicode="]" horiz-adv-x="645" 
d="M668 1544l-312 -1974h-356l23 139h204l267 1694h-205l22 141h357z" />
    <glyph glyph-name="asciicircum" unicode="^" 
d="M1182 866h-138l-223 518l-387 -518h-139l483 678h133z" />
    <glyph glyph-name="underscore" unicode="_" horiz-adv-x="1024" 
d="M989 -225l-22 -133h-1024l22 133h1024z" />
    <glyph glyph-name="grave" unicode="`" horiz-adv-x="733" 
d="M674 1135l-74 -66l-248 270l99 97z" />
    <glyph glyph-name="a" unicode="a" horiz-adv-x="1182" 
d="M1186 956l-152 -956h-164l25 158c-42.667 -62 -96 -109 -160 -141s-135.667 -48 -215 -48c-115.333 0 -208.333 37.667 -279 113s-106 175 -106 299c0 18.667 0.666992 36.667 2 54s3.33301 34 6 50c23.333 147.333 85.5 267.5 186.5 360.5s219.167 139.5 354.5 139.5
c76.667 0 142.167 -15 196.5 -45s93.833 -73 118.5 -129l23 145h164zM948 489c2 13.333 3.50098 26.168 4.50098 38.501s1.5 24.166 1.5 35.499c0 82.667 -24.167 147.667 -72.5 195s-114.166 71 -197.499 71c-95.333 0 -177.833 -31.5 -247.5 -94.5
s-112.834 -146.833 -129.501 -251.5c-2 -13.333 -3.5 -26.333 -4.5 -39s-1.5 -24.667 -1.5 -36c0 -85.333 24.167 -153.5 72.5 -204.5s112.166 -76.5 191.499 -76.5c94 0 177.167 33.833 249.5 101.5s116.833 154.5 133.5 260.5z" />
    <glyph glyph-name="b" unicode="b" horiz-adv-x="1182" 
d="M1194 485c-24 -150.667 -86.834 -274.333 -188.501 -371s-219.167 -145 -352.5 -145c-79.333 0 -146 16 -200 48s-93 79 -117 141l-25 -158h-164l269 1690h164l-140 -879c42.667 56 95.667 99 159 129s133.333 45 210 45c118.667 0 213.834 -36.667 285.501 -110
s107.5 -170.333 107.5 -291c0 -18 -0.666992 -35 -2 -51s-3.33301 -32 -6 -48zM1026 483.001c2 12 3.49902 23.999 4.49902 35.999s1.5 24 1.5 36c0 84 -24.667 150.667 -74 200s-115.333 74 -198 74c-96 0 -177.667 -30.5 -245 -91.5s-109.333 -143.833 -126 -248.5
c-2 -13.333 -3.5 -26.166 -4.5 -38.499s-1.5 -23.833 -1.5 -34.5c0 -87.333 25.333 -157.333 76 -210s116.667 -79 198 -79c92 0 172.333 33 241 99s111.334 151.667 128.001 257z" />
    <glyph glyph-name="c" unicode="c" horiz-adv-x="975" 
d="M1022 920l-27.0029 -175.001c-33.333 26.667 -72.666 47.334 -117.999 62.001s-91.333 22 -138 22c-113.333 0 -209.666 -32.833 -288.999 -98.5s-127.666 -152.834 -144.999 -261.501c-1.33301 -7.33301 -2.33301 -15.166 -3 -23.499s-1 -20.166 -1 -35.499
c0 -86 29.833 -154.667 89.5 -206s139.167 -77 238.5 -77c52.667 0 104.5 7.5 155.5 22.5s96.833 36.167 137.5 63.5l-27 -174c-46 -23.333 -95.333 -40.833 -148 -52.5s-107.667 -17.5 -165 -17.5c-135.333 0 -244 38.167 -326 114.5s-123 176.833 -123 301.5
c0 10 0.5 21.167 1.5 33.5s3.16699 31.166 6.5 56.499c24 150 93.333 272.5 208 367.5s251 142.5 409 142.5c54.667 0 103.5 -5.33301 146.5 -16s82.167 -27 117.5 -49z" />
    <glyph glyph-name="d" unicode="d" horiz-adv-x="1182" 
d="M1303 1690l-269 -1690h-164l25 158c-42.667 -62 -96 -109 -160 -141s-135.667 -48 -215 -48c-115.333 0 -208.333 37.667 -279 113s-106 175 -106 299c0 18.667 0.666992 36.667 2 54s3.33301 34 6 50c23.333 147.333 85.5 267.5 186.5 360.5s219.167 139.5 354.5 139.5
c76.667 0 142.167 -15 196.5 -45s93.833 -73 118.5 -129l140 879h164zM948 489c2 13.333 3.50098 26.168 4.50098 38.501s1.5 24.166 1.5 35.499c0 82.667 -24.167 147.667 -72.5 195s-114.166 71 -197.499 71c-95.333 0 -177.833 -31.5 -247.5 -94.5
s-112.834 -146.833 -129.501 -251.5c-2 -13.333 -3.5 -26.333 -4.5 -39s-1.5 -24.667 -1.5 -36c0 -85.333 24.167 -153.5 72.5 -204.5s112.166 -76.5 191.499 -76.5c94 0 177.167 33.833 249.5 101.5s116.833 154.5 133.5 260.5z" />
    <glyph glyph-name="e" unicode="e" horiz-adv-x="1063" 
d="M1077 510l-8.00195 -57.001l-768 -1c-0.666992 -6 -1.16699 -13 -1.5 -21s-0.5 -19.333 -0.5 -34c0 -86.667 22.833 -153.334 68.5 -200.001s110.167 -70 193.5 -70c70.667 0 132.834 13.833 186.501 41.5s98.834 69.167 135.501 124.5l125 -72
c-58 -83.333 -126.5 -146.166 -205.5 -188.499s-168.167 -63.5 -267.5 -63.5c-125.333 0 -223.666 36.167 -294.999 108.5s-107 171.5 -107 297.5c0 20 0.666992 39 2 57s3.33301 35 6 51c22.667 144 87 263.667 193 359s225.333 143 358 143
c119.333 0 214.666 -34.5 285.999 -103.5s107 -161.5 107 -277.5c0 -19.333 -2.33301 -48.666 -7 -87.999zM923.998 568.999l0.000976562 22.999c0 74.667 -22.667 132.834 -68 174.501s-108 62.5 -188 62.5c-80.667 0 -152.834 -23.5 -216.501 -70.5
s-106.167 -110.167 -127.5 -189.5h600z" />
    <glyph glyph-name="f" unicode="f" horiz-adv-x="561" 
d="M809 1699l-23 -149.003c-11.333 6.66699 -23.666 11.5 -36.999 14.5s-27.333 4.5 -42 4.5c-48.667 0 -83.667 -17.167 -105 -51.5s-39.666 -99.166 -54.999 -194.499l-58 -367h195l-22 -147h-195l-129 -809h-164l129 809h-113l23 147h113l59 371
c22 138.667 58 237.834 108 297.501s122.667 89.5 218 89.5c19.333 0 37.166 -1.16699 53.499 -3.5s31.166 -6.16602 44.499 -11.499z" />
    <glyph glyph-name="g" unicode="g" horiz-adv-x="1188" 
d="M1186 956l-160 -1007c-27.333 -170.667 -86.666 -297 -177.999 -379s-218.333 -123 -381 -123c-126.667 0 -223.834 26.833 -291.501 80.5s-101.5 129.834 -101.5 228.501v8h170c2 -53.333 24 -93.5 66 -120.5s103.333 -40.5 184 -40.5c111.333 0 195.5 26.333 252.5 79
s94.833 136.667 113.5 252l35 224c-42.667 -62 -96 -109 -160 -141s-135.667 -48 -215 -48c-115.333 0 -208.333 37.667 -279 113s-106 175 -106 299c0 18.667 0.666992 36.667 2 54s3.33301 34 6 50c23.333 147.333 85.5 267.5 186.5 360.5s219.167 139.5 354.5 139.5
c76.667 0 142.167 -15 196.5 -45s93.833 -73 118.5 -129l23 145h164zM948 488.999c2 13.333 3.50098 26.168 4.50098 38.501s1.5 24.166 1.5 35.499c0 82.667 -24.167 147.667 -72.5 195s-114.166 71 -197.499 71c-95.333 0 -177.833 -31.5 -247.5 -94.5
s-112.834 -146.833 -129.501 -251.5c-2 -13.333 -3.5 -26.333 -4.5 -39s-1.5 -24.667 -1.5 -36c0 -85.333 24.167 -153.5 72.5 -204.5s112.166 -76.5 191.499 -76.5c94 0 177.167 33.833 249.5 101.5s116.833 154.5 133.5 260.5z" />
    <glyph glyph-name="h" unicode="h" horiz-adv-x="1081" 
d="M1036 616l-98 -616h-164l90 571c2.66699 14.667 4.66699 29.5 6 44.5s2 30.5 2 46.5c0 60.667 -13.833 105.5 -41.5 134.5s-71.167 43.5 -130.5 43.5c-82 0 -149.833 -32.5 -203.5 -97.5s-90.167 -159.5 -109.5 -283.5l-72 -459h-163l268 1690h164l-140 -875
c38 56.667 84.833 99.167 140.5 127.5s120.167 42.5 193.5 42.5c84 0 149.333 -24 196 -72s70 -116 70 -204c0 -16.667 -0.666992 -32.667 -2 -48s-3.33301 -30.333 -6 -45z" />
    <glyph glyph-name="i" unicode="i" horiz-adv-x="537" 
d="M592 1333c-5.33301 -30.667 -20.832 -56.999 -46.499 -78.999s-53.834 -33 -84.501 -33c-27.333 0 -50.166 9 -68.499 27s-27.5 40.333 -27.5 67c0 2 0.333008 5.16699 1 9.5s1 7.16602 1 8.49902c4.66699 30.667 20 57.167 46 79.5s54.333 33.5 85 33.5
c27.333 0 50.166 -9 68.499 -27s27.5 -40.333 27.5 -67c0 -2 -0.333008 -5 -1 -9s-1 -7.33301 -1 -10zM502.001 956.001l-152 -956h-164l152 956h164z" />
    <glyph glyph-name="j" unicode="j" horiz-adv-x="537" 
d="M592 1333c-5.33301 -30.667 -20.832 -56.999 -46.499 -78.999s-53.834 -33 -84.501 -33c-27.333 0 -50.166 9 -68.499 27s-27.5 40.333 -27.5 67c0 2 0.333008 5.16699 1 9.5s1 7.16602 1 8.49902c4.66699 30.667 20 57.167 46 79.5s54.333 33.5 85 33.5
c27.333 0 50.166 -9 68.499 -27s27.5 -40.333 27.5 -67c0 -2 -0.333008 -5 -1 -9s-1 -7.33301 -1 -10zM502.001 956.001l-236 -1488h-164l236 1488h164z" />
    <glyph glyph-name="k" unicode="k" horiz-adv-x="963" 
d="M1071 956l-498 -432l383 -524h-202l-359 504l-80 -504h-163l268 1690h164l-185 -1160l478 426h194z" />
    <glyph glyph-name="l" unicode="l" horiz-adv-x="465" 
d="M584 1690l-269 -1690h-163l268 1690h164z" />
    <glyph glyph-name="m" unicode="m" horiz-adv-x="1573" 
d="M1530 629l-100 -629.002h-164l90 573c2.66699 16.667 4.66699 33 6 49s2 32 2 48c0 57.333 -12 100 -36 128s-61 42 -111 42c-74.667 0 -132.334 -27.833 -173.001 -83.5s-72 -150.167 -94 -283.5l-76 -473h-163l90 574c3.33301 24.667 5.83301 45.834 7.5 63.501
s2.5 33.167 2.5 46.5c0 54.667 -11 94.334 -33 119.001s-58 37 -108 37c-75.333 0 -135.666 -30.833 -180.999 -92.5s-78.666 -157.167 -99.999 -286.5l-74 -461h-163l151 956h164l-21 -127c32 52 72.833 91 122.5 117s108.5 39 176.5 39
c63.333 0 114.833 -14.333 154.5 -43s64.834 -70.334 75.501 -125.001c33.333 54.667 77.166 96.334 131.499 125.001s116.166 43 185.499 43c78 0 138.5 -22.667 181.5 -68s64.5 -110 64.5 -194c0 -16 -0.666992 -31.833 -2 -47.5s-3.33301 -31.167 -6 -46.5z" />
    <glyph glyph-name="n" unicode="n" horiz-adv-x="1081" 
d="M1036 616l-98 -616h-164l90 571c2.66699 14.667 4.66699 29.5 6 44.5s2 30.5 2 46.5c0 60.667 -13.833 105.5 -41.5 134.5s-71.167 43.5 -130.5 43.5c-82 0 -149.833 -32.5 -203.5 -97.5s-90.167 -159.5 -109.5 -283.5l-72 -459h-163l151 956h164l-23 -141
c38 56.667 84.833 99.167 140.5 127.5s120.167 42.5 193.5 42.5c84 0 149.333 -24 196 -72s70 -116 70 -204c0 -16.667 -0.666992 -32.667 -2 -48s-3.33301 -30.333 -6 -45z" />
    <glyph glyph-name="o" unicode="o" horiz-adv-x="1151" 
d="M1161 481c-22.667 -142 -91.332 -262.834 -205.999 -362.501s-243.334 -149.5 -386.001 -149.5c-126 0 -229.833 40.333 -311.5 121s-122.5 183 -122.5 307c0 13.333 0.5 27.166 1.5 41.499s2.5 28.5 4.5 42.5c22.667 142.667 90.5 262.334 203.5 359.001
s241.167 145 384.5 145c128 0 233 -39.667 315 -119s123 -180.333 123 -303c0 -13.333 -0.5 -26.666 -1.5 -39.999s-2.5 -27.333 -4.5 -42zM997.002 480.999c2 7.33301 3.16602 15.1689 3.49902 23.502s0.5 21.166 0.5 38.499c0 84.667 -27.5 153.5 -82.5 206.5
s-125.5 79.5 -211.5 79.5c-99.333 0 -187.166 -32.833 -263.499 -98.5s-122.5 -148.834 -138.5 -249.501c-1.33301 -7.33301 -2.33301 -15.166 -3 -23.499s-1 -20.833 -1 -37.5c0 -86.667 27.5 -157.167 82.5 -211.5s125.833 -81.5 212.5 -81.5c98 0 185.333 33.667 262 101
s123 151.666 139 252.999z" />
    <glyph glyph-name="p" unicode="p" horiz-adv-x="1182" 
d="M1194 485c-24 -150.667 -86.834 -274.333 -188.501 -371s-219.167 -145 -352.5 -145c-79.333 0 -146 16 -200 48s-93 79 -117 141l-109 -690h-164l236 1488h164l-23 -145c42.667 56 95.667 99 159 129s133.333 45 210 45c118.667 0 213.834 -36.667 285.501 -110
s107.5 -170.333 107.5 -291c0 -18 -0.666992 -35 -2 -51s-3.33301 -32 -6 -48zM1026 483.001c2 12 3.49902 23.999 4.49902 35.999s1.5 24 1.5 36c0 84 -24.667 150.667 -74 200s-115.333 74 -198 74c-96 0 -177.667 -30.5 -245 -91.5s-109.333 -143.833 -126 -248.5
c-2 -13.333 -3.5 -26.166 -4.5 -38.499s-1.5 -23.833 -1.5 -34.5c0 -87.333 25.333 -157.333 76 -210s116.667 -79 198 -79c92 0 172.333 33 241 99s111.334 151.667 128.001 257z" />
    <glyph glyph-name="q" unicode="q" horiz-adv-x="1182" 
d="M1186 956l-236 -1488h-164l109 690c-42.667 -62 -96 -109 -160 -141s-135.667 -48 -215 -48c-115.333 0 -208.333 37.667 -279 113s-106 175 -106 299c0 18.667 0.666992 36.667 2 54s3.33301 34 6 50c23.333 147.333 85.5 267.5 186.5 360.5s219.167 139.5 354.5 139.5
c76.667 0 142.167 -15 196.5 -45s93.833 -73 118.5 -129l23 145h164zM948 489c2 13.333 3.50098 26.168 4.50098 38.501s1.5 24.166 1.5 35.499c0 82.667 -24.167 147.667 -72.5 195s-114.166 71 -197.499 71c-95.333 0 -177.833 -31.5 -247.5 -94.5
s-112.834 -146.833 -129.501 -251.5c-2 -13.333 -3.5 -26.333 -4.5 -39s-1.5 -24.667 -1.5 -36c0 -85.333 24.167 -153.5 72.5 -204.5s112.166 -76.5 191.499 -76.5c94 0 177.167 33.833 249.5 101.5s116.833 154.5 133.5 260.5z" />
    <glyph glyph-name="r" unicode="r" horiz-adv-x="686" 
d="M836 967l-65.998 -162.001c-10 7.33301 -21.833 12.833 -35.5 16.5s-28.5 5.5 -44.5 5.5c-80.667 0 -146.834 -34.5 -198.501 -103.5s-88.5 -172.167 -110.5 -309.5l-66 -414h-163l151 956h164l-27 -168c33.333 68.667 74.5 118.667 123.5 150s110.5 47 184.5 47
c17.333 0 34.166 -1.66699 50.499 -5s28.833 -7.66602 37.5 -12.999z" />
    <glyph glyph-name="s" unicode="s" horiz-adv-x="817" 
d="M825 805l-146.998 -82.001c-12 40.667 -29.833 70.334 -53.5 89.001s-55.167 28 -94.5 28c-46 0 -83.667 -10.5 -113 -31.5s-47 -49.833 -53 -86.5c-0.666992 -2.66699 -1.16699 -5.5 -1.5 -8.5s-0.5 -7.5 -0.5 -13.5c0 -30 12.333 -55.833 37 -77.5
s67 -42.834 127 -63.501c89.333 -30.667 154 -65.834 194 -105.501s60 -88.5 60 -146.5c0 -6 -0.166992 -12.167 -0.5 -18.5s-1.5 -16.5 -3.5 -30.5c-14 -88 -57 -158.167 -129 -210.5s-163.333 -78.5 -274 -78.5c-83.333 0 -151.5 17 -204.5 51s-87.167 82.667 -102.5 146
l153 88c12 -46 33.333 -80.333 64 -103s71.667 -34 123 -34c55.333 0 101.5 11.667 138.5 35s58.833 55 65.5 95c0.666992 4.66699 1.16699 9.33398 1.5 14.001s0.5 11.334 0.5 20.001c0 29.333 -14 54.666 -42 75.999s-79.333 46.333 -154 75
c-72.667 28 -126.667 62.167 -162 102.5s-53 87.5 -53 141.5c0 5.33301 0.166992 10.833 0.5 16.5s1.5 14.5 3.5 26.5c13.333 82.667 51 147.667 113 195s142.333 71 241 71c71.333 0 128.666 -14.667 171.999 -44s74.666 -74.666 93.999 -135.999z" />
    <glyph glyph-name="t" unicode="t" horiz-adv-x="492" 
d="M623 956l-23 -147h-151l-130 -809h-163l129 809h-115l23 147h114l62 387h163l-61 -387h152z" />
    <glyph glyph-name="u" unicode="u" horiz-adv-x="1049" 
d="M1057 956l-85.9971 -544c-24.667 -152.667 -73.334 -264.667 -146.001 -336s-174.334 -107 -305.001 -107c-110.667 0 -192.167 24.833 -244.5 74.5s-78.5 126.5 -78.5 230.5c0 20.667 1 42.334 3 65.001s5 47 9 73l86 544h164l-86 -538
c-4 -24.667 -6.66699 -45.167 -8 -61.5s-2.33301 -31.5 -3 -45.5c0 -64 14.167 -110.667 42.5 -140s75.166 -44 140.499 -44c78 0 136.667 22.667 176 68s67.333 119.666 84 222.999l86 538h166z" />
    <glyph glyph-name="v" unicode="v" horiz-adv-x="948" 
d="M1083 956l-614 -999l-301 999h186l170 -645l371 645h188z" />
    <glyph glyph-name="w" unicode="w" horiz-adv-x="1556" 
d="M1677 956l-614 -999l-184 680l-396 -680l-301 999h187l168 -643l397 688l184 -688l371 643h188z" />
    <glyph glyph-name="x" unicode="x" horiz-adv-x="1020" 
d="M1112 956l-428 -458l307 -498h-196l-228 385l-344 -385h-194l460 498l-276 458h195l202 -350l305 350h197z" />
    <glyph glyph-name="y" unicode="y" horiz-adv-x="1020" 
d="M1133 956l-857 -1488h-182l342 579l-264 909h178l199 -720l403 720h181z" />
    <glyph glyph-name="z" unicode="z" horiz-adv-x="1063" 
d="M1106 956l-735 -809h612l-22 -147h-910l735 809h-555l23 147h852z" />
    <glyph glyph-name="braceleft" unicode="{" horiz-adv-x="684" 
d="M850 1544l-22.999 -141.001c-76.667 0 -125.834 -7.83301 -147.501 -23.5s-38.5 -61.167 -50.5 -136.5l-66 -409c-14 -92 -33.333 -157.5 -58 -196.5s-63.334 -65.833 -116.001 -80.5c36.667 -10.667 62.5 -27.5 77.5 -50.5s22.5 -55.833 22.5 -98.5
c0 -17.333 -1 -36.5 -3 -57.5s-5 -43.5 -9 -67.5l-65 -412c-2.66699 -16 -4.83398 -30.833 -6.50098 -44.5s-2.5 -26.834 -2.5 -39.501c0 -31.333 9.66699 -52.166 29 -62.499s62.333 -15.5 129 -15.5l-22 -139c-114 0 -191 12.833 -231 38.5s-60 72.834 -60 141.501
c0 17.333 1 36.333 3 57s5 43.334 9 68.001l70 438c0 2.66699 0.666992 7.33398 2 14.001c4 31.333 6 52.666 6 63.999c0 37.333 -10.667 62.666 -32 75.999s-63.333 20 -126 20l23 142c74.667 0 124.5 10.5 149.5 31.5s43.5 68.5 55.5 142.5l69 436
c20.667 126.667 54.334 209.167 101.001 247.5s137.334 57.5 272.001 57.5z" />
    <glyph glyph-name="bar" unicode="|" horiz-adv-x="1167" 
d="M895 1544l-324 -2048h-135l324 2048h135z" />
    <glyph glyph-name="braceright" unicode="}" horiz-adv-x="684" 
d="M682 629l-23.0029 -142.002c-74 0 -123.667 -10.5 -149 -31.5s-43.666 -68.5 -54.999 -142.5l-70 -438c-20.667 -126 -54.5 -208.333 -101.5 -247s-138.167 -58 -273.5 -58l23 139c76.667 0 126.334 8.16699 149.001 24.5s39.667 62.166 51 137.499l66 412
c14 90.667 33.333 155.334 58 194.001s63.334 65.334 116.001 80.001c-36.667 10.667 -62.5 27.667 -77.5 51s-22.5 57 -22.5 101c0 16.667 1 35.334 3 56.001s5 43.667 9 69l66 409c2.66699 14 4.66699 28.167 6 42.5s2 27.5 2 39.5c0 31.333 -9.83301 52.166 -29.5 62.499
s-63.167 15.5 -130.5 15.5l23 141c115.333 0 192.833 -12.667 232.5 -38s59.5 -72.666 59.5 -141.999c0 -17.333 -1 -36.333 -3 -57s-5 -43.334 -9 -68.001l-70 -436c0 -2.66699 -0.333008 -7 -1 -13c-4.66699 -32 -7 -53.667 -7 -65c0 -37.333 10.833 -62.666 32.5 -75.999
s63.5 -20 125.5 -20z" />
    <glyph glyph-name="asciitilde" unicode="~" 
d="M1208 737l-23.998 -154.999c-50.667 -50.667 -100.5 -88.667 -149.5 -114s-97.5 -38 -145.5 -38c-28 0 -56.833 5.33301 -86.5 16s-61.5 28 -95.5 52c-45.333 30 -80.666 50 -105.999 60s-51 15 -77 15c-40.667 0 -82.834 -12.667 -126.501 -38
s-98.5 -69.333 -164.5 -132l25 158c50 50 99.5 87.5 148.5 112.5s97.833 37.5 146.5 37.5c28.667 0 57.5 -5.33301 86.5 -16s60.167 -27.334 93.5 -50.001c45.333 -31.333 81.166 -52.5 107.499 -63.5s52.166 -16.5 77.499 -16.5c40 0 81.667 12.833 125 38.5
s98.333 70.167 165 133.5z" />
    <glyph glyph-name="Euro" 
d="M1425 1440l-27.999 -180.001c-65.333 60 -126.833 102.5 -184.5 127.5s-121.834 37.5 -192.501 37.5c-109.333 0 -206.666 -39.5 -291.999 -118.5s-151.333 -190.167 -198 -333.5h709l-41 -90h-694c-3.33301 -12.667 -6.33301 -26.667 -9 -42l-12 -71
c-2.66699 -16.667 -5 -32.667 -7 -48s-3.66699 -30.666 -5 -45.999h639l-41 -90h-604v-8c0 -144.667 30.333 -257.334 91 -338.001s145 -121 253 -121c75.333 0 145.333 12 210 36s139.334 67.333 224.001 130l-29 -185c-74.667 -43.333 -147.334 -76 -218.001 -98
s-139 -33 -205 -33c-154.667 0 -275.334 52 -362.001 156s-130 248.667 -130 434v27h-188l41 90h151c0.666992 10.667 2 22.667 4 36s5.33301 33.333 10 60c0.666992 2.66699 1.33398 6.66699 2.00098 12c8 45.333 14.333 78 19 98l-180 1l41 90h163
c57.333 187.333 146.666 334.5 267.999 441.5s258 160.5 410 160.5c80 0 149.333 -10.167 208 -30.5s117.667 -55.166 177 -104.499z" />
    <glyph glyph-name="Euro" unicode="&#x20ac;" 
d="M1425 1440l-27.999 -180.001c-65.333 60 -126.833 102.5 -184.5 127.5s-121.834 37.5 -192.501 37.5c-109.333 0 -206.666 -39.5 -291.999 -118.5s-151.333 -190.167 -198 -333.5h709l-41 -90h-694c-3.33301 -12.667 -6.33301 -26.667 -9 -42l-12 -71
c-2.66699 -16.667 -5 -32.667 -7 -48s-3.66699 -30.666 -5 -45.999h639l-41 -90h-604v-8c0 -144.667 30.333 -257.334 91 -338.001s145 -121 253 -121c75.333 0 145.333 12 210 36s139.334 67.333 224.001 130l-29 -185c-74.667 -43.333 -147.334 -76 -218.001 -98
s-139 -33 -205 -33c-154.667 0 -275.334 52 -362.001 156s-130 248.667 -130 434v27h-188l41 90h151c0.666992 10.667 2 22.667 4 36s5.33301 33.333 10 60c0.666992 2.66699 1.33398 6.66699 2.00098 12c8 45.333 14.333 78 19 98l-180 1l41 90h163
c57.333 187.333 146.666 334.5 267.999 441.5s258 160.5 410 160.5c80 0 149.333 -10.167 208 -30.5s117.667 -55.166 177 -104.499z" />
    <glyph glyph-name="Zcaron" horiz-adv-x="1200" 
d="M1376 1544l-1034 -1382h770l-27 -162h-1054l1040 1382h-729l25 162h1009zM1184 1944l-332 -297l-237 297l67 65l195 -200l260 200z" />
    <glyph glyph-name="Zcaron" unicode="&#x17d;" horiz-adv-x="1200" 
d="M1376 1544l-1034 -1382h770l-27 -162h-1054l1040 1382h-729l25 162h1009zM1184 1944l-332 -297l-237 297l67 65l195 -200l260 200z" />
    <glyph glyph-name="zcaron" horiz-adv-x="1063" 
d="M1106 956l-735 -809h612l-22 -147h-910l735 809h-555l23 147h852zM1032 1354l-332 -297l-237 297l67 65l195 -200l260 200z" />
    <glyph glyph-name="zcaron" unicode="&#x17e;" horiz-adv-x="1063" 
d="M1106 956l-735 -809h612l-22 -147h-910l735 809h-555l23 147h852zM1032 1354l-332 -297l-237 297l67 65l195 -200l260 200z" />
    <glyph glyph-name="uni00A0" unicode="&#xa0;" horiz-adv-x="631" 
 />
    <glyph glyph-name="exclamdown" unicode="&#xa1;" horiz-adv-x="692" 
d="M696 1456c-4.66699 -32.667 -20.8311 -60.6689 -48.498 -84.002s-57.834 -35 -90.501 -35c-29.333 0 -53.333 9.5 -72 28.5s-28 43.167 -28 72.5c0 4.66699 0.166992 8.33398 0.5 11.001s0.833008 5.33398 1.5 8.00098c4.66699 32 20.5 59.667 47.5 83s56.833 35 89.5 35
c29.333 0 53.666 -9.66699 72.999 -29s29 -43 29 -71c0 -2.66699 -0.333008 -6 -1 -10s-1 -7 -1 -9zM610.003 1153l-182 -1153h-166l182 1153h166z" />
    <glyph glyph-name="cent" unicode="&#xa2;" 
d="M1206 1221l-26.001 -174.001c-31.333 24.667 -66.666 44.334 -105.999 59.001s-79.333 22.667 -120 24l-110 -702c46 2 91.667 10.5 137 25.5s87 35.167 125 60.5l-29 -174c-40.667 -20.667 -81.834 -36.167 -123.501 -46.5s-86.5 -16.833 -134.5 -19.5l-31 -202h-98
l31 202c-120 10.667 -214.5 52.334 -283.5 125.001s-103.5 167 -103.5 283c0 17.333 0.666992 33.666 2 48.999s3.33301 30.333 6 45c21.333 140 81 256.167 179 348.5s218 145.5 360 159.5l28 176h99l-27 -172c42.667 -2 82.334 -8.5 119.001 -19.5s72 -26.833 106 -47.5z
M855.999 1126c-93.333 -13.333 -171.167 -51.498 -233.5 -114.498s-101.166 -142.5 -116.499 -238.5c-1.33301 -8 -2.33301 -16.167 -3 -24.5s-1 -20.833 -1 -37.5c0 -74.667 21.667 -136.334 65 -185.001s103.666 -79.334 180.999 -92.001z" />
    <glyph glyph-name="sterling" unicode="&#xa3;" 
d="M1329 1186l-167.003 -57.001c0 4 0.166992 9.33301 0.5 16s0.5 16.334 0.5 29.001c0 80 -22.5 141.833 -67.5 185.5s-109.167 65.5 -192.5 65.5c-94.667 0 -176.167 -28.5 -244.5 -85.5s-109.5 -129.167 -123.5 -216.5c-2.66699 -13.333 -4.5 -26.666 -5.5 -39.999
s-1.5 -27 -1.5 -41c0 -42 4.5 -87 13.5 -135s22.5 -98 40.5 -150l7.5 -25.5c3.66699 -12.333 6.5 -21.166 8.5 -26.499h395l-14 -99h-354c2 -10.667 3.5 -21.167 4.5 -31.5s1.5 -20.833 1.5 -31.5c0 -6.66699 -0.333008 -14.167 -1 -22.5s-1.66699 -18.5 -3 -30.5
c-7.33301 -49.333 -23.5 -95.166 -48.5 -137.499s-58.167 -80.5 -99.5 -114.5c32.667 0 64 -4.33301 94 -13s67.667 -25 113 -49c40.667 -20.667 75.334 -35.334 104.001 -44.001s56 -13 82 -13c42.667 0 82.5 10.5 119.5 31.5s73.833 54.167 110.5 99.5l92 -96
c-45.333 -60.667 -95.666 -106.667 -150.999 -138s-113.666 -47 -174.999 -47c-37.333 0 -75.5 5.16699 -114.5 15.5s-79.167 25.833 -120.5 46.5c-4.66699 2 -11.667 5.33301 -21 10c-77.333 38 -138.666 57 -183.999 57c-42 0 -84 -10.833 -126 -32.5
s-82.667 -53.834 -122 -96.501l-59 115c32 36 67.833 66.167 107.5 90.5s82.834 42.5 129.501 54.5c34 38 59.667 73.667 77 107s29.333 69.666 36 108.999c2 10.667 3.5 21.334 4.5 32.001s1.5 21.667 1.5 33c0 17.333 -1 34.166 -3 50.499s-5 31.5 -9 45.5h-260l14 99h213
l-7 19c-2.66699 7.33301 -6.33398 18.333 -11.001 33c-18 48.667 -31.5 95.667 -40.5 141s-13.5 89.333 -13.5 132c0 12 0.666992 25.167 2 39.5s3.66602 33.5 6.99902 57.5c20 128.667 81.833 235.5 185.5 320.5s228.167 127.5 373.5 127.5c128 0 226.833 -32 296.5 -96
s104.5 -155 104.5 -273v-20z" />
    <glyph glyph-name="currency" unicode="&#xa4;" 
d="M1409 1503l-201 -173.999c20.667 -30.667 36.5 -65 47.5 -103s16.5 -77.333 16.5 -118c0 -12 -0.5 -24.167 -1.5 -36.5s-2.5 -24.5 -4.5 -36.5c-9.33301 -55.333 -27 -108.5 -53 -159.5s-59 -97.167 -99 -138.5l148 -174l-80 -69l-146 174
c-45.333 -33.333 -94.833 -58.833 -148.5 -76.5s-108.5 -26.5 -164.5 -26.5s-108 8.83301 -156 26.5s-89.667 43.167 -125 76.5l-202 -174l-58 69l201 174c-20.667 31.333 -36.5 65.666 -47.5 102.999s-16.5 76.666 -16.5 117.999c0.666992 13.333 1.5 26.5 2.5 39.5
s2.5 25.5 4.5 37.5c8.66699 54 26 106.167 52 156.5s59 96.166 99 137.499l-147 174l82 72l145 -174c45.333 32.667 95 57.834 149 75.501s108.667 26.5 164 26.5c56 0 108 -8.66699 156 -26s89.667 -42.666 125 -75.999l203 174zM1153 1034
c1.33301 6 2.33008 13 2.99707 21s1 20.333 1 37c0 86 -28.667 157.667 -86 215s-129.666 86 -216.999 86c-99.333 0 -189.666 -35 -270.999 -105s-129.666 -154.667 -144.999 -254c-1.33301 -13.333 -2.33301 -24.5 -3 -33.5s-1 -16.833 -1 -23.5
c0 -86 29 -157.667 87 -215s130.667 -86 218 -86c98.667 0 188.5 35 269.5 105s129.167 154.333 144.5 253z" />
    <glyph glyph-name="yen" unicode="&#xa5;" 
d="M1444 1544l-375 -514h297l-14 -90h-348l-152 -207h467l-14 -90h-486l-102 -643h-166l102 643h-491l14 90h471l-86 207h-352l14 90h301l-219 514h184l283 -690l490 690h182z" />
    <glyph glyph-name="brokenbar" unicode="&#xa6;" horiz-adv-x="1167" 
d="M874 1411l-118 -758h-135l118 758h135zM713 387l-121 -758h-135l121 758h135z" />
    <glyph glyph-name="section" unicode="&#xa7;" horiz-adv-x="1212" 
d="M1157 1215l-157 -0.999023c0 4 0.166992 8.66699 0.5 14s0.5 13 0.5 23c0 51.333 -15.5 93.166 -46.5 125.499s-71.167 48.5 -120.5 48.5c-56.667 0 -108 -20.333 -154 -61s-73.333 -89 -82 -145c-0.666992 -4.66699 -1.16699 -9.33398 -1.5 -14.001
s-0.5 -11.667 -0.5 -21c0 -51.333 17 -93.833 51 -127.5s76.333 -50.5 127 -50.5c108 0 195.167 -32.333 261.5 -97s99.5 -148.667 99.5 -252c0 -12 -0.5 -24 -1.5 -36s-2.83301 -24.667 -5.5 -38c-12 -76 -43 -145.667 -93 -209s-108.333 -108.666 -175 -135.999
c40 -24 71.5 -59 94.5 -105s34.5 -97 34.5 -153c0 -17.333 -0.333008 -30.166 -1 -38.499s-1.66699 -16.166 -3 -23.499c-16 -102 -68 -189 -156 -261s-185.333 -108 -292 -108c-102 0 -183.5 27.833 -244.5 83.5s-91.5 130.5 -91.5 224.5c0 11.333 0.5 22.666 1.5 33.999
s2.5 23 4.5 35h157c-0.666992 -4.66699 -1.16699 -9.33398 -1.5 -14.001s-0.5 -12.334 -0.5 -23.001c0 -56 18.833 -102 56.5 -138s85.167 -54 142.5 -54c64 0 122 22.5 174 67.5s82.667 98.833 92 161.5c0.666992 1.33301 1 3 1 5c2 15.333 3 26.666 3 33.999
c0 57.333 -19 104.5 -57 141.5s-87 55.5 -147 55.5c-107.333 0 -194.666 32.167 -261.999 96.5s-101 147.5 -101 249.5c0 11.333 0.5 23 1.5 35s2.5 24 4.5 36c12.667 78 44.167 149.667 94.5 215s109.833 111.333 178.5 138c-35.333 24.667 -62.333 56.834 -81 96.501
s-28 83.834 -28 132.501c0 10 0.5 20.667 1.5 32s2.5 22.333 4.5 33c15.333 96 64.166 178.167 146.499 246.5s172.833 102.5 271.5 102.5c92.667 0 166.667 -26.333 222 -79s83 -123.334 83 -212.001c0 -11.333 -0.5 -22.666 -1.5 -33.999s-2.5 -23 -4.5 -35zM971 584.001
c1.33301 12.667 2.33301 22.499 3 29.499s1 12.833 1 17.5c0 65.333 -21.667 118.833 -65 160.5s-99 62.5 -167 62.5c-76.667 0 -145.167 -26.333 -205.5 -79s-96.833 -117.667 -109.5 -195c0 -1.33301 -0.333008 -3.33301 -1 -6c-2 -18 -3 -31 -3 -39
c0 -65.333 21.833 -118.666 65.5 -159.999s99.5 -62 167.5 -62c74.667 0 142.5 26.333 203.5 79s97.833 116.667 110.5 192z" />
    <glyph glyph-name="dieresis" unicode="&#xa8;" horiz-adv-x="956" 
d="M969 1233c-4 -28 -16.834 -51.333 -38.501 -70s-46.5 -28 -74.5 -28c-24.667 0 -45.167 7.66699 -61.5 23s-24.5 35 -24.5 59c0 0.666992 0.333008 2.83398 1 6.50098s1 6.83398 1 9.50098c4 26 17.333 48.5 40 67.5s47.667 28.5 75 28.5
c24.667 0 44.834 -7.5 60.501 -22.5s23.5 -34.167 23.5 -57.5c0 -0.666992 -0.333008 -2.83398 -1 -6.50098s-1 -6.83398 -1 -9.50098zM574.999 1233c-4 -28 -16.834 -51.334 -38.501 -70.001s-46.167 -28 -73.5 -28c-24.667 0 -45.167 7.66699 -61.5 23s-24.5 35 -24.5 59
c0 1.33301 0.333008 3.83301 1 7.5s1 6.5 1 8.5c4 26 17.333 48.5 40 67.5s47.667 28.5 75 28.5c24.667 0 44.834 -7.5 60.501 -22.5s23.5 -34.167 23.5 -57.5c-0.666992 -1.33301 -1.16699 -3.66602 -1.5 -6.99902s-0.833008 -6.33301 -1.5 -9z" />
    <glyph glyph-name="copyright" unicode="&#xa9;" horiz-adv-x="1638" 
d="M1745 772c-34.667 -221.333 -143 -410.5 -325 -567.5s-383.667 -235.5 -605 -235.5c-197.333 0 -361 64.333 -491 193s-195 289.667 -195 483c0 18 0.833008 37.5 2.5 58.5s4.16699 43.833 7.5 68.5c34.667 221.333 143 410.5 325 567.5s383.667 235.5 605 235.5
c198 0 361.833 -64.333 491.5 -193s194.5 -289.667 194.5 -483c0 -18.667 -0.833008 -38.5 -2.5 -59.5s-4.16699 -43.5 -7.5 -67.5zM1647 772c2.66699 16.667 4.66504 34.0029 5.99805 52.0029s2 37.667 2 59c0 169.333 -57 310.666 -171 423.999s-257.667 170 -431 170
c-194.667 0 -371.5 -68.833 -530.5 -206.5s-253.833 -303.834 -284.5 -498.501c-3.33301 -16.667 -5.66602 -34 -6.99902 -52s-2 -37.333 -2 -58c0 -170.667 56.833 -312.334 170.5 -425.001s256.834 -169 429.501 -169c194.667 0 372 68.667 532 206
s255.333 303.333 286 498zM1348 1180l-23.002 -149.998c-40 40 -84.333 70.833 -133 92.5s-98 32.5 -148 32.5c-114.667 0 -210 -32.833 -286 -98.5s-123.333 -155.834 -142 -270.501c-2 -14 -3.5 -26.833 -4.5 -38.5s-1.5 -23.167 -1.5 -34.5
c0 -91.333 27.667 -164 83 -218s129.333 -81 222 -81c56 0 110.833 9.5 164.5 28.5s108.834 48.167 165.501 87.5l-22 -147c-50.667 -30 -105 -53.5 -163 -70.5s-112.333 -25.5 -163 -25.5c-128.667 0 -231.167 36.833 -307.5 110.5s-114.5 171.834 -114.5 294.501
c0 17.333 0.666992 33.666 2 48.999s3.33301 30.333 6 45c22.667 144 87.834 262.667 195.501 356s233.167 140 376.5 140c56.667 0 110.5 -8.83301 161.5 -26.5s94.833 -42.834 131.5 -75.501z" />
    <glyph glyph-name="ordfeminine" unicode="&#xaa;" horiz-adv-x="709" 
d="M885 1544l-89.998 -579h-140l11 63c-26 -25.333 -55.5 -45 -88.5 -59s-67.167 -21 -102.5 -21c-75.333 0 -135.833 23 -181.5 69s-68.5 106.333 -68.5 181c0 6.66699 0.333008 14.5 1 23.5s1.66699 20.167 3 33.5c14.667 89.333 54.667 163.333 120 222s140 88 224 88
c35.333 0 67.166 -7.16699 95.499 -21.5s51.166 -34.5 68.499 -60.5l8 61h140zM700.002 1255c0.666992 3.33301 1.16602 7.16797 1.49902 11.501s0.5 10.833 0.5 19.5c0 42.667 -13 77.667 -39 105s-59.333 41 -100 41c-45.333 0 -86.666 -17 -123.999 -51
s-60 -75.667 -68 -125c-0.666992 -3.33301 -1.16699 -7.5 -1.5 -12.5s-0.5 -11.833 -0.5 -20.5c0 -42.667 12.667 -77.334 38 -104.001s58.333 -40 99 -40c46.667 0 88.667 17 126 51s60 75.667 68 125z" />
    <glyph glyph-name="guillemotleft" unicode="&#xab;" horiz-adv-x="1024" 
d="M1026 881l-317 -404l190 -399l-119 -68l-215 467l363 469zM674 881l-320 -404l193 -399l-119 -68l-215 467l362 469z" />
    <glyph glyph-name="logicalnot" unicode="&#xac;" 
d="M1217 866l-99 -620h-133l78 491h-862l20 129h996z" />
    <glyph glyph-name="sfthyphen" unicode="&#xad;" horiz-adv-x="426" 
d="M494 621l-25 -156h-365l25 156h365z" />
    <glyph glyph-name="registered" unicode="&#xae;" horiz-adv-x="1638" 
d="M1745 772c-34.667 -221.333 -143 -410.5 -325 -567.5s-383.667 -235.5 -605 -235.5c-197.333 0 -361 64.333 -491 193s-195 289.667 -195 483c0 18 0.833008 37.5 2.5 58.5s4.16699 43.833 7.5 68.5c34.667 221.333 143 410.5 325 567.5s383.667 235.5 605 235.5
c198 0 361.833 -64.333 491.5 -193s194.5 -289.667 194.5 -483c0 -18.667 -0.833008 -38.5 -2.5 -59.5s-4.16699 -43.5 -7.5 -67.5zM1647 772c2.66699 16.667 4.66504 34.0029 5.99805 52.0029s2 37.667 2 59c0 169.333 -57 310.666 -171 423.999s-257.667 170 -431 170
c-194.667 0 -371.5 -68.833 -530.5 -206.5s-253.833 -303.834 -284.5 -498.501c-3.33301 -16.667 -5.66602 -34 -6.99902 -52s-2 -37.333 -2 -58c0 -170.667 56.833 -312.334 170.5 -425.001s256.834 -169 429.501 -169c194.667 0 372 68.667 532 206
s255.333 303.333 286 498zM1262 1000c-10.667 -65.333 -40 -119.168 -88 -161.501s-109.667 -67.166 -185 -74.499l228 -459h-150l-211 449h-16l-70 -449h-125l152 959h188c90.667 0 160.167 -18.667 208.5 -56s72.5 -90.333 72.5 -159c0 -6 -0.333008 -12.5 -1 -19.5
s-1.66699 -16.833 -3 -29.5zM1133 1002c0.666992 4 1.16699 8.5 1.5 13.5s0.5 11.833 0.5 20.5c0 40.667 -14.167 70.667 -42.5 90s-71.5 29 -129.5 29h-60l-45 -293h60c65.333 0 115.5 11.333 150.5 34s56.5 58 64.5 106z" />
    <glyph glyph-name="macron" unicode="&#xaf;" horiz-adv-x="1024" 
d="M1024 1565v-119h-1024v119h1024z" />
    <glyph glyph-name="degree" unicode="&#xb0;" horiz-adv-x="819" 
d="M903 1275c-12 -78 -50.999 -145.166 -116.999 -201.499s-139.667 -84.5 -221 -84.5c-72 0 -131.333 22.667 -178 68s-70 102.666 -70 171.999c0 4.66699 0.333008 10.334 1 17.001l3 29c14 81.333 53.667 150.666 119 207.999s137.666 86 216.999 86
c71.333 0 130.833 -23.833 178.5 -71.5s71.5 -106.5 71.5 -176.5c0 -6 -0.333008 -12.5 -1 -19.5s-1.66699 -15.833 -3 -26.5zM815.001 1278c0.666992 3.33301 1.16699 7.33398 1.5 12.001s0.5 11.667 0.5 21c0 48.667 -16.333 89.5 -49 122.5s-73.667 49.5 -123 49.5
c-56 0 -107 -20 -153 -60s-73.333 -88.333 -82 -145c-0.666992 -4 -1.16699 -8.33301 -1.5 -13s-0.5 -11.334 -0.5 -20.001c0 -49.333 16.167 -90 48.5 -122s73.5 -48 123.5 -48c56 0 106.833 19.833 152.5 59.5s73.167 87.5 82.5 143.5z" />
    <glyph glyph-name="plusminus" unicode="&#xb1;" 
d="M1282 741l-20 -129h-467l-58 -370h-135l57 370h-466l20 129h467l59 371h135l-59 -371h467zM1186 129l-21 -129h-1069l21 129h1069z" />
    <glyph glyph-name="twosuperior" unicode="&#xb2;" horiz-adv-x="756" 
d="M879 1301c-10 -60.667 -35.502 -118.832 -76.502 -174.499s-110.5 -126.167 -208.5 -211.5l-176 -153h381l-19 -119h-635l387 365c77.333 72 131.5 128.333 162.5 169s49.5 80 55.5 118c0.666992 3.33301 1.16699 7 1.5 11s0.5 9.66699 0.5 17
c0 39.333 -13.5 69.666 -40.5 90.999s-64.833 32 -113.5 32c-55.333 0 -101.666 -16.667 -138.999 -50s-60.666 -77.333 -69.999 -132h-125c14.667 91.333 54.167 164.333 118.5 219s143.833 82 238.5 82c81.333 0 145.333 -19.5 192 -58.5s70 -91.833 70 -158.5
c0 -4.66699 -0.333008 -10.5 -1 -17.5s-1.66699 -16.833 -3 -29.5z" />
    <glyph glyph-name="threesuperior" unicode="&#xb3;" horiz-adv-x="756" 
d="M856 1319c-8 -53.333 -27 -97.1699 -57 -131.503s-68.333 -56.166 -115 -65.499c40.667 -10.667 72 -31.5 94 -62.5s33 -69.5 33 -115.5c0 -9.33301 -1.33301 -23.666 -4 -42.999v-4c-13.333 -83.333 -52 -149.833 -116 -199.5s-142.667 -74.5 -236 -74.5
c-79.333 0 -140.833 19.5 -184.5 58.5s-65.5 93.167 -65.5 162.5c0 6 0.166992 12.5 0.5 19.5s1.5 18.167 3.5 33.5h133c-0.666992 -3.33301 -1.16699 -7.16602 -1.5 -11.499s-0.5 -10.833 -0.5 -19.5c0 -39.333 11.5 -70 34.5 -92s55.833 -33 98.5 -33
c52.667 0 97.667 15 135 45s60 68.667 68 116c0.666992 3.33301 1.16699 7 1.5 11s0.5 10.333 0.5 19c0 40.667 -13 73 -39 97s-61.667 36 -107 36h-36l18 109h41c48 0 87 11.167 117 33.5s48.333 54.166 55 95.499c0.666992 2.66699 1.16699 5.83398 1.5 9.50098
s0.5 9.16699 0.5 16.5c0 36 -11.833 64.5 -35.5 85.5s-56.167 31.5 -97.5 31.5c-48 0 -88.667 -12.167 -122 -36.5s-52.666 -55.166 -57.999 -92.499h-121c13.333 72 49.5 131.333 108.5 178s129.167 70 210.5 70c77.333 0 137.666 -17.833 180.999 -53.5
s65 -84.834 65 -147.501c0 -6 -0.333008 -12.5 -1 -19.5s-1.66699 -15.5 -3 -25.5z" />
    <glyph glyph-name="acute" unicode="&#xb4;" horiz-adv-x="733" 
d="M807 1339l-336 -270l-51 66l315 301z" />
    <glyph glyph-name="uni00B5" unicode="&#xb5;" horiz-adv-x="1049" 
d="M1120 956l-189.999 -530c-28 -75.333 -46 -126.333 -54 -153s-13.333 -48.334 -16 -65.001c-0.666992 -4 -1.16699 -8.16699 -1.5 -12.5s-0.5 -10.833 -0.5 -19.5c0 -19.333 4.16699 -33.333 12.5 -42s21.833 -13 40.5 -13c10.667 0 20.334 1 29.001 3
s19.667 5.66699 33 11l-2 -149c-9.33301 -3.33301 -25 -7 -47 -11s-37 -6 -45 -6c-61.333 0 -105.333 12.333 -132 37s-40 65 -40 121v23c-42.667 -62 -87.334 -107.667 -134.001 -137s-98.334 -44 -155.001 -44c-48.667 0 -86.834 11.833 -114.501 35.5
s-43.5 56.834 -47.5 99.501l-229 -636h-166l532 1488h168l-155 -428c-16 -42.667 -29.333 -83.167 -40 -121.5s-18.667 -73.5 -24 -105.5c-2 -11.333 -3.5 -22 -4.5 -32s-1.5 -19.667 -1.5 -29c0 -41.333 9.5 -71.5 28.5 -90.5s49.167 -28.5 90.5 -28.5
c64.667 0 125.334 32 182.001 96s108 159 154 285l163 454h166z" />
    <glyph glyph-name="paragraph" unicode="&#xb6;" horiz-adv-x="1212" 
d="M1315 1544l-17.002 -109.999h-131l-227 -1434h-119l228 1434h-177l-227 -1434h-117l134 846c-114 2.66699 -202.667 29.834 -266 81.501s-95 121.5 -95 209.5c0 15.333 0.333008 27.166 1 35.499s1.66699 16.166 3 23.499c16.667 104 67.334 188 152.001 252
s188.334 96 311.001 96h547z" />
    <glyph glyph-name="periodcentered" unicode="&#xb7;" horiz-adv-x="631" 
d="M545 788c-5.33301 -32.667 -21.333 -60.501 -48 -83.501s-56.334 -34.5 -89.001 -34.5c-29.333 0 -53.833 9.66699 -73.5 29s-29.5 43 -29.5 71c0 2 0.333008 5 1 9s1 7 1 9c5.33301 32.667 21.333 60.334 48 83.001s56.334 34 89.001 34c30 0 54.667 -9.16699 74 -27.5
s29 -41.833 29 -70.5c0 -2 -0.333008 -5 -1 -9s-1 -7.33301 -1 -10z" />
    <glyph glyph-name="cedilla" unicode="&#xb8;" horiz-adv-x="666" 
d="M446 -102l-276 -320l-70 53l250 338z" />
    <glyph glyph-name="onesuperior" unicode="&#xb9;" horiz-adv-x="756" 
d="M713 1544l-142 -901h-129l123 780h-180l84 121h244z" />
    <glyph glyph-name="ordmasculine" unicode="&#xba;" horiz-adv-x="690" 
d="M854 1258c-13.333 -86 -55.166 -159.17 -125.499 -219.503s-148.5 -90.5 -234.5 -90.5c-77.333 0 -141.166 24.667 -191.499 74s-75.5 111.333 -75.5 186c0 6.66699 1 15.834 3 27.501s3 18.834 3 21.501c13.333 86 54.666 158.833 123.999 218.5
s147.666 89.5 234.999 89.5c77.333 0 141 -24.5 191 -73.5s75 -110.5 75 -184.5c0 -6.66699 -0.166992 -13.167 -0.5 -19.5s-1.5 -16.166 -3.5 -29.499zM713 1258c0.666992 3.33301 1.16504 6.83301 1.49805 10.5s0.5 9.5 0.5 17.5c0 43.333 -13.833 79.5 -41.5 108.5
s-62.5 43.5 -104.5 43.5c-46.667 0 -89 -17.5 -127 -52.5s-61 -77.5 -69 -127.5c-0.666992 -3.33301 -1.16699 -7.5 -1.5 -12.5s-0.5 -11.833 -0.5 -20.5c0 -43.333 13.333 -79.166 40 -107.499s60.334 -42.5 101.001 -42.5c48 0 91.333 17.667 130 53
s62.334 78.666 71.001 129.999z" />
    <glyph glyph-name="guillemotright" unicode="&#xbb;" horiz-adv-x="1024" 
d="M963 477l-363 -467l-100 68l319 399l-192 404l121 65zM608 477l-360 -467l-98 68l317 399l-191 404l119 65z" />
    <glyph glyph-name="onequarter" unicode="&#xbc;" horiz-adv-x="1892" 
d="M1786 311l-17 -106h-133l-32 -205h-129l32 205h-491l737 739l-100 -633h133zM1694 1544l-1200 -1544h-119l1200 1544h119zM713 1544l-142 -901h-129l123 780h-180l84 121h244zM1575 633l-320 -322h269z" />
    <glyph glyph-name="onehalf" unicode="&#xbd;" horiz-adv-x="1892" 
d="M1880 657c-10 -60 -35.332 -117.834 -75.999 -173.501s-110.334 -126.167 -209.001 -211.5l-176 -153h381l-18 -119h-637l389 365c75.333 70.667 128.5 126.334 159.5 167.001s49.5 80.334 55.5 119.001c0.666992 4 1.16699 8 1.5 12s0.5 9.66699 0.5 17
c0 39.333 -13.333 69.666 -40 90.999s-64.667 32 -114 32c-54.667 0 -100.5 -16.667 -137.5 -50s-59.833 -77.333 -68.5 -132h-125c14 92 53 165.167 117 219.5s143 81.5 237 81.5c82 0 146.5 -19.833 193.5 -59.5s70.5 -93.167 70.5 -160.5c0 -8.66699 -1 -21.667 -3 -39
c-0.666992 -2.66699 -1 -4.66699 -1 -6zM1688 1544l-1201 -1544h-118l1200 1544h119zM707.001 1544l-142 -901h-129l123 780h-182l84 121h246z" />
    <glyph glyph-name="threequarters" unicode="&#xbe;" horiz-adv-x="1892" 
d="M1786 311l-17 -106h-133l-32 -205h-129l32 205h-491l737 739l-100 -633h133zM1710 1544l-1200 -1544h-119l1200 1544h119zM856 1319c-8 -53.333 -27 -97.1699 -57 -131.503s-68.333 -56.166 -115 -65.499c40.667 -10.667 72 -31.5 94 -62.5s33 -69.5 33 -115.5
c0 -9.33301 -1.33301 -23.666 -4 -42.999v-4c-13.333 -83.333 -52 -149.833 -116 -199.5s-142.667 -74.5 -236 -74.5c-79.333 0 -140.833 19.5 -184.5 58.5s-65.5 93.167 -65.5 162.5c0 6 0.166992 12.5 0.5 19.5s1.5 18.167 3.5 33.5h133
c-0.666992 -3.33301 -1.16699 -7.16602 -1.5 -11.499s-0.5 -10.833 -0.5 -19.5c0 -39.333 11.5 -70 34.5 -92s55.833 -33 98.5 -33c52.667 0 97.667 15 135 45s60 68.667 68 116c0.666992 3.33301 1.16699 7 1.5 11s0.5 10.333 0.5 19c0 40.667 -13 73 -39 97
s-61.667 36 -107 36h-36l18 109h41c48 0 87 11.167 117 33.5s48.333 54.166 55 95.499c0.666992 2.66699 1.16699 5.83398 1.5 9.50098s0.5 9.16699 0.5 16.5c0 36 -11.833 64.5 -35.5 85.5s-56.167 31.5 -97.5 31.5c-48 0 -88.667 -12.167 -122 -36.5
s-52.666 -55.166 -57.999 -92.499h-121c13.333 72 49.5 131.333 108.5 178s129.167 70 210.5 70c77.333 0 137.666 -17.833 180.999 -53.5s65 -84.834 65 -147.501c0 -6 -0.333008 -12.5 -1 -19.5s-1.66699 -15.5 -3 -25.5zM1575 632.996l-320 -322h269z" />
    <glyph glyph-name="questiondown" unicode="&#xbf;" horiz-adv-x="999" 
d="M203 377c9.33301 58 26.002 110.836 50.002 158.503s54.167 89.334 90.5 125.001s78.166 64.667 125.499 87s99.333 36.833 156 43.5l57 362h154l-78 -496h-62c-52 0 -98.5 -7.83301 -139.5 -23.5s-76 -38.334 -105 -68.001s-51.167 -66 -66.5 -109
s-23 -92.167 -23 -147.5c0 -58 14.667 -104.5 44 -139.5s73.666 -52.5 132.999 -52.5c36.667 0 68.667 6.83301 96 20.5s50.333 31 69 52s33.5 44.333 44.5 70s18.833 50.5 23.5 74.5h154c-8 -47.333 -22.667 -93 -44 -137s-49.5 -82.833 -84.5 -116.5
s-76.5 -60.667 -124.5 -81s-102.333 -30.5 -163 -30.5c-49.333 0 -93.5 7.16699 -132.5 21.5s-72 35.166 -99 62.499s-47.667 60.666 -62 99.999s-21.5 84 -21.5 134c0 14 0.833008 28.667 2.5 44s3.5 30.666 5.5 45.999zM690.002 1456
c2.66699 16.667 8.16895 32.1689 16.502 46.502s18.833 26.833 31.5 37.5s26.667 19.167 42 25.5s31 9.5 47 9.5c15.333 0 29.166 -2.66699 41.499 -8s23.166 -12.5 32.499 -21.5s16.5 -19.5 21.5 -31.5s7.5 -25 7.5 -39c0 -18.667 -4 -36.334 -12 -53.001
s-18.5 -31.334 -31.5 -44.001s-27.833 -22.667 -44.5 -30s-33.667 -11 -51 -11c-30 0 -54.667 9.5 -74 28.5s-29 43.167 -29 72.5v9c0 2.66699 0.666992 5.66699 2 9z" />
    <glyph glyph-name="Agrave" unicode="&#xc0;" horiz-adv-x="1432" 
d="M1417 0h-190l-127 467h-641l-273 -467h-190l962 1587zM1061 614l-162 596l-350 -596h512zM1096 1725l-74 -66l-248 270l99 97z" />
    <glyph glyph-name="Aacute" unicode="&#xc1;" horiz-adv-x="1432" 
d="M1417 0h-190l-127 467h-641l-273 -467h-190l962 1587zM1061 614l-162 596l-350 -596h512zM1229 1929l-336 -270l-51 66l315 301z" />
    <glyph glyph-name="Acircumflex" unicode="&#xc2;" horiz-adv-x="1432" 
d="M1417 0h-190l-127 467h-641l-273 -467h-190l962 1587zM1061 614l-162 596l-350 -596h512zM1253 1727l-67 -68l-197 201l-258 -201l-47 68l332 295z" />
    <glyph glyph-name="Atilde" unicode="&#xc3;" horiz-adv-x="1432" 
d="M1417 0h-190l-127 467h-641l-273 -467h-190l962 1587zM1061 614l-162 596l-350 -596h512zM1323 1862c-31.333 -53.333 -65.501 -92.998 -102.501 -118.998s-77.5 -39 -121.5 -39c-21.333 0 -43.166 4.16699 -65.499 12.5s-47.166 21.833 -74.499 40.5l-13 9
c-48 34 -83.667 51 -107 51c-26 0 -48.167 -5.83301 -66.5 -17.5s-39.833 -35.834 -64.5 -72.501l-67 45c31.333 52.667 64.666 91.667 99.999 117s75 38 119 38c22 0 44.667 -4.16699 68 -12.5s48.333 -21.833 75 -40.5c4.66699 -2.66699 11.667 -7.33398 21 -14.001
c44.667 -30 77.334 -45 98.001 -45c27.333 0 50.666 6 69.999 18s41 36 65 72z" />
    <glyph glyph-name="Adieresis" unicode="&#xc4;" horiz-adv-x="1432" 
d="M1417 0h-190l-127 467h-641l-273 -467h-190l962 1587zM1061 614l-162 596l-350 -596h512zM1278 1823c-4 -28 -16.834 -51.333 -38.501 -70s-46.5 -28 -74.5 -28c-24.667 0 -45.167 7.66699 -61.5 23s-24.5 35 -24.5 59c0 0.666992 0.333008 2.83398 1 6.50098
s1 6.83398 1 9.50098c4 26 17.333 48.5 40 67.5s47.667 28.5 75 28.5c24.667 0 44.834 -7.5 60.501 -22.5s23.5 -34.167 23.5 -57.5c0 -0.666992 -0.333008 -2.83398 -1 -6.50098s-1 -6.83398 -1 -9.50098zM883.999 1823c-4 -28 -16.834 -51.334 -38.501 -70.001
s-46.167 -28 -73.5 -28c-24.667 0 -45.167 7.66699 -61.5 23s-24.5 35 -24.5 59c0 1.33301 0.333008 3.83301 1 7.5s1 6.5 1 8.5c4 26 17.333 48.5 40 67.5s47.667 28.5 75 28.5c24.667 0 44.834 -7.5 60.501 -22.5s23.5 -34.167 23.5 -57.5
c-0.666992 -1.33301 -1.16699 -3.66602 -1.5 -6.99902s-0.833008 -6.33301 -1.5 -9z" />
    <glyph glyph-name="Aring" unicode="&#xc5;" horiz-adv-x="1432" 
d="M1417 0h-190l-127 467h-641l-273 -467h-190l962 1587zM1061 614l-162 596l-350 -596h512zM1233 1881c-10 -66.667 -42.168 -123.334 -96.501 -170.001s-115.166 -70 -182.499 -70c-58.667 0 -107 18.833 -145 56.5s-57 85.5 -57 143.5c0 8 1 19.333 3 34
c0 2 0.333008 3.66699 1 5c10 66.667 41.667 123.334 95 170.001s113 70 179 70c59.333 0 108.333 -19.167 147 -57.5s58 -86.833 58 -145.5c0 -10 -0.166992 -17.5 -0.5 -22.5s-0.833008 -9.5 -1.5 -13.5zM1151 1880c0.666992 2.66699 1.16699 5.83203 1.5 9.49902
s0.5 8.83398 0.5 15.501c0 38 -12.833 69.667 -38.5 95s-57.834 38 -96.501 38c-43.333 0 -82.333 -15.333 -117 -46s-55.667 -67.667 -63 -111c-2 -7.33301 -3.33301 -12.833 -4 -16.5s-1 -6.5 -1 -8.5c0 -38 13 -69.667 39 -95s58.333 -38 97 -38
c42.667 0 81.834 15.333 117.501 46s57.167 67.667 64.5 111z" />
    <glyph glyph-name="AE" unicode="&#xc6;" horiz-adv-x="2048" 
d="M2030 0h-799l-121 467h-649l-275 -467h-190l942 1544h664l47 -162h-623l133 -469h621l43 -161h-621l168 -590h615zM1069 614l-164 598l-354 -598h518z" />
    <glyph glyph-name="Ccedilla" unicode="&#xc7;" horiz-adv-x="1468" 
d="M1614 1440l-31.001 -193.001c-55.333 52 -122.5 92.667 -201.5 122s-159.167 44 -240.5 44c-190.667 0 -359.667 -60.833 -507 -182.5s-235.666 -273.834 -264.999 -456.501c-2.66699 -17.333 -4.83398 -35.166 -6.50098 -53.499s-2.5 -37.166 -2.5 -56.499
c0 -157.333 51.5 -285.5 154.5 -384.5s235.167 -148.5 396.5 -148.5c90.667 0 183 14.833 277 44.5s176 70.167 246 121.5l-31 -197c-63.333 -36.667 -145 -67.667 -245 -93s-189 -38 -267 -38c-210.667 0 -381.167 61.167 -511.5 183.5s-195.5 282.5 -195.5 480.5
c0 22.667 1 45.667 3 69s5.33301 47.333 10 72c35.333 226.667 144.333 416.834 327 570.501s390.334 230.5 623.001 230.5c96.667 0 185.667 -11.833 267 -35.5s148 -56.834 200 -99.501zM990.999 -102.001l-276 -320l-70 53l250 338z" />
    <glyph glyph-name="Egrave" unicode="&#xc8;" horiz-adv-x="1094" 
d="M1186 1544l-25 -162h-610l-74 -469h610l-26 -161h-610l-93 -590h611l-27 -162h-782l243 1544h783zM930 1725l-74 -66l-248 270l99 97z" />
    <glyph glyph-name="Eacute" unicode="&#xc9;" horiz-adv-x="1094" 
d="M1186 1544l-25 -162h-610l-74 -469h610l-26 -161h-610l-93 -590h611l-27 -162h-782l243 1544h783zM1063 1929l-336 -270l-51 66l315 301z" />
    <glyph glyph-name="Ecircumflex" unicode="&#xca;" horiz-adv-x="1094" 
d="M1186 1544l-25 -162h-610l-74 -469h610l-26 -161h-610l-93 -590h611l-27 -162h-782l243 1544h783zM1087 1727l-67 -68l-197 201l-258 -201l-47 68l332 295z" />
    <glyph glyph-name="Edieresis" unicode="&#xcb;" horiz-adv-x="1094" 
d="M1186 1544l-25 -162h-610l-74 -469h610l-26 -161h-610l-93 -590h611l-27 -162h-782l243 1544h783zM1114 1823c-4 -28 -16.834 -51.333 -38.501 -70s-46.5 -28 -74.5 -28c-24.667 0 -45.167 7.66699 -61.5 23s-24.5 35 -24.5 59c0 0.666992 0.333008 2.83398 1 6.50098
s1 6.83398 1 9.50098c4 26 17.333 48.5 40 67.5s47.667 28.5 75 28.5c24.667 0 44.834 -7.5 60.501 -22.5s23.5 -34.167 23.5 -57.5c0 -0.666992 -0.333008 -2.83398 -1 -6.50098s-1 -6.83398 -1 -9.50098zM719.999 1823c-4 -28 -16.834 -51.334 -38.501 -70.001
s-46.167 -28 -73.5 -28c-24.667 0 -45.167 7.66699 -61.5 23s-24.5 35 -24.5 59c0 1.33301 0.333008 3.83301 1 7.5s1 6.5 1 8.5c4 26 17.333 48.5 40 67.5s47.667 28.5 75 28.5c24.667 0 44.834 -7.5 60.501 -22.5s23.5 -34.167 23.5 -57.5
c-0.666992 -1.33301 -1.16699 -3.66602 -1.5 -6.99902s-0.833008 -6.33301 -1.5 -9z" />
    <glyph glyph-name="Igrave" unicode="&#xcc;" horiz-adv-x="489" 
d="M575 1544l-243 -1544h-172l243 1544h172zM637 1725l-74 -66l-248 270l99 97z" />
    <glyph glyph-name="Iacute" unicode="&#xcd;" horiz-adv-x="489" 
d="M575 1544l-243 -1544h-172l243 1544h172zM770 1929l-336 -270l-51 66l315 301z" />
    <glyph glyph-name="Icircumflex" unicode="&#xce;" horiz-adv-x="489" 
d="M575 1544l-243 -1544h-172l243 1544h172zM794 1727l-67 -68l-197 201l-258 -201l-47 68l332 295z" />
    <glyph glyph-name="Idieresis" unicode="&#xcf;" horiz-adv-x="489" 
d="M575 1544l-243 -1544h-172l243 1544h172zM821 1823c-4 -28 -16.834 -51.333 -38.501 -70s-46.5 -28 -74.5 -28c-24.667 0 -45.167 7.66699 -61.5 23s-24.5 35 -24.5 59c0 0.666992 0.333008 2.83398 1 6.50098s1 6.83398 1 9.50098c4 26 17.333 48.5 40 67.5
s47.667 28.5 75 28.5c24.667 0 44.834 -7.5 60.501 -22.5s23.5 -34.167 23.5 -57.5c0 -0.666992 -0.333008 -2.83398 -1 -6.50098s-1 -6.83398 -1 -9.50098zM426.999 1823c-4 -28 -16.834 -51.334 -38.501 -70.001s-46.167 -28 -73.5 -28
c-24.667 0 -45.167 7.66699 -61.5 23s-24.5 35 -24.5 59c0 1.33301 0.333008 3.83301 1 7.5s1 6.5 1 8.5c4 26 17.333 48.5 40 67.5s47.667 28.5 75 28.5c24.667 0 44.834 -7.5 60.501 -22.5s23.5 -34.167 23.5 -57.5c-0.666992 -1.33301 -1.16699 -3.66602 -1.5 -6.99902
s-0.833008 -6.33301 -1.5 -9z" />
    <glyph glyph-name="Eth" unicode="&#xd0;" horiz-adv-x="1389" 
d="M1438 770c-40.667 -254 -144.168 -445.833 -310.501 -575.5s-391.166 -194.5 -674.499 -194.5h-293l112 717h-159l22 139h160l108 688h304c242 0 426.667 -52.333 554 -157s191 -255.667 191 -453c0 -22 -1.16699 -45.667 -3.5 -71s-5.83301 -56.333 -10.5 -93zM1266 772
c4 23.333 7.00098 46.333 9.00098 69s3 44.667 3 66c0 155.333 -49.333 273.333 -148 354s-243.334 121 -434.001 121h-145l-84 -526h389l-22 -139h-390l-86 -555h127c236 0 417 49.667 543 149s205.333 253 238 461z" />
    <glyph glyph-name="Ntilde" unicode="&#xd1;" horiz-adv-x="1708" 
d="M1782 1544l-250 -1587l-1004 1217l-186 -1174h-172l252 1587l1003 -1214l185 1171h172zM1442 1862c-31.333 -53.333 -65.501 -92.998 -102.501 -118.998s-77.5 -39 -121.5 -39c-21.333 0 -43.166 4.16699 -65.499 12.5s-47.166 21.833 -74.499 40.5l-13 9
c-48 34 -83.667 51 -107 51c-26 0 -48.167 -5.83301 -66.5 -17.5s-39.833 -35.834 -64.5 -72.501l-67 45c31.333 52.667 64.666 91.667 99.999 117s75 38 119 38c22 0 44.667 -4.16699 68 -12.5s48.333 -21.833 75 -40.5c4.66699 -2.66699 11.667 -7.33398 21 -14.001
c44.667 -30 77.334 -45 98.001 -45c27.333 0 50.666 6 69.999 18s41 36 65 72z" />
    <glyph glyph-name="Ograve" unicode="&#xd2;" horiz-adv-x="1765" 
d="M1815 773c-36 -226.667 -144.169 -417.332 -324.502 -571.999s-384.166 -232 -611.499 -232c-203.333 0 -369.666 63.167 -498.999 189.5s-194 287.166 -194 482.499c0 18.667 0.833008 38.667 2.5 60s4.5 45.333 8.5 72c35.333 228 142.5 418.667 321.5 572
s383.833 230 614.5 230c204.667 0 371.167 -62.167 499.5 -186.5s192.5 -284.833 192.5 -481.5c0 -26 -0.833008 -49.833 -2.5 -71.5s-4.16699 -42.5 -7.5 -62.5zM1642 772.002c3.33301 16.667 5.66895 33.667 7.00195 51s2 36 2 56c0 156 -50.667 284 -152 384
s-232.333 150 -393 150c-190.667 0 -353.834 -62.5 -489.501 -187.5s-217.5 -276.167 -245.5 -453.5c-2.66699 -16.667 -4.83398 -34 -6.50098 -52s-2.5 -36.667 -2.5 -56c0 -156.667 50 -284.667 150 -384s230.333 -149 391 -149c181.333 0 343 61.833 485 185.5
s226.667 275.5 254 455.5zM1276 1725l-74 -66l-248 270l99 97z" />
    <glyph glyph-name="Oacute" unicode="&#xd3;" horiz-adv-x="1765" 
d="M1815 773c-36 -226.667 -144.169 -417.332 -324.502 -571.999s-384.166 -232 -611.499 -232c-203.333 0 -369.666 63.167 -498.999 189.5s-194 287.166 -194 482.499c0 18.667 0.833008 38.667 2.5 60s4.5 45.333 8.5 72c35.333 228 142.5 418.667 321.5 572
s383.833 230 614.5 230c204.667 0 371.167 -62.167 499.5 -186.5s192.5 -284.833 192.5 -481.5c0 -26 -0.833008 -49.833 -2.5 -71.5s-4.16699 -42.5 -7.5 -62.5zM1642 772.002c3.33301 16.667 5.66895 33.667 7.00195 51s2 36 2 56c0 156 -50.667 284 -152 384
s-232.333 150 -393 150c-190.667 0 -353.834 -62.5 -489.501 -187.5s-217.5 -276.167 -245.5 -453.5c-2.66699 -16.667 -4.83398 -34 -6.50098 -52s-2.5 -36.667 -2.5 -56c0 -156.667 50 -284.667 150 -384s230.333 -149 391 -149c181.333 0 343 61.833 485 185.5
s226.667 275.5 254 455.5zM1409 1929l-336 -270l-51 66l315 301z" />
    <glyph glyph-name="Ocircumflex" unicode="&#xd4;" horiz-adv-x="1765" 
d="M1815 773c-36 -226.667 -144.169 -417.332 -324.502 -571.999s-384.166 -232 -611.499 -232c-203.333 0 -369.666 63.167 -498.999 189.5s-194 287.166 -194 482.499c0 18.667 0.833008 38.667 2.5 60s4.5 45.333 8.5 72c35.333 228 142.5 418.667 321.5 572
s383.833 230 614.5 230c204.667 0 371.167 -62.167 499.5 -186.5s192.5 -284.833 192.5 -481.5c0 -26 -0.833008 -49.833 -2.5 -71.5s-4.16699 -42.5 -7.5 -62.5zM1642 772.002c3.33301 16.667 5.66895 33.667 7.00195 51s2 36 2 56c0 156 -50.667 284 -152 384
s-232.333 150 -393 150c-190.667 0 -353.834 -62.5 -489.501 -187.5s-217.5 -276.167 -245.5 -453.5c-2.66699 -16.667 -4.83398 -34 -6.50098 -52s-2.5 -36.667 -2.5 -56c0 -156.667 50 -284.667 150 -384s230.333 -149 391 -149c181.333 0 343 61.833 485 185.5
s226.667 275.5 254 455.5zM1433 1727l-67 -68l-197 201l-258 -201l-47 68l332 295z" />
    <glyph glyph-name="Otilde" unicode="&#xd5;" horiz-adv-x="1765" 
d="M1815 773c-36 -226.667 -144.169 -417.332 -324.502 -571.999s-384.166 -232 -611.499 -232c-203.333 0 -369.666 63.167 -498.999 189.5s-194 287.166 -194 482.499c0 18.667 0.833008 38.667 2.5 60s4.5 45.333 8.5 72c35.333 228 142.5 418.667 321.5 572
s383.833 230 614.5 230c204.667 0 371.167 -62.167 499.5 -186.5s192.5 -284.833 192.5 -481.5c0 -26 -0.833008 -49.833 -2.5 -71.5s-4.16699 -42.5 -7.5 -62.5zM1642 772.002c3.33301 16.667 5.66895 33.667 7.00195 51s2 36 2 56c0 156 -50.667 284 -152 384
s-232.333 150 -393 150c-190.667 0 -353.834 -62.5 -489.501 -187.5s-217.5 -276.167 -245.5 -453.5c-2.66699 -16.667 -4.83398 -34 -6.50098 -52s-2.5 -36.667 -2.5 -56c0 -156.667 50 -284.667 150 -384s230.333 -149 391 -149c181.333 0 343 61.833 485 185.5
s226.667 275.5 254 455.5zM1504 1862c-31.333 -53.333 -65.501 -92.998 -102.501 -118.998s-77.5 -39 -121.5 -39c-21.333 0 -43.166 4.16699 -65.499 12.5s-47.166 21.833 -74.499 40.5l-13 9c-48 34 -83.667 51 -107 51c-26 0 -48.167 -5.83301 -66.5 -17.5
s-39.833 -35.834 -64.5 -72.501l-67 45c31.333 52.667 64.666 91.667 99.999 117s75 38 119 38c22 0 44.667 -4.16699 68 -12.5s48.333 -21.833 75 -40.5c4.66699 -2.66699 11.667 -7.33398 21 -14.001c44.667 -30 77.334 -45 98.001 -45c27.333 0 50.666 6 69.999 18
s41 36 65 72z" />
    <glyph glyph-name="Odieresis" unicode="&#xd6;" horiz-adv-x="1765" 
d="M1815 773c-36 -226.667 -144.169 -417.332 -324.502 -571.999s-384.166 -232 -611.499 -232c-203.333 0 -369.666 63.167 -498.999 189.5s-194 287.166 -194 482.499c0 18.667 0.833008 38.667 2.5 60s4.5 45.333 8.5 72c35.333 228 142.5 418.667 321.5 572
s383.833 230 614.5 230c204.667 0 371.167 -62.167 499.5 -186.5s192.5 -284.833 192.5 -481.5c0 -26 -0.833008 -49.833 -2.5 -71.5s-4.16699 -42.5 -7.5 -62.5zM1642 772.002c3.33301 16.667 5.66895 33.667 7.00195 51s2 36 2 56c0 156 -50.667 284 -152 384
s-232.333 150 -393 150c-190.667 0 -353.834 -62.5 -489.501 -187.5s-217.5 -276.167 -245.5 -453.5c-2.66699 -16.667 -4.83398 -34 -6.50098 -52s-2.5 -36.667 -2.5 -56c0 -156.667 50 -284.667 150 -384s230.333 -149 391 -149c181.333 0 343 61.833 485 185.5
s226.667 275.5 254 455.5zM1461 1823c-4 -28 -16.834 -51.333 -38.501 -70s-46.5 -28 -74.5 -28c-24.667 0 -45.167 7.66699 -61.5 23s-24.5 35 -24.5 59c0 0.666992 0.333008 2.83398 1 6.50098s1 6.83398 1 9.50098c4 26 17.333 48.5 40 67.5s47.667 28.5 75 28.5
c24.667 0 44.834 -7.5 60.501 -22.5s23.5 -34.167 23.5 -57.5c0 -0.666992 -0.333008 -2.83398 -1 -6.50098s-1 -6.83398 -1 -9.50098zM1067 1823c-4 -28 -16.834 -51.334 -38.501 -70.001s-46.167 -28 -73.5 -28c-24.667 0 -45.167 7.66699 -61.5 23s-24.5 35 -24.5 59
c0 1.33301 0.333008 3.83301 1 7.5s1 6.5 1 8.5c4 26 17.333 48.5 40 67.5s47.667 28.5 75 28.5c24.667 0 44.834 -7.5 60.501 -22.5s23.5 -34.167 23.5 -57.5c-0.666992 -1.33301 -1.16699 -3.66602 -1.5 -6.99902s-0.833008 -6.33301 -1.5 -9z" />
    <glyph glyph-name="multiply" unicode="&#xd7;" 
d="M1266 950l-457 -391l348 -409l-110 -95l-345 410l-452 -393l-78 92l455 391l-346 408l110 94l344 -408l455 393z" />
    <glyph glyph-name="Oslash" unicode="&#xd8;" horiz-adv-x="1765" 
d="M1915 1497l-215.001 -186c40.667 -57.333 71.667 -120 93 -188s32 -140 32 -216c0 -26 -0.833008 -49.833 -2.5 -71.5s-4.16699 -42.5 -7.5 -62.5c-36 -226.667 -144.167 -417.334 -324.5 -572.001s-384.166 -232 -611.499 -232c-99.333 0 -192.333 16.5 -279 49.5
s-161 80.167 -223 141.5l-217 -191l-64 78l215 189c-40.667 56 -71.667 118.333 -93 187s-32 140.667 -32 216c0 26 0.833008 49.833 2.5 71.5s4.5 42.5 8.5 62.5c35.333 228 142.5 418.667 321.5 572s383.833 230 614.5 230c100 0 192.667 -16.167 278 -48.5
s159 -79.166 221 -140.499l217 189zM1495 1268c-48.667 47.333 -105.998 83.333 -171.998 108s-138.333 37 -217 37c-190.667 0 -353.834 -62.5 -489.501 -187.5s-217.5 -276.167 -245.5 -453.5c-2.66699 -16.667 -4.83398 -34 -6.50098 -52s-2.5 -36.667 -2.5 -56
c0 -58 7.5 -112.833 22.5 -164.5s37.167 -99.5 66.5 -143.5zM1642 772c3.33301 16.667 5.66602 33.666 6.99902 50.999s2 36 2 56c0 57.333 -7.66699 112.333 -23 165s-37.666 101.334 -66.999 146.001l-1047 -911c49.333 -48.667 107 -85.5 173 -110.5s138 -37.5 216 -37.5
c180.667 0 342 61.833 484 185.5s227 275.5 255 455.5z" />
    <glyph glyph-name="Ugrave" unicode="&#xd9;" horiz-adv-x="1403" 
d="M1487 1544l-152 -966.002c-32 -205.333 -100.333 -358.166 -205 -458.499s-248.667 -150.5 -432 -150.5c-153.333 0 -268.333 36.5 -345 109.5s-115 182.833 -115 329.5c0 28.667 1.16699 57 3.5 85s5.83301 56.333 10.5 85l151 966h172l-157 -1001
c-4 -25.333 -6.66699 -47.166 -8 -65.499s-2 -35.5 -2 -51.5c0 -98.667 26 -172.5 78 -221.5s131 -73.5 237 -73.5c125.333 0 223.5 33.667 294.5 101s117.5 171 139.5 311l158 1001h172zM1082 1725l-74 -66l-248 270l99 97z" />
    <glyph glyph-name="Uacute" unicode="&#xda;" horiz-adv-x="1403" 
d="M1487 1544l-152 -966.002c-32 -205.333 -100.333 -358.166 -205 -458.499s-248.667 -150.5 -432 -150.5c-153.333 0 -268.333 36.5 -345 109.5s-115 182.833 -115 329.5c0 28.667 1.16699 57 3.5 85s5.83301 56.333 10.5 85l151 966h172l-157 -1001
c-4 -25.333 -6.66699 -47.166 -8 -65.499s-2 -35.5 -2 -51.5c0 -98.667 26 -172.5 78 -221.5s131 -73.5 237 -73.5c125.333 0 223.5 33.667 294.5 101s117.5 171 139.5 311l158 1001h172zM1215 1929l-336 -270l-51 66l315 301z" />
    <glyph glyph-name="Ucircumflex" unicode="&#xdb;" horiz-adv-x="1403" 
d="M1487 1544l-152 -966.002c-32 -205.333 -100.333 -358.166 -205 -458.499s-248.667 -150.5 -432 -150.5c-153.333 0 -268.333 36.5 -345 109.5s-115 182.833 -115 329.5c0 28.667 1.16699 57 3.5 85s5.83301 56.333 10.5 85l151 966h172l-157 -1001
c-4 -25.333 -6.66699 -47.166 -8 -65.499s-2 -35.5 -2 -51.5c0 -98.667 26 -172.5 78 -221.5s131 -73.5 237 -73.5c125.333 0 223.5 33.667 294.5 101s117.5 171 139.5 311l158 1001h172zM1239 1727l-67 -68l-197 201l-258 -201l-47 68l332 295z" />
    <glyph glyph-name="Udieresis" unicode="&#xdc;" horiz-adv-x="1403" 
d="M1487 1544l-152 -966.002c-32 -205.333 -100.333 -358.166 -205 -458.499s-248.667 -150.5 -432 -150.5c-153.333 0 -268.333 36.5 -345 109.5s-115 182.833 -115 329.5c0 28.667 1.16699 57 3.5 85s5.83301 56.333 10.5 85l151 966h172l-157 -1001
c-4 -25.333 -6.66699 -47.166 -8 -65.499s-2 -35.5 -2 -51.5c0 -98.667 26 -172.5 78 -221.5s131 -73.5 237 -73.5c125.333 0 223.5 33.667 294.5 101s117.5 171 139.5 311l158 1001h172zM1264 1823c-4 -28 -16.834 -51.333 -38.501 -70s-46.5 -28 -74.5 -28
c-24.667 0 -45.167 7.66699 -61.5 23s-24.5 35 -24.5 59c0 0.666992 0.333008 2.83398 1 6.50098s1 6.83398 1 9.50098c4 26 17.333 48.5 40 67.5s47.667 28.5 75 28.5c24.667 0 44.834 -7.5 60.501 -22.5s23.5 -34.167 23.5 -57.5
c0 -0.666992 -0.333008 -2.83398 -1 -6.50098s-1 -6.83398 -1 -9.50098zM869.999 1823c-4 -28 -16.834 -51.334 -38.501 -70.001s-46.167 -28 -73.5 -28c-24.667 0 -45.167 7.66699 -61.5 23s-24.5 35 -24.5 59c0 1.33301 0.333008 3.83301 1 7.5s1 6.5 1 8.5
c4 26 17.333 48.5 40 67.5s47.667 28.5 75 28.5c24.667 0 44.834 -7.5 60.501 -22.5s23.5 -34.167 23.5 -57.5c-0.666992 -1.33301 -1.16699 -3.66602 -1.5 -6.99902s-0.833008 -6.33301 -1.5 -9z" />
    <glyph glyph-name="Yacute" unicode="&#xdd;" horiz-adv-x="1214" 
d="M1425 1544l-614 -835l-113 -709h-172l113 709l-363 835h193l283 -680l483 680h190zM1131 1929l-336 -270l-51 66l315 301z" />
    <glyph glyph-name="Thorn" unicode="&#xde;" horiz-adv-x="1030" 
d="M1073 784c-22 -140 -85.333 -246.667 -190 -320s-246 -110 -424 -110h-72l-55 -354h-172l243 1544h172l-51 -327h72c162 0 283.333 -28.333 364 -85s121 -141.667 121 -255c0 -16.667 -0.666992 -32.667 -2 -48s-3.33301 -30.333 -6 -45zM901 784
c2 11.333 3.50098 22 4.50098 32s1.5 20 1.5 30c0 72.667 -26.167 125.667 -78.5 159s-136.833 50 -253.5 50h-75l-86 -539h75c135.333 0 234.166 20.833 296.499 62.5s100.833 110.167 115.5 205.5z" />
    <glyph glyph-name="germandbls" unicode="&#xdf;" horiz-adv-x="1182" 
d="M1198 518c-26 -166.667 -95.999 -299.83 -209.999 -399.497s-254.333 -149.5 -421 -149.5c-4.66699 0 -15.834 0.833008 -33.501 2.5s-28.834 3.16699 -33.501 4.5l22 144c4 0 14.167 -0.5 30.5 -1.5s28.166 -1.5 35.499 -1.5c121.333 0 221 34.667 299 104
s127 167.666 147 294.999c2 11.333 3.5 22.166 4.5 32.499s1.5 20.833 1.5 31.5c0 98.667 -35.333 178.167 -106 238.5s-165 90.5 -283 90.5l23 140c84 0 156.5 24.5 217.5 73.5s97.5 112.5 109.5 190.5c0.666992 1.33301 1 3 1 5c2.66699 21.333 4 36.666 4 45.999
c0 62 -18.667 111.667 -56 149s-85.666 56 -144.999 56c-78 0 -139.667 -21.833 -185 -65.5s-75.333 -109.834 -90 -198.501l-206 -1305h-164l129 809h-119l23 147h118l56 351c20 129.333 69.833 229.5 149.5 300.5s180.5 106.5 302.5 106.5
c106.667 0 192.5 -30.5 257.5 -91.5s97.5 -141.167 97.5 -240.5c-0.666992 -11.333 -1.5 -22.666 -2.5 -33.999s-2.5 -23.333 -4.5 -36c-11.333 -74.667 -40.166 -140.167 -86.499 -196.5s-104.833 -96.5 -175.5 -120.5c90.667 -20.667 163.167 -66.667 217.5 -138
s81.5 -156.333 81.5 -255c0 -14 -0.5 -28 -1.5 -42s-2.5 -28 -4.5 -42z" />
    <glyph glyph-name="agrave" unicode="&#xe0;" horiz-adv-x="1182" 
d="M1186 956l-152 -956h-164l25 158c-42.667 -62 -96 -109 -160 -141s-135.667 -48 -215 -48c-115.333 0 -208.333 37.667 -279 113s-106 175 -106 299c0 18.667 0.666992 36.667 2 54s3.33301 34 6 50c23.333 147.333 85.5 267.5 186.5 360.5s219.167 139.5 354.5 139.5
c76.667 0 142.167 -15 196.5 -45s93.833 -73 118.5 -129l23 145h164zM948 489c2 13.333 3.50098 26.168 4.50098 38.501s1.5 24.166 1.5 35.499c0 82.667 -24.167 147.667 -72.5 195s-114.166 71 -197.499 71c-95.333 0 -177.833 -31.5 -247.5 -94.5
s-112.834 -146.833 -129.501 -251.5c-2 -13.333 -3.5 -26.333 -4.5 -39s-1.5 -24.667 -1.5 -36c0 -85.333 24.167 -153.5 72.5 -204.5s112.166 -76.5 191.499 -76.5c94 0 177.167 33.833 249.5 101.5s116.833 154.5 133.5 260.5zM856.001 1135l-74 -66l-248 270l99 97z" />
    <glyph glyph-name="aacute" unicode="&#xe1;" horiz-adv-x="1182" 
d="M1186 956l-152 -956h-164l25 158c-42.667 -62 -96 -109 -160 -141s-135.667 -48 -215 -48c-115.333 0 -208.333 37.667 -279 113s-106 175 -106 299c0 18.667 0.666992 36.667 2 54s3.33301 34 6 50c23.333 147.333 85.5 267.5 186.5 360.5s219.167 139.5 354.5 139.5
c76.667 0 142.167 -15 196.5 -45s93.833 -73 118.5 -129l23 145h164zM948 489c2 13.333 3.50098 26.168 4.50098 38.501s1.5 24.166 1.5 35.499c0 82.667 -24.167 147.667 -72.5 195s-114.166 71 -197.499 71c-95.333 0 -177.833 -31.5 -247.5 -94.5
s-112.834 -146.833 -129.501 -251.5c-2 -13.333 -3.5 -26.333 -4.5 -39s-1.5 -24.667 -1.5 -36c0 -85.333 24.167 -153.5 72.5 -204.5s112.166 -76.5 191.499 -76.5c94 0 177.167 33.833 249.5 101.5s116.833 154.5 133.5 260.5zM989.001 1339l-336 -270l-51 66l315 301z
" />
    <glyph glyph-name="acircumflex" unicode="&#xe2;" horiz-adv-x="1182" 
d="M1186 956l-152 -956h-164l25 158c-42.667 -62 -96 -109 -160 -141s-135.667 -48 -215 -48c-115.333 0 -208.333 37.667 -279 113s-106 175 -106 299c0 18.667 0.666992 36.667 2 54s3.33301 34 6 50c23.333 147.333 85.5 267.5 186.5 360.5s219.167 139.5 354.5 139.5
c76.667 0 142.167 -15 196.5 -45s93.833 -73 118.5 -129l23 145h164zM948 489c2 13.333 3.50098 26.168 4.50098 38.501s1.5 24.166 1.5 35.499c0 82.667 -24.167 147.667 -72.5 195s-114.166 71 -197.499 71c-95.333 0 -177.833 -31.5 -247.5 -94.5
s-112.834 -146.833 -129.501 -251.5c-2 -13.333 -3.5 -26.333 -4.5 -39s-1.5 -24.667 -1.5 -36c0 -85.333 24.167 -153.5 72.5 -204.5s112.166 -76.5 191.499 -76.5c94 0 177.167 33.833 249.5 101.5s116.833 154.5 133.5 260.5zM1014 1137l-67 -68l-197 201l-258 -201
l-47 68l332 295z" />
    <glyph glyph-name="atilde" unicode="&#xe3;" horiz-adv-x="1182" 
d="M1186 956l-152 -956h-164l25 158c-42.667 -62 -96 -109 -160 -141s-135.667 -48 -215 -48c-115.333 0 -208.333 37.667 -279 113s-106 175 -106 299c0 18.667 0.666992 36.667 2 54s3.33301 34 6 50c23.333 147.333 85.5 267.5 186.5 360.5s219.167 139.5 354.5 139.5
c76.667 0 142.167 -15 196.5 -45s93.833 -73 118.5 -129l23 145h164zM948 489c2 13.333 3.50098 26.168 4.50098 38.501s1.5 24.166 1.5 35.499c0 82.667 -24.167 147.667 -72.5 195s-114.166 71 -197.499 71c-95.333 0 -177.833 -31.5 -247.5 -94.5
s-112.834 -146.833 -129.501 -251.5c-2 -13.333 -3.5 -26.333 -4.5 -39s-1.5 -24.667 -1.5 -36c0 -85.333 24.167 -153.5 72.5 -204.5s112.166 -76.5 191.499 -76.5c94 0 177.167 33.833 249.5 101.5s116.833 154.5 133.5 260.5zM1084 1272
c-31.333 -53.333 -65.501 -92.998 -102.501 -118.998s-77.5 -39 -121.5 -39c-21.333 0 -43.166 4.16699 -65.499 12.5s-47.166 21.833 -74.499 40.5l-13 9c-48 34 -83.667 51 -107 51c-26 0 -48.167 -5.83301 -66.5 -17.5s-39.833 -35.834 -64.5 -72.501l-67 45
c31.333 52.667 64.666 91.667 99.999 117s75 38 119 38c22 0 44.667 -4.16699 68 -12.5s48.333 -21.833 75 -40.5c4.66699 -2.66699 11.667 -7.33398 21 -14.001c44.667 -30 77.334 -45 98.001 -45c27.333 0 50.666 6 69.999 18s41 36 65 72z" />
    <glyph glyph-name="adieresis" unicode="&#xe4;" horiz-adv-x="1182" 
d="M1186 956l-152 -956h-164l25 158c-42.667 -62 -96 -109 -160 -141s-135.667 -48 -215 -48c-115.333 0 -208.333 37.667 -279 113s-106 175 -106 299c0 18.667 0.666992 36.667 2 54s3.33301 34 6 50c23.333 147.333 85.5 267.5 186.5 360.5s219.167 139.5 354.5 139.5
c76.667 0 142.167 -15 196.5 -45s93.833 -73 118.5 -129l23 145h164zM948 489c2 13.333 3.50098 26.168 4.50098 38.501s1.5 24.166 1.5 35.499c0 82.667 -24.167 147.667 -72.5 195s-114.166 71 -197.499 71c-95.333 0 -177.833 -31.5 -247.5 -94.5
s-112.834 -146.833 -129.501 -251.5c-2 -13.333 -3.5 -26.333 -4.5 -39s-1.5 -24.667 -1.5 -36c0 -85.333 24.167 -153.5 72.5 -204.5s112.166 -76.5 191.499 -76.5c94 0 177.167 33.833 249.5 101.5s116.833 154.5 133.5 260.5zM1041 1233
c-4 -28 -16.834 -51.333 -38.501 -70s-46.5 -28 -74.5 -28c-24.667 0 -45.167 7.66699 -61.5 23s-24.5 35 -24.5 59c0 0.666992 0.333008 2.83398 1 6.50098s1 6.83398 1 9.50098c4 26 17.333 48.5 40 67.5s47.667 28.5 75 28.5c24.667 0 44.834 -7.5 60.501 -22.5
s23.5 -34.167 23.5 -57.5c0 -0.666992 -0.333008 -2.83398 -1 -6.50098s-1 -6.83398 -1 -9.50098zM647 1233c-4 -28 -16.834 -51.334 -38.501 -70.001s-46.167 -28 -73.5 -28c-24.667 0 -45.167 7.66699 -61.5 23s-24.5 35 -24.5 59c0 1.33301 0.333008 3.83301 1 7.5
s1 6.5 1 8.5c4 26 17.333 48.5 40 67.5s47.667 28.5 75 28.5c24.667 0 44.834 -7.5 60.501 -22.5s23.5 -34.167 23.5 -57.5c-0.666992 -1.33301 -1.16699 -3.66602 -1.5 -6.99902s-0.833008 -6.33301 -1.5 -9z" />
    <glyph glyph-name="aring" unicode="&#xe5;" horiz-adv-x="1182" 
d="M1186 956l-152 -956h-164l25 158c-42.667 -62 -96 -109 -160 -141s-135.667 -48 -215 -48c-115.333 0 -208.333 37.667 -279 113s-106 175 -106 299c0 18.667 0.666992 36.667 2 54s3.33301 34 6 50c23.333 147.333 85.5 267.5 186.5 360.5s219.167 139.5 354.5 139.5
c76.667 0 142.167 -15 196.5 -45s93.833 -73 118.5 -129l23 145h164zM948 489c2 13.333 3.50098 26.168 4.50098 38.501s1.5 24.166 1.5 35.499c0 82.667 -24.167 147.667 -72.5 195s-114.166 71 -197.499 71c-95.333 0 -177.833 -31.5 -247.5 -94.5
s-112.834 -146.833 -129.501 -251.5c-2 -13.333 -3.5 -26.333 -4.5 -39s-1.5 -24.667 -1.5 -36c0 -85.333 24.167 -153.5 72.5 -204.5s112.166 -76.5 191.499 -76.5c94 0 177.167 33.833 249.5 101.5s116.833 154.5 133.5 260.5zM993.001 1291
c-10 -66.667 -42.168 -123.334 -96.501 -170.001s-115.166 -70 -182.499 -70c-58.667 0 -107 18.833 -145 56.5s-57 85.5 -57 143.5c0 8 1 19.333 3 34c0 2 0.333008 3.66699 1 5c10 66.667 41.667 123.334 95 170.001s113 70 179 70c59.333 0 108.333 -19.167 147 -57.5
s58 -86.833 58 -145.5c0 -10 -0.166992 -17.5 -0.5 -22.5s-0.833008 -9.5 -1.5 -13.5zM911 1290c0.666992 2.66699 1.16699 5.83203 1.5 9.49902s0.5 8.83398 0.5 15.501c0 38 -12.833 69.667 -38.5 95s-57.834 38 -96.501 38c-43.333 0 -82.333 -15.333 -117 -46
s-55.667 -67.667 -63 -111c-2 -7.33301 -3.33301 -12.833 -4 -16.5s-1 -6.5 -1 -8.5c0 -38 13 -69.667 39 -95s58.333 -38 97 -38c42.667 0 81.834 15.333 117.501 46s57.167 67.667 64.5 111z" />
    <glyph glyph-name="ae" unicode="&#xe6;" horiz-adv-x="1726" 
d="M1735 510l-8.99805 -56.9971h-737c-1.33301 -8.66699 -2.33301 -18 -3 -28s-1 -24.667 -1 -44c0 -82.667 21.167 -145.667 63.5 -189s103.833 -65 184.5 -65c67.333 0 125.5 13.333 174.5 40s92.5 68.667 130.5 126l121 -72
c-59.333 -86.667 -125.833 -150.334 -199.5 -191.001s-158.834 -61 -255.501 -61c-86.667 0 -158.334 16.333 -215.001 49s-97.667 80.667 -123 144c-48 -64.667 -106 -113 -174 -145s-145.667 -48 -233 -48c-114 0 -200.5 21.833 -259.5 65.5s-88.5 107.167 -88.5 190.5
c0 10.667 0.5 21.167 1.5 31.5s2.5 21.166 4.5 32.499c13.333 88.667 60.5 162.667 141.5 222s177.167 89 288.5 89c59.333 0 114.833 -9.16699 166.5 -27.5s91.834 -42.5 120.501 -72.5l10 67v5c2.66699 21.333 4 36.666 4 45.999c0 68.667 -22.667 121 -68 157
s-111.333 54 -198 54c-54 0 -108 -7.66699 -162 -23s-105.333 -37.666 -154 -66.999l27 170c48 26.667 97.667 46 149 58s110 18 176 18c98.667 0 177 -15.833 235 -47.5s96.667 -79.834 116 -144.501c43.333 62.667 98.5 110.334 165.5 143.001s142.833 49 227.5 49
c117.333 0 210.166 -33.667 278.499 -101s102.5 -159.333 102.5 -276c0 -18.667 -2.66699 -49.334 -8 -92.001v-6zM1579 570.003c0.666992 4 1.16797 8.16699 1.50098 12.5s0.5 10.833 0.5 19.5c0 70.667 -21.833 126.167 -65.5 166.5s-103.834 60.5 -180.501 60.5
c-78 0 -146.333 -23.167 -205 -69.5s-98 -109.833 -118 -190.5zM817.003 302.003c-1.33301 19.333 -2.5 34.333 -3.5 45s-1.83301 20.334 -2.5 29.001c-15.333 30.667 -46 55.834 -92 75.501s-96.667 29.5 -152 29.5c-77.333 0 -141.5 -17 -192.5 -51
s-80.833 -79 -89.5 -135c-0.666992 -2.66699 -1.16699 -5.83398 -1.5 -9.50098s-0.5 -8.83398 -0.5 -15.501c0 -45.333 19.167 -80.5 57.5 -105.5s93.5 -37.5 165.5 -37.5c76.667 0 140.167 14 190.5 42s90.5 72.333 120.5 133z" />
    <glyph glyph-name="ccedilla" unicode="&#xe7;" horiz-adv-x="975" 
d="M1022 920l-27.0029 -175.001c-33.333 26.667 -72.666 47.334 -117.999 62.001s-91.333 22 -138 22c-113.333 0 -209.666 -32.833 -288.999 -98.5s-127.666 -152.834 -144.999 -261.501c-1.33301 -7.33301 -2.33301 -15.166 -3 -23.499s-1 -20.166 -1 -35.499
c0 -86 29.833 -154.667 89.5 -206s139.167 -77 238.5 -77c52.667 0 104.5 7.5 155.5 22.5s96.833 36.167 137.5 63.5l-27 -174c-46 -23.333 -95.333 -40.833 -148 -52.5s-107.667 -17.5 -165 -17.5c-135.333 0 -244 38.167 -326 114.5s-123 176.833 -123 301.5
c0 10 0.5 21.167 1.5 33.5s3.16699 31.166 6.5 56.499c24 150 93.333 272.5 208 367.5s251 142.5 409 142.5c54.667 0 103.5 -5.33301 146.5 -16s82.167 -27 117.5 -49zM687.997 -102.001l-276 -320l-70 53l250 338z" />
    <glyph glyph-name="egrave" unicode="&#xe8;" horiz-adv-x="1063" 
d="M1077 510l-8.00195 -57.001l-768 -1c-0.666992 -6 -1.16699 -13 -1.5 -21s-0.5 -19.333 -0.5 -34c0 -86.667 22.833 -153.334 68.5 -200.001s110.167 -70 193.5 -70c70.667 0 132.834 13.833 186.501 41.5s98.834 69.167 135.501 124.5l125 -72
c-58 -83.333 -126.5 -146.166 -205.5 -188.499s-168.167 -63.5 -267.5 -63.5c-125.333 0 -223.666 36.167 -294.999 108.5s-107 171.5 -107 297.5c0 20 0.666992 39 2 57s3.33301 35 6 51c22.667 144 87 263.667 193 359s225.333 143 358 143
c119.333 0 214.666 -34.5 285.999 -103.5s107 -161.5 107 -277.5c0 -19.333 -2.33301 -48.666 -7 -87.999zM923.998 568.999l0.000976562 22.999c0 74.667 -22.667 132.834 -68 174.501s-108 62.5 -188 62.5c-80.667 0 -152.834 -23.5 -216.501 -70.5
s-106.167 -110.167 -127.5 -189.5h600zM839.999 1135l-74 -66l-248 270l99 97z" />
    <glyph glyph-name="eacute" unicode="&#xe9;" horiz-adv-x="1063" 
d="M1077 510l-8.00195 -57.001l-768 -1c-0.666992 -6 -1.16699 -13 -1.5 -21s-0.5 -19.333 -0.5 -34c0 -86.667 22.833 -153.334 68.5 -200.001s110.167 -70 193.5 -70c70.667 0 132.834 13.833 186.501 41.5s98.834 69.167 135.501 124.5l125 -72
c-58 -83.333 -126.5 -146.166 -205.5 -188.499s-168.167 -63.5 -267.5 -63.5c-125.333 0 -223.666 36.167 -294.999 108.5s-107 171.5 -107 297.5c0 20 0.666992 39 2 57s3.33301 35 6 51c22.667 144 87 263.667 193 359s225.333 143 358 143
c119.333 0 214.666 -34.5 285.999 -103.5s107 -161.5 107 -277.5c0 -19.333 -2.33301 -48.666 -7 -87.999zM923.998 568.999l0.000976562 22.999c0 74.667 -22.667 132.834 -68 174.501s-108 62.5 -188 62.5c-80.667 0 -152.834 -23.5 -216.501 -70.5
s-106.167 -110.167 -127.5 -189.5h600zM972.999 1339l-336 -270l-51 66l315 301z" />
    <glyph glyph-name="ecircumflex" unicode="&#xea;" horiz-adv-x="1063" 
d="M1077 510l-8.00195 -57.001l-768 -1c-0.666992 -6 -1.16699 -13 -1.5 -21s-0.5 -19.333 -0.5 -34c0 -86.667 22.833 -153.334 68.5 -200.001s110.167 -70 193.5 -70c70.667 0 132.834 13.833 186.501 41.5s98.834 69.167 135.501 124.5l125 -72
c-58 -83.333 -126.5 -146.166 -205.5 -188.499s-168.167 -63.5 -267.5 -63.5c-125.333 0 -223.666 36.167 -294.999 108.5s-107 171.5 -107 297.5c0 20 0.666992 39 2 57s3.33301 35 6 51c22.667 144 87 263.667 193 359s225.333 143 358 143
c119.333 0 214.666 -34.5 285.999 -103.5s107 -161.5 107 -277.5c0 -19.333 -2.33301 -48.666 -7 -87.999zM923.998 568.999l0.000976562 22.999c0 74.667 -22.667 132.834 -68 174.501s-108 62.5 -188 62.5c-80.667 0 -152.834 -23.5 -216.501 -70.5
s-106.167 -110.167 -127.5 -189.5h600zM996.999 1137l-67 -68l-197 201l-258 -201l-47 68l332 295z" />
    <glyph glyph-name="edieresis" unicode="&#xeb;" horiz-adv-x="1063" 
d="M1077 510l-8.00195 -57.001l-768 -1c-0.666992 -6 -1.16699 -13 -1.5 -21s-0.5 -19.333 -0.5 -34c0 -86.667 22.833 -153.334 68.5 -200.001s110.167 -70 193.5 -70c70.667 0 132.834 13.833 186.501 41.5s98.834 69.167 135.501 124.5l125 -72
c-58 -83.333 -126.5 -146.166 -205.5 -188.499s-168.167 -63.5 -267.5 -63.5c-125.333 0 -223.666 36.167 -294.999 108.5s-107 171.5 -107 297.5c0 20 0.666992 39 2 57s3.33301 35 6 51c22.667 144 87 263.667 193 359s225.333 143 358 143
c119.333 0 214.666 -34.5 285.999 -103.5s107 -161.5 107 -277.5c0 -19.333 -2.33301 -48.666 -7 -87.999zM923.998 568.999l0.000976562 22.999c0 74.667 -22.667 132.834 -68 174.501s-108 62.5 -188 62.5c-80.667 0 -152.834 -23.5 -216.501 -70.5
s-106.167 -110.167 -127.5 -189.5h600zM1022 1233c-4 -28 -16.834 -51.333 -38.501 -70s-46.5 -28 -74.5 -28c-24.667 0 -45.167 7.66699 -61.5 23s-24.5 35 -24.5 59c0 0.666992 0.333008 2.83398 1 6.50098s1 6.83398 1 9.50098c4 26 17.333 48.5 40 67.5
s47.667 28.5 75 28.5c24.667 0 44.834 -7.5 60.501 -22.5s23.5 -34.167 23.5 -57.5c0 -0.666992 -0.333008 -2.83398 -1 -6.50098s-1 -6.83398 -1 -9.50098zM627.998 1233c-4 -28 -16.834 -51.334 -38.501 -70.001s-46.167 -28 -73.5 -28
c-24.667 0 -45.167 7.66699 -61.5 23s-24.5 35 -24.5 59c0 1.33301 0.333008 3.83301 1 7.5s1 6.5 1 8.5c4 26 17.333 48.5 40 67.5s47.667 28.5 75 28.5c24.667 0 44.834 -7.5 60.501 -22.5s23.5 -34.167 23.5 -57.5c-0.666992 -1.33301 -1.16699 -3.66602 -1.5 -6.99902
s-0.833008 -6.33301 -1.5 -9z" />
    <glyph glyph-name="igrave" unicode="&#xec;" horiz-adv-x="537" 
d="M502 956l-152 -956h-164l152 956h164zM578 1135l-74 -66l-248 270l99 97z" />
    <glyph glyph-name="iacute" unicode="&#xed;" horiz-adv-x="537" 
d="M502 956l-152 -956h-164l152 956h164zM711 1339l-336 -270l-51 66l315 301z" />
    <glyph glyph-name="icircumflex" unicode="&#xee;" horiz-adv-x="537" 
d="M502 956l-152 -956h-164l152 956h164zM735 1137l-67 -68l-197 201l-258 -201l-47 68l332 295z" />
    <glyph glyph-name="idieresis" unicode="&#xef;" horiz-adv-x="537" 
d="M502 956l-152 -956h-164l152 956h164zM762 1233c-4 -28 -16.834 -51.333 -38.501 -70s-46.5 -28 -74.5 -28c-24.667 0 -45.167 7.66699 -61.5 23s-24.5 35 -24.5 59c0 0.666992 0.333008 2.83398 1 6.50098s1 6.83398 1 9.50098c4 26 17.333 48.5 40 67.5
s47.667 28.5 75 28.5c24.667 0 44.834 -7.5 60.501 -22.5s23.5 -34.167 23.5 -57.5c0 -0.666992 -0.333008 -2.83398 -1 -6.50098s-1 -6.83398 -1 -9.50098zM367.999 1233c-4 -28 -16.834 -51.334 -38.501 -70.001s-46.167 -28 -73.5 -28
c-24.667 0 -45.167 7.66699 -61.5 23s-24.5 35 -24.5 59c0 1.33301 0.333008 3.83301 1 7.5s1 6.5 1 8.5c4 26 17.333 48.5 40 67.5s47.667 28.5 75 28.5c24.667 0 44.834 -7.5 60.501 -22.5s23.5 -34.167 23.5 -57.5c-0.666992 -1.33301 -1.16699 -3.66602 -1.5 -6.99902
s-0.833008 -6.33301 -1.5 -9z" />
    <glyph glyph-name="eth" unicode="&#xf0;" horiz-adv-x="1149" 
d="M1192 1591l-274 -151.001c85.333 -96.667 150.666 -207.167 195.999 -331.5s68 -255.5 68 -393.5c0 -31.333 -1.33301 -63.5 -4 -96.5s-7 -67.833 -13 -104.5c-24.667 -156 -93.5 -285.833 -206.5 -389.5s-242.833 -155.5 -389.5 -155.5
c-126 0 -229.833 40.333 -311.5 121s-122.5 183 -122.5 307c0 13.333 0.5 27.166 1.5 41.499s2.5 28.5 4.5 42.5c22.667 142.667 90.5 262.334 203.5 359.001s241.167 145 384.5 145c54.667 0 107.5 -10.667 158.5 -32s94.5 -51 130.5 -89
c-11.333 84.667 -39.5 171.834 -84.5 261.501s-101.5 171.167 -169.5 244.5l-332 -176l-37 92l295 158c-34.667 30 -70.167 57.833 -106.5 83.5s-72.5 48.167 -108.5 67.5l92 117c55.333 -28 106.333 -58.333 153 -91s89.334 -67.667 128.001 -105l309 167zM995 480.999
c1.33301 7.33301 2.33203 15.1689 2.99902 23.502s1 21.166 1 38.499c0 84.667 -27.167 153.5 -81.5 206.5s-124.5 79.5 -210.5 79.5c-99.333 0 -187.166 -32.833 -263.499 -98.5s-122.5 -148.834 -138.5 -249.501c-1.33301 -7.33301 -2.33301 -15.166 -3 -23.499
s-1 -20.833 -1 -37.5c0 -86.667 27.5 -157.167 82.5 -211.5s125.833 -81.5 212.5 -81.5c98 0 185 33.667 261 101s122 151.666 138 252.999z" />
    <glyph glyph-name="ntilde" unicode="&#xf1;" horiz-adv-x="1081" 
d="M1036 616l-98 -616h-164l90 571c2.66699 14.667 4.66699 29.5 6 44.5s2 30.5 2 46.5c0 60.667 -13.833 105.5 -41.5 134.5s-71.167 43.5 -130.5 43.5c-82 0 -149.833 -32.5 -203.5 -97.5s-90.167 -159.5 -109.5 -283.5l-72 -459h-163l151 956h164l-23 -141
c38 56.667 84.833 99.167 140.5 127.5s120.167 42.5 193.5 42.5c84 0 149.333 -24 196 -72s70 -116 70 -204c0 -16.667 -0.666992 -32.667 -2 -48s-3.33301 -30.333 -6 -45zM1076 1272c-31.333 -53.333 -65.501 -92.998 -102.501 -118.998s-77.5 -39 -121.5 -39
c-21.333 0 -43.166 4.16699 -65.499 12.5s-47.166 21.833 -74.499 40.5l-13 9c-48 34 -83.667 51 -107 51c-26 0 -48.167 -5.83301 -66.5 -17.5s-39.833 -35.834 -64.5 -72.501l-67 45c31.333 52.667 64.666 91.667 99.999 117s75 38 119 38c22 0 44.667 -4.16699 68 -12.5
s48.333 -21.833 75 -40.5c4.66699 -2.66699 11.667 -7.33398 21 -14.001c44.667 -30 77.334 -45 98.001 -45c27.333 0 50.666 6 69.999 18s41 36 65 72z" />
    <glyph glyph-name="ograve" unicode="&#xf2;" horiz-adv-x="1151" 
d="M1161 481c-22.667 -142 -91.332 -262.834 -205.999 -362.501s-243.334 -149.5 -386.001 -149.5c-126 0 -229.833 40.333 -311.5 121s-122.5 183 -122.5 307c0 13.333 0.5 27.166 1.5 41.499s2.5 28.5 4.5 42.5c22.667 142.667 90.5 262.334 203.5 359.001
s241.167 145 384.5 145c128 0 233 -39.667 315 -119s123 -180.333 123 -303c0 -13.333 -0.5 -26.666 -1.5 -39.999s-2.5 -27.333 -4.5 -42zM997.002 480.999c2 7.33301 3.16602 15.1689 3.49902 23.502s0.5 21.166 0.5 38.499c0 84.667 -27.5 153.5 -82.5 206.5
s-125.5 79.5 -211.5 79.5c-99.333 0 -187.166 -32.833 -263.499 -98.5s-122.5 -148.834 -138.5 -249.501c-1.33301 -7.33301 -2.33301 -15.166 -3 -23.499s-1 -20.833 -1 -37.5c0 -86.667 27.5 -157.167 82.5 -211.5s125.833 -81.5 212.5 -81.5c98 0 185.333 33.667 262 101
s123 151.666 139 252.999zM883.001 1135l-74 -66l-248 270l99 97z" />
    <glyph glyph-name="oacute" unicode="&#xf3;" horiz-adv-x="1151" 
d="M1161 481c-22.667 -142 -91.332 -262.834 -205.999 -362.501s-243.334 -149.5 -386.001 -149.5c-126 0 -229.833 40.333 -311.5 121s-122.5 183 -122.5 307c0 13.333 0.5 27.166 1.5 41.499s2.5 28.5 4.5 42.5c22.667 142.667 90.5 262.334 203.5 359.001
s241.167 145 384.5 145c128 0 233 -39.667 315 -119s123 -180.333 123 -303c0 -13.333 -0.5 -26.666 -1.5 -39.999s-2.5 -27.333 -4.5 -42zM997.002 480.999c2 7.33301 3.16602 15.1689 3.49902 23.502s0.5 21.166 0.5 38.499c0 84.667 -27.5 153.5 -82.5 206.5
s-125.5 79.5 -211.5 79.5c-99.333 0 -187.166 -32.833 -263.499 -98.5s-122.5 -148.834 -138.5 -249.501c-1.33301 -7.33301 -2.33301 -15.166 -3 -23.499s-1 -20.833 -1 -37.5c0 -86.667 27.5 -157.167 82.5 -211.5s125.833 -81.5 212.5 -81.5c98 0 185.333 33.667 262 101
s123 151.666 139 252.999zM1016 1339l-336 -270l-51 66l315 301z" />
    <glyph glyph-name="ocircumflex" unicode="&#xf4;" horiz-adv-x="1151" 
d="M1161 481c-22.667 -142 -91.332 -262.834 -205.999 -362.501s-243.334 -149.5 -386.001 -149.5c-126 0 -229.833 40.333 -311.5 121s-122.5 183 -122.5 307c0 13.333 0.5 27.166 1.5 41.499s2.5 28.5 4.5 42.5c22.667 142.667 90.5 262.334 203.5 359.001
s241.167 145 384.5 145c128 0 233 -39.667 315 -119s123 -180.333 123 -303c0 -13.333 -0.5 -26.666 -1.5 -39.999s-2.5 -27.333 -4.5 -42zM997.002 480.999c2 7.33301 3.16602 15.1689 3.49902 23.502s0.5 21.166 0.5 38.499c0 84.667 -27.5 153.5 -82.5 206.5
s-125.5 79.5 -211.5 79.5c-99.333 0 -187.166 -32.833 -263.499 -98.5s-122.5 -148.834 -138.5 -249.501c-1.33301 -7.33301 -2.33301 -15.166 -3 -23.499s-1 -20.833 -1 -37.5c0 -86.667 27.5 -157.167 82.5 -211.5s125.833 -81.5 212.5 -81.5c98 0 185.333 33.667 262 101
s123 151.666 139 252.999zM1040 1137l-67 -68l-197 201l-258 -201l-47 68l332 295z" />
    <glyph glyph-name="otilde" unicode="&#xf5;" horiz-adv-x="1151" 
d="M1161 481c-22.667 -142 -91.332 -262.834 -205.999 -362.501s-243.334 -149.5 -386.001 -149.5c-126 0 -229.833 40.333 -311.5 121s-122.5 183 -122.5 307c0 13.333 0.5 27.166 1.5 41.499s2.5 28.5 4.5 42.5c22.667 142.667 90.5 262.334 203.5 359.001
s241.167 145 384.5 145c128 0 233 -39.667 315 -119s123 -180.333 123 -303c0 -13.333 -0.5 -26.666 -1.5 -39.999s-2.5 -27.333 -4.5 -42zM997.002 480.999c2 7.33301 3.16602 15.1689 3.49902 23.502s0.5 21.166 0.5 38.499c0 84.667 -27.5 153.5 -82.5 206.5
s-125.5 79.5 -211.5 79.5c-99.333 0 -187.166 -32.833 -263.499 -98.5s-122.5 -148.834 -138.5 -249.501c-1.33301 -7.33301 -2.33301 -15.166 -3 -23.499s-1 -20.833 -1 -37.5c0 -86.667 27.5 -157.167 82.5 -211.5s125.833 -81.5 212.5 -81.5c98 0 185.333 33.667 262 101
s123 151.666 139 252.999zM1110 1272c-31.333 -53.333 -65.501 -92.998 -102.501 -118.998s-77.5 -39 -121.5 -39c-21.333 0 -43.166 4.16699 -65.499 12.5s-47.166 21.833 -74.499 40.5l-13 9c-48 34 -83.667 51 -107 51c-26 0 -48.167 -5.83301 -66.5 -17.5
s-39.833 -35.834 -64.5 -72.501l-67 45c31.333 52.667 64.666 91.667 99.999 117s75 38 119 38c22 0 44.667 -4.16699 68 -12.5s48.333 -21.833 75 -40.5c4.66699 -2.66699 11.667 -7.33398 21 -14.001c44.667 -30 77.334 -45 98.001 -45c27.333 0 50.666 6 69.999 18
s41 36 65 72z" />
    <glyph glyph-name="odieresis" unicode="&#xf6;" horiz-adv-x="1151" 
d="M1161 481c-22.667 -142 -91.332 -262.834 -205.999 -362.501s-243.334 -149.5 -386.001 -149.5c-126 0 -229.833 40.333 -311.5 121s-122.5 183 -122.5 307c0 13.333 0.5 27.166 1.5 41.499s2.5 28.5 4.5 42.5c22.667 142.667 90.5 262.334 203.5 359.001
s241.167 145 384.5 145c128 0 233 -39.667 315 -119s123 -180.333 123 -303c0 -13.333 -0.5 -26.666 -1.5 -39.999s-2.5 -27.333 -4.5 -42zM997.002 480.999c2 7.33301 3.16602 15.1689 3.49902 23.502s0.5 21.166 0.5 38.499c0 84.667 -27.5 153.5 -82.5 206.5
s-125.5 79.5 -211.5 79.5c-99.333 0 -187.166 -32.833 -263.499 -98.5s-122.5 -148.834 -138.5 -249.501c-1.33301 -7.33301 -2.33301 -15.166 -3 -23.499s-1 -20.833 -1 -37.5c0 -86.667 27.5 -157.167 82.5 -211.5s125.833 -81.5 212.5 -81.5c98 0 185.333 33.667 262 101
s123 151.666 139 252.999zM1067 1233c-4 -28 -16.834 -51.333 -38.501 -70s-46.5 -28 -74.5 -28c-24.667 0 -45.167 7.66699 -61.5 23s-24.5 35 -24.5 59c0 0.666992 0.333008 2.83398 1 6.50098s1 6.83398 1 9.50098c4 26 17.333 48.5 40 67.5s47.667 28.5 75 28.5
c24.667 0 44.834 -7.5 60.501 -22.5s23.5 -34.167 23.5 -57.5c0 -0.666992 -0.333008 -2.83398 -1 -6.50098s-1 -6.83398 -1 -9.50098zM673 1233c-4 -28 -16.834 -51.334 -38.501 -70.001s-46.167 -28 -73.5 -28c-24.667 0 -45.167 7.66699 -61.5 23s-24.5 35 -24.5 59
c0 1.33301 0.333008 3.83301 1 7.5s1 6.5 1 8.5c4 26 17.333 48.5 40 67.5s47.667 28.5 75 28.5c24.667 0 44.834 -7.5 60.501 -22.5s23.5 -34.167 23.5 -57.5c-0.666992 -1.33301 -1.16699 -3.66602 -1.5 -6.99902s-0.833008 -6.33301 -1.5 -9z" />
    <glyph glyph-name="divide" unicode="&#xf7;" 
d="M885 906c-5.33301 -31.333 -20.5 -57.667 -45.5 -79s-52.833 -32 -83.5 -32c-28 0 -50.667 8.66699 -68 26s-26 39.333 -26 66c0 2 0.333008 5.16699 1 9.5s1 7.16602 1 8.49902c4.66699 30.667 19.5 56.834 44.5 78.501s53.167 32.5 84.5 32.5
c27.333 0 49.833 -8.66699 67.5 -26s26.5 -39.333 26.5 -66c0 -2 -0.333008 -5 -1 -9s-1 -7 -1 -9zM1264 622.999l-21 -131h-1069l21 131h1069zM774 208.999c-5.33301 -30.667 -20.334 -56.834 -45.001 -78.501s-52 -32.5 -82 -32.5c-27.333 0 -50.166 9 -68.499 27
s-27.5 40.667 -27.5 68c0 2 0.333008 4.66699 1 8s1 6 1 8c5.33301 30.667 20.5 56.667 45.5 78s52.833 32 83.5 32c27.333 0 49.833 -8.66699 67.5 -26s26.5 -39.333 26.5 -66c0 -2 -0.333008 -5.16699 -1 -9.5s-1 -7.16602 -1 -8.49902z" />
    <glyph glyph-name="oslash" unicode="&#xf8;" horiz-adv-x="1151" 
d="M1229 924l-134.999 -117c24 -34.667 42.167 -72.834 54.5 -114.501s18.5 -85.5 18.5 -131.5c0 -13.333 -0.5 -26.666 -1.5 -39.999s-2.5 -26.666 -4.5 -39.999c-22.667 -142 -91.334 -262.833 -206.001 -362.5s-243.334 -149.5 -386.001 -149.5
c-60 0 -116.667 10.333 -170 31s-99.666 50 -138.999 88l-137 -119l-51 62l137 116c-24 36 -42.333 75.167 -55 117.5s-19 86.5 -19 132.5c0 13.333 0.5 27.166 1.5 41.499s2.5 28.5 4.5 42.5c22.667 142.667 90.5 262.334 203.5 359.001s241.167 145 384.5 145
c62.667 0 120.5 -9.83301 173.5 -29.5s99.5 -48.834 139.5 -87.501l138 117zM913.001 756c-26.667 24 -57.668 42.167 -93.001 54.5s-73 18.5 -113 18.5c-99.333 0 -187.166 -32.833 -263.499 -98.5s-122.5 -148.834 -138.5 -249.501c-2 -11.333 -3.5 -22.333 -4.5 -33
s-1.5 -20.667 -1.5 -30c0 -29.333 3.5 -57.166 10.5 -83.499s17.167 -50.5 30.5 -72.5zM997 481c2 11.333 3.50098 22.1699 4.50098 32.5029s1.83301 20.833 2.5 31.5c0 27.333 -3.33301 53.666 -10 78.999s-16.334 48.666 -29.001 69.999l-572 -493
c26.667 -24 57.167 -42.333 91.5 -55s71.5 -19 111.5 -19c98 0 185.333 33.667 262 101s123 151.666 139 252.999z" />
    <glyph glyph-name="ugrave" unicode="&#xf9;" horiz-adv-x="1049" 
d="M1057 956l-85.9971 -544c-24.667 -152.667 -73.334 -264.667 -146.001 -336s-174.334 -107 -305.001 -107c-110.667 0 -192.167 24.833 -244.5 74.5s-78.5 126.5 -78.5 230.5c0 20.667 1 42.334 3 65.001s5 47 9 73l86 544h164l-86 -538
c-4 -24.667 -6.66699 -45.167 -8 -61.5s-2.33301 -31.5 -3 -45.5c0 -64 14.167 -110.667 42.5 -140s75.166 -44 140.499 -44c78 0 136.667 22.667 176 68s67.333 119.666 84 222.999l86 538h166zM832.003 1135l-74 -66l-248 270l99 97z" />
    <glyph glyph-name="uacute" unicode="&#xfa;" horiz-adv-x="1049" 
d="M1057 956l-85.9971 -544c-24.667 -152.667 -73.334 -264.667 -146.001 -336s-174.334 -107 -305.001 -107c-110.667 0 -192.167 24.833 -244.5 74.5s-78.5 126.5 -78.5 230.5c0 20.667 1 42.334 3 65.001s5 47 9 73l86 544h164l-86 -538
c-4 -24.667 -6.66699 -45.167 -8 -61.5s-2.33301 -31.5 -3 -45.5c0 -64 14.167 -110.667 42.5 -140s75.166 -44 140.499 -44c78 0 136.667 22.667 176 68s67.333 119.666 84 222.999l86 538h166zM965.003 1339l-336 -270l-51 66l315 301z" />
    <glyph glyph-name="ucircumflex" unicode="&#xfb;" horiz-adv-x="1049" 
d="M1057 956l-85.9971 -544c-24.667 -152.667 -73.334 -264.667 -146.001 -336s-174.334 -107 -305.001 -107c-110.667 0 -192.167 24.833 -244.5 74.5s-78.5 126.5 -78.5 230.5c0 20.667 1 42.334 3 65.001s5 47 9 73l86 544h164l-86 -538
c-4 -24.667 -6.66699 -45.167 -8 -61.5s-2.33301 -31.5 -3 -45.5c0 -64 14.167 -110.667 42.5 -140s75.166 -44 140.499 -44c78 0 136.667 22.667 176 68s67.333 119.666 84 222.999l86 538h166zM989.003 1137l-67 -68l-197 201l-258 -201l-47 68l332 295z" />
    <glyph glyph-name="udieresis" unicode="&#xfc;" horiz-adv-x="1049" 
d="M1057 956l-85.9971 -544c-24.667 -152.667 -73.334 -264.667 -146.001 -336s-174.334 -107 -305.001 -107c-110.667 0 -192.167 24.833 -244.5 74.5s-78.5 126.5 -78.5 230.5c0 20.667 1 42.334 3 65.001s5 47 9 73l86 544h164l-86 -538
c-4 -24.667 -6.66699 -45.167 -8 -61.5s-2.33301 -31.5 -3 -45.5c0 -64 14.167 -110.667 42.5 -140s75.166 -44 140.499 -44c78 0 136.667 22.667 176 68s67.333 119.666 84 222.999l86 538h166zM1016 1233c-4 -28 -16.834 -51.333 -38.501 -70s-46.5 -28 -74.5 -28
c-24.667 0 -45.167 7.66699 -61.5 23s-24.5 35 -24.5 59c0 0.666992 0.333008 2.83398 1 6.50098s1 6.83398 1 9.50098c4 26 17.333 48.5 40 67.5s47.667 28.5 75 28.5c24.667 0 44.834 -7.5 60.501 -22.5s23.5 -34.167 23.5 -57.5
c0 -0.666992 -0.333008 -2.83398 -1 -6.50098s-1 -6.83398 -1 -9.50098zM622.002 1233c-4 -28 -16.834 -51.334 -38.501 -70.001s-46.167 -28 -73.5 -28c-24.667 0 -45.167 7.66699 -61.5 23s-24.5 35 -24.5 59c0 1.33301 0.333008 3.83301 1 7.5s1 6.5 1 8.5
c4 26 17.333 48.5 40 67.5s47.667 28.5 75 28.5c24.667 0 44.834 -7.5 60.501 -22.5s23.5 -34.167 23.5 -57.5c-0.666992 -1.33301 -1.16699 -3.66602 -1.5 -6.99902s-0.833008 -6.33301 -1.5 -9z" />
    <glyph glyph-name="yacute" unicode="&#xfd;" horiz-adv-x="1020" 
d="M1133 956l-857 -1488h-182l342 579l-264 909h178l199 -720l403 720h181zM950 1339l-336 -270l-51 66l315 301z" />
    <glyph glyph-name="thorn" unicode="&#xfe;" horiz-adv-x="1182" 
d="M1194 485c-24 -150.667 -86.834 -274.333 -188.501 -371s-219.167 -145 -352.5 -145c-79.333 0 -146 16 -200 48s-93 79 -117 141l-109 -690h-164l353 2222h164l-140 -879c42.667 56 95.667 99 159 129s133.333 45 210 45c118.667 0 213.834 -36.667 285.501 -110
s107.5 -170.333 107.5 -291c0 -18 -0.666992 -35 -2 -51s-3.33301 -32 -6 -48zM1026 483.001c2 12 3.49902 23.999 4.49902 35.999s1.5 24 1.5 36c0 84 -24.667 150.667 -74 200s-115.333 74 -198 74c-96 0 -177.667 -30.5 -245 -91.5s-109.333 -143.833 -126 -248.5
c-2 -13.333 -3.5 -26.166 -4.5 -38.499s-1.5 -23.833 -1.5 -34.5c0 -87.333 25.333 -157.333 76 -210s116.667 -79 198 -79c92 0 172.333 33 241 99s111.334 151.667 128.001 257z" />
    <glyph glyph-name="ydieresis" unicode="&#xff;" horiz-adv-x="1020" 
d="M1133 956l-857 -1488h-182l342 579l-264 909h178l199 -720l403 720h181zM1002 1233c-4 -28 -16.834 -51.333 -38.501 -70s-46.5 -28 -74.5 -28c-24.667 0 -45.167 7.66699 -61.5 23s-24.5 35 -24.5 59c0 0.666992 0.333008 2.83398 1 6.50098s1 6.83398 1 9.50098
c4 26 17.333 48.5 40 67.5s47.667 28.5 75 28.5c24.667 0 44.834 -7.5 60.501 -22.5s23.5 -34.167 23.5 -57.5c0 -0.666992 -0.333008 -2.83398 -1 -6.50098s-1 -6.83398 -1 -9.50098zM607.999 1233c-4 -28 -16.834 -51.334 -38.501 -70.001s-46.167 -28 -73.5 -28
c-24.667 0 -45.167 7.66699 -61.5 23s-24.5 35 -24.5 59c0 1.33301 0.333008 3.83301 1 7.5s1 6.5 1 8.5c4 26 17.333 48.5 40 67.5s47.667 28.5 75 28.5c24.667 0 44.834 -7.5 60.501 -22.5s23.5 -34.167 23.5 -57.5c-0.666992 -1.33301 -1.16699 -3.66602 -1.5 -6.99902
s-0.833008 -6.33301 -1.5 -9z" />
    <glyph glyph-name="Amacron" unicode="&#x100;" horiz-adv-x="1432" 
d="M1417 0h-190l-127 467h-641l-273 -467h-190l962 1587zM1061 614l-162 596l-350 -596h512zM1265 1872l-18 -117h-551l18 117h551z" />
    <glyph glyph-name="amacron" unicode="&#x101;" horiz-adv-x="1182" 
d="M1186 956l-152 -956h-164l25 158c-42.667 -62 -96 -109 -160 -141s-135.667 -48 -215 -48c-115.333 0 -208.333 37.667 -279 113s-106 175 -106 299c0 18.667 0.666992 36.667 2 54s3.33301 34 6 50c23.333 147.333 85.5 267.5 186.5 360.5s219.167 139.5 354.5 139.5
c76.667 0 142.167 -15 196.5 -45s93.833 -73 118.5 -129l23 145h164zM948 489c2 13.333 3.50098 26.168 4.50098 38.501s1.5 24.166 1.5 35.499c0 82.667 -24.167 147.667 -72.5 195s-114.166 71 -197.499 71c-95.333 0 -177.833 -31.5 -247.5 -94.5
s-112.834 -146.833 -129.501 -251.5c-2 -13.333 -3.5 -26.333 -4.5 -39s-1.5 -24.667 -1.5 -36c0 -85.333 24.167 -153.5 72.5 -204.5s112.166 -76.5 191.499 -76.5c94 0 177.167 33.833 249.5 101.5s116.833 154.5 133.5 260.5zM1028 1282l-18 -117h-551l18 117h551z" />
    <glyph glyph-name="Abreve" unicode="&#x102;" horiz-adv-x="1432" 
d="M1417 0h-190l-127 467h-641l-273 -467h-190l962 1587zM1061 614l-162 596l-350 -596h512zM1290 1931c-30 -83.333 -71.832 -145.333 -125.499 -186s-120.834 -61 -201.501 -61c-81.333 0 -143.333 21 -186 63s-64.667 103.333 -66 184l86 27
c4 -53.333 21.333 -93.333 52 -120s74 -40 130 -40s103.167 13.333 141.5 40s68.5 66.667 90.5 120z" />
    <glyph glyph-name="abreve" unicode="&#x103;" horiz-adv-x="1182" 
d="M1186 956l-152 -956h-164l25 158c-42.667 -62 -96 -109 -160 -141s-135.667 -48 -215 -48c-115.333 0 -208.333 37.667 -279 113s-106 175 -106 299c0 18.667 0.666992 36.667 2 54s3.33301 34 6 50c23.333 147.333 85.5 267.5 186.5 360.5s219.167 139.5 354.5 139.5
c76.667 0 142.167 -15 196.5 -45s93.833 -73 118.5 -129l23 145h164zM948 489c2 13.333 3.50098 26.168 4.50098 38.501s1.5 24.166 1.5 35.499c0 82.667 -24.167 147.667 -72.5 195s-114.166 71 -197.499 71c-95.333 0 -177.833 -31.5 -247.5 -94.5
s-112.834 -146.833 -129.501 -251.5c-2 -13.333 -3.5 -26.333 -4.5 -39s-1.5 -24.667 -1.5 -36c0 -85.333 24.167 -153.5 72.5 -204.5s112.166 -76.5 191.499 -76.5c94 0 177.167 33.833 249.5 101.5s116.833 154.5 133.5 260.5zM1052 1341
c-30 -83.333 -71.832 -145.333 -125.499 -186s-120.834 -61 -201.501 -61c-81.333 0 -143.333 21 -186 63s-64.667 103.333 -66 184l86 27c4 -53.333 21.333 -93.333 52 -120s74 -40 130 -40s103.167 13.333 141.5 40s68.5 66.667 90.5 120z" />
    <glyph glyph-name="Aogonek" unicode="&#x104;" horiz-adv-x="1432" 
d="M1417 0l-37.002 0.000976562c-42.667 -36.667 -78.5 -75.834 -107.5 -117.501s-46.167 -80.167 -51.5 -115.5c-0.666992 -3.33301 -1.16699 -7 -1.5 -11s-0.5 -9.33301 -0.5 -16c0 -30 11.167 -51.833 33.5 -65.5s58.833 -20.5 109.5 -20.5l-19 -115
c-90.667 0 -156 11.333 -196 34s-60 60 -60 112c0.666992 8.66699 2 22 4 40c0 2 0.333008 3.66699 1 5c6.66699 43.333 27.834 89.5 63.501 138.5s79.834 92.833 132.501 131.5h-61l-127 467h-641l-273 -467h-190l962 1587zM1061 614.001l-162 596l-350 -596h512z" />
    <glyph glyph-name="aogonek" unicode="&#x105;" horiz-adv-x="1182" 
d="M1186 956l-152.002 -955.999h-37c-42.667 -36.667 -78.5 -75.834 -107.5 -117.501s-46.167 -80.167 -51.5 -115.5c-0.666992 -3.33301 -1.16699 -7 -1.5 -11s-0.5 -9.33301 -0.5 -16c0 -30 11.333 -51.833 34 -65.5s59 -20.5 109 -20.5l-18 -115
c-91.333 0 -156.833 11.333 -196.5 34s-59.5 60 -59.5 112c0 8.66699 1 21.667 3 39c0 2.66699 0.333008 4.66699 1 6c6.66699 43.333 27.834 89.5 63.501 138.5s79.834 92.833 132.501 131.5h-35l25 158c-42.667 -62 -96 -109 -160 -141s-135.667 -48 -215 -48
c-115.333 0 -208.333 37.667 -279 113s-106 175 -106 299c0 18.667 0.666992 36.667 2 54s3.33301 34 6 50c23.333 147.333 85.5 267.5 186.5 360.5s219.167 139.5 354.5 139.5c76.667 0 142.167 -15 196.5 -45s93.833 -73 118.5 -129l23 145h164zM947.998 489.001
c2 13.333 3.50098 26.168 4.50098 38.501s1.5 24.166 1.5 35.499c0 82.667 -24.167 147.667 -72.5 195s-114.166 71 -197.499 71c-95.333 0 -177.833 -31.5 -247.5 -94.5s-112.834 -146.833 -129.501 -251.5c-2 -13.333 -3.5 -26.333 -4.5 -39s-1.5 -24.667 -1.5 -36
c0 -85.333 24.167 -153.5 72.5 -204.5s112.166 -76.5 191.499 -76.5c94 0 177.167 33.833 249.5 101.5s116.833 154.5 133.5 260.5z" />
    <glyph glyph-name="Cacute" unicode="&#x106;" horiz-adv-x="1468" 
d="M1614 1440l-31.001 -193.001c-55.333 52 -122.5 92.667 -201.5 122s-159.167 44 -240.5 44c-190.667 0 -359.667 -60.833 -507 -182.5s-235.666 -273.834 -264.999 -456.501c-2.66699 -17.333 -4.83398 -35.166 -6.50098 -53.499s-2.5 -37.166 -2.5 -56.499
c0 -157.333 51.5 -285.5 154.5 -384.5s235.167 -148.5 396.5 -148.5c90.667 0 183 14.833 277 44.5s176 70.167 246 121.5l-31 -197c-63.333 -36.667 -145 -67.667 -245 -93s-189 -38 -267 -38c-210.667 0 -381.167 61.167 -511.5 183.5s-195.5 282.5 -195.5 480.5
c0 22.667 1 45.667 3 69s5.33301 47.333 10 72c35.333 226.667 144.333 416.834 327 570.501s390.334 230.5 623.001 230.5c96.667 0 185.667 -11.833 267 -35.5s148 -56.834 200 -99.501zM1405 1929l-336 -270l-51 66l315 301z" />
    <glyph glyph-name="cacute" unicode="&#x107;" horiz-adv-x="975" 
d="M1022 920l-27.0029 -175.001c-33.333 26.667 -72.666 47.334 -117.999 62.001s-91.333 22 -138 22c-113.333 0 -209.666 -32.833 -288.999 -98.5s-127.666 -152.834 -144.999 -261.501c-1.33301 -7.33301 -2.33301 -15.166 -3 -23.499s-1 -20.166 -1 -35.499
c0 -86 29.833 -154.667 89.5 -206s139.167 -77 238.5 -77c52.667 0 104.5 7.5 155.5 22.5s96.833 36.167 137.5 63.5l-27 -174c-46 -23.333 -95.333 -40.833 -148 -52.5s-107.667 -17.5 -165 -17.5c-135.333 0 -244 38.167 -326 114.5s-123 176.833 -123 301.5
c0 10 0.5 21.167 1.5 33.5s3.16699 31.166 6.5 56.499c24 150 93.333 272.5 208 367.5s251 142.5 409 142.5c54.667 0 103.5 -5.33301 146.5 -16s82.167 -27 117.5 -49zM1014 1339l-336 -270l-51 66l315 301z" />
    <glyph glyph-name="Ccircumflex" unicode="&#x108;" horiz-adv-x="1468" 
d="M1614 1440l-31.001 -193.001c-55.333 52 -122.5 92.667 -201.5 122s-159.167 44 -240.5 44c-190.667 0 -359.667 -60.833 -507 -182.5s-235.666 -273.834 -264.999 -456.501c-2.66699 -17.333 -4.83398 -35.166 -6.50098 -53.499s-2.5 -37.166 -2.5 -56.499
c0 -157.333 51.5 -285.5 154.5 -384.5s235.167 -148.5 396.5 -148.5c90.667 0 183 14.833 277 44.5s176 70.167 246 121.5l-31 -197c-63.333 -36.667 -145 -67.667 -245 -93s-189 -38 -267 -38c-210.667 0 -381.167 61.167 -511.5 183.5s-195.5 282.5 -195.5 480.5
c0 22.667 1 45.667 3 69s5.33301 47.333 10 72c35.333 226.667 144.333 416.834 327 570.501s390.334 230.5 623.001 230.5c96.667 0 185.667 -11.833 267 -35.5s148 -56.834 200 -99.501zM1429 1727l-67 -68l-197 201l-258 -201l-47 68l332 295z" />
    <glyph glyph-name="ccircumflex" unicode="&#x109;" horiz-adv-x="975" 
d="M1022 920l-27.0029 -175.001c-33.333 26.667 -72.666 47.334 -117.999 62.001s-91.333 22 -138 22c-113.333 0 -209.666 -32.833 -288.999 -98.5s-127.666 -152.834 -144.999 -261.501c-1.33301 -7.33301 -2.33301 -15.166 -3 -23.499s-1 -20.166 -1 -35.499
c0 -86 29.833 -154.667 89.5 -206s139.167 -77 238.5 -77c52.667 0 104.5 7.5 155.5 22.5s96.833 36.167 137.5 63.5l-27 -174c-46 -23.333 -95.333 -40.833 -148 -52.5s-107.667 -17.5 -165 -17.5c-135.333 0 -244 38.167 -326 114.5s-123 176.833 -123 301.5
c0 10 0.5 21.167 1.5 33.5s3.16699 31.166 6.5 56.499c24 150 93.333 272.5 208 367.5s251 142.5 409 142.5c54.667 0 103.5 -5.33301 146.5 -16s82.167 -27 117.5 -49zM1038 1137l-67 -68l-197 201l-258 -201l-47 68l332 295z" />
    <glyph glyph-name="Cdot" unicode="&#x10a;" horiz-adv-x="1468" 
d="M1614 1440l-31.001 -193.001c-55.333 52 -122.5 92.667 -201.5 122s-159.167 44 -240.5 44c-190.667 0 -359.667 -60.833 -507 -182.5s-235.666 -273.834 -264.999 -456.501c-2.66699 -17.333 -4.83398 -35.166 -6.50098 -53.499s-2.5 -37.166 -2.5 -56.499
c0 -157.333 51.5 -285.5 154.5 -384.5s235.167 -148.5 396.5 -148.5c90.667 0 183 14.833 277 44.5s176 70.167 246 121.5l-31 -197c-63.333 -36.667 -145 -67.667 -245 -93s-189 -38 -267 -38c-210.667 0 -381.167 61.167 -511.5 183.5s-195.5 282.5 -195.5 480.5
c0 22.667 1 45.667 3 69s5.33301 47.333 10 72c35.333 226.667 144.333 416.834 327 570.501s390.334 230.5 623.001 230.5c96.667 0 185.667 -11.833 267 -35.5s148 -56.834 200 -99.501zM1264 1825c-4.66699 -28.667 -18.167 -52.8301 -40.5 -72.4971
s-47.833 -29.5 -76.5 -29.5c-25.333 0 -46.333 8 -63 24s-25 36.667 -25 62c0 2 0.333008 4.66699 1 8s1 6 1 8c4 27.333 17.5 50.833 40.5 70.5s48.5 29.5 76.5 29.5c25.333 0 46.333 -7.83301 63 -23.5s25 -35.834 25 -60.501c0 -0.666992 -0.333008 -2.83398 -1 -6.50098
s-1 -6.83398 -1 -9.50098z" />
    <glyph glyph-name="cdot" unicode="&#x10b;" horiz-adv-x="975" 
d="M1022 920l-27.0029 -175.001c-33.333 26.667 -72.666 47.334 -117.999 62.001s-91.333 22 -138 22c-113.333 0 -209.666 -32.833 -288.999 -98.5s-127.666 -152.834 -144.999 -261.501c-1.33301 -7.33301 -2.33301 -15.166 -3 -23.499s-1 -20.166 -1 -35.499
c0 -86 29.833 -154.667 89.5 -206s139.167 -77 238.5 -77c52.667 0 104.5 7.5 155.5 22.5s96.833 36.167 137.5 63.5l-27 -174c-46 -23.333 -95.333 -40.833 -148 -52.5s-107.667 -17.5 -165 -17.5c-135.333 0 -244 38.167 -326 114.5s-123 176.833 -123 301.5
c0 10 0.5 21.167 1.5 33.5s3.16699 31.166 6.5 56.499c24 150 93.333 272.5 208 367.5s251 142.5 409 142.5c54.667 0 103.5 -5.33301 146.5 -16s82.167 -27 117.5 -49zM872.997 1235c-4.66699 -28.667 -18.167 -52.8301 -40.5 -72.4971s-47.833 -29.5 -76.5 -29.5
c-25.333 0 -46.333 8 -63 24s-25 36.667 -25 62c0 2 0.333008 4.66699 1 8s1 6 1 8c4 27.333 17.5 50.833 40.5 70.5s48.5 29.5 76.5 29.5c25.333 0 46.333 -7.83301 63 -23.5s25 -35.834 25 -60.501c0 -0.666992 -0.333008 -2.83398 -1 -6.50098s-1 -6.83398 -1 -9.50098z
" />
    <glyph glyph-name="Ccaron" unicode="&#x10c;" horiz-adv-x="1468" 
d="M1614 1440l-31.001 -193.001c-55.333 52 -122.5 92.667 -201.5 122s-159.167 44 -240.5 44c-190.667 0 -359.667 -60.833 -507 -182.5s-235.666 -273.834 -264.999 -456.501c-2.66699 -17.333 -4.83398 -35.166 -6.50098 -53.499s-2.5 -37.166 -2.5 -56.499
c0 -157.333 51.5 -285.5 154.5 -384.5s235.167 -148.5 396.5 -148.5c90.667 0 183 14.833 277 44.5s176 70.167 246 121.5l-31 -197c-63.333 -36.667 -145 -67.667 -245 -93s-189 -38 -267 -38c-210.667 0 -381.167 61.167 -511.5 183.5s-195.5 282.5 -195.5 480.5
c0 22.667 1 45.667 3 69s5.33301 47.333 10 72c35.333 226.667 144.333 416.834 327 570.501s390.334 230.5 623.001 230.5c96.667 0 185.667 -11.833 267 -35.5s148 -56.834 200 -99.501zM1464 1944l-332 -297l-237 297l67 65l195 -200l260 200z" />
    <glyph glyph-name="ccaron" unicode="&#x10d;" horiz-adv-x="975" 
d="M1022 920l-27.0029 -175.001c-33.333 26.667 -72.666 47.334 -117.999 62.001s-91.333 22 -138 22c-113.333 0 -209.666 -32.833 -288.999 -98.5s-127.666 -152.834 -144.999 -261.501c-1.33301 -7.33301 -2.33301 -15.166 -3 -23.499s-1 -20.166 -1 -35.499
c0 -86 29.833 -154.667 89.5 -206s139.167 -77 238.5 -77c52.667 0 104.5 7.5 155.5 22.5s96.833 36.167 137.5 63.5l-27 -174c-46 -23.333 -95.333 -40.833 -148 -52.5s-107.667 -17.5 -165 -17.5c-135.333 0 -244 38.167 -326 114.5s-123 176.833 -123 301.5
c0 10 0.5 21.167 1.5 33.5s3.16699 31.166 6.5 56.499c24 150 93.333 272.5 208 367.5s251 142.5 409 142.5c54.667 0 103.5 -5.33301 146.5 -16s82.167 -27 117.5 -49zM1073 1354l-332 -297l-237 297l67 65l195 -200l260 200z" />
    <glyph glyph-name="Dcaron" unicode="&#x10e;" horiz-adv-x="1389" 
d="M1438 770c-40.667 -254 -144.168 -445.833 -310.501 -575.5s-391.166 -194.5 -674.499 -194.5h-293l243 1544h304c242 0 426.667 -52.333 554 -157s191 -255.667 191 -453c0 -22 -1.16699 -45.667 -3.5 -71s-5.83301 -56.333 -10.5 -93zM1266 772
c4 23.333 7.00098 46.333 9.00098 69s3 44.667 3 66c0 155.333 -49.333 273.333 -148 354s-243.334 121 -434.001 121h-145l-193 -1220h127c236 0 417 49.667 543 149s205.333 253 238 461zM1278 1944l-332 -297l-237 297l67 65l195 -200l260 200z" />
    <glyph glyph-name="dcaron" unicode="&#x10f;" horiz-adv-x="1774" 
d="M1303 1690l-269 -1690h-164l25 158c-42.667 -62 -96 -109 -160 -141s-135.667 -48 -215 -48c-115.333 0 -208.333 37.667 -279 113s-106 175 -106 299c0 18.667 0.666992 36.667 2 54s3.33301 34 6 50c23.333 147.333 85.5 267.5 186.5 360.5s219.167 139.5 354.5 139.5
c76.667 0 142.167 -15 196.5 -45s93.833 -73 118.5 -129l140 879h164zM948 489c2 13.333 3.50098 26.168 4.50098 38.501s1.5 24.166 1.5 35.499c0 82.667 -24.167 147.667 -72.5 195s-114.166 71 -197.499 71c-95.333 0 -177.833 -31.5 -247.5 -94.5
s-112.834 -146.833 -129.501 -251.5c-2 -13.333 -3.5 -26.333 -4.5 -39s-1.5 -24.667 -1.5 -36c0 -85.333 24.167 -153.5 72.5 -204.5s112.166 -76.5 191.499 -76.5c94 0 177.167 33.833 249.5 101.5s116.833 154.5 133.5 260.5zM1880 1505l-338 -516l-94 39l279 547z" />
    <glyph glyph-name="Dslash" unicode="&#x110;" horiz-adv-x="1389" 
d="M1438 770c-40.667 -254 -144.168 -445.833 -310.501 -575.5s-391.166 -194.5 -674.499 -194.5h-293l112 717h-159l22 139h160l108 688h304c242 0 426.667 -52.333 554 -157s191 -255.667 191 -453c0 -22 -1.16699 -45.667 -3.5 -71s-5.83301 -56.333 -10.5 -93zM1266 772
c4 23.333 7.00098 46.333 9.00098 69s3 44.667 3 66c0 155.333 -49.333 273.333 -148 354s-243.334 121 -434.001 121h-145l-84 -526h389l-22 -139h-390l-86 -555h127c236 0 417 49.667 543 149s205.333 253 238 461z" />
    <glyph glyph-name="dcroat" unicode="&#x111;" horiz-adv-x="1182" 
d="M1399 1380l-21 -129h-145l-199 -1251h-164l25 158c-42.667 -62 -96 -109 -160 -141s-135.667 -48 -215 -48c-115.333 0 -208.333 37.667 -279 113s-106 175 -106 299c0 18.667 0.666992 36.667 2 54s3.33301 34 6 50c23.333 147.333 85.5 267.5 186.5 360.5
s219.167 139.5 354.5 139.5c76.667 0 142.167 -15 196.5 -45s93.833 -73 118.5 -129l70 440h-391l20 129h392l49 310h164l-50 -310h146zM948 489c2 13.333 3.50098 26.168 4.50098 38.501s1.5 24.166 1.5 35.499c0 82.667 -24.167 147.667 -72.5 195
s-114.166 71 -197.499 71c-95.333 0 -177.833 -31.5 -247.5 -94.5s-112.834 -146.833 -129.501 -251.5c-2 -13.333 -3.5 -26.333 -4.5 -39s-1.5 -24.667 -1.5 -36c0 -85.333 24.167 -153.5 72.5 -204.5s112.166 -76.5 191.499 -76.5c94 0 177.167 33.833 249.5 101.5
s116.833 154.5 133.5 260.5z" />
    <glyph glyph-name="Emacron" unicode="&#x112;" horiz-adv-x="1094" 
d="M1186 1544l-25 -162h-610l-74 -469h610l-26 -161h-610l-93 -590h611l-27 -162h-782l243 1544h783zM1102 1872l-18 -117h-551l18 117h551z" />
    <glyph glyph-name="emacron" unicode="&#x113;" horiz-adv-x="1063" 
d="M1077 510l-8.00195 -57.001l-768 -1c-0.666992 -6 -1.16699 -13 -1.5 -21s-0.5 -19.333 -0.5 -34c0 -86.667 22.833 -153.334 68.5 -200.001s110.167 -70 193.5 -70c70.667 0 132.834 13.833 186.501 41.5s98.834 69.167 135.501 124.5l125 -72
c-58 -83.333 -126.5 -146.166 -205.5 -188.499s-168.167 -63.5 -267.5 -63.5c-125.333 0 -223.666 36.167 -294.999 108.5s-107 171.5 -107 297.5c0 20 0.666992 39 2 57s3.33301 35 6 51c22.667 144 87 263.667 193 359s225.333 143 358 143
c119.333 0 214.666 -34.5 285.999 -103.5s107 -161.5 107 -277.5c0 -19.333 -2.33301 -48.666 -7 -87.999zM923.998 568.999l0.000976562 22.999c0 74.667 -22.667 132.834 -68 174.501s-108 62.5 -188 62.5c-80.667 0 -152.834 -23.5 -216.501 -70.5
s-106.167 -110.167 -127.5 -189.5h600zM1009 1282l-18 -117h-551l18 117h551z" />
    <glyph glyph-name="Ebreve" unicode="&#x114;" horiz-adv-x="1094" 
d="M1186 1544l-25 -162h-610l-74 -469h610l-26 -161h-610l-93 -590h611l-27 -162h-782l243 1544h783zM1126 1931c-30 -83.333 -71.832 -145.333 -125.499 -186s-120.834 -61 -201.501 -61c-81.333 0 -143.333 21 -186 63s-64.667 103.333 -66 184l86 27
c4 -53.333 21.333 -93.333 52 -120s74 -40 130 -40s103.167 13.333 141.5 40s68.5 66.667 90.5 120z" />
    <glyph glyph-name="ebreve" unicode="&#x115;" horiz-adv-x="1063" 
d="M1077 510l-8.00195 -57.001l-768 -1c-0.666992 -6 -1.16699 -13 -1.5 -21s-0.5 -19.333 -0.5 -34c0 -86.667 22.833 -153.334 68.5 -200.001s110.167 -70 193.5 -70c70.667 0 132.834 13.833 186.501 41.5s98.834 69.167 135.501 124.5l125 -72
c-58 -83.333 -126.5 -146.166 -205.5 -188.499s-168.167 -63.5 -267.5 -63.5c-125.333 0 -223.666 36.167 -294.999 108.5s-107 171.5 -107 297.5c0 20 0.666992 39 2 57s3.33301 35 6 51c22.667 144 87 263.667 193 359s225.333 143 358 143
c119.333 0 214.666 -34.5 285.999 -103.5s107 -161.5 107 -277.5c0 -19.333 -2.33301 -48.666 -7 -87.999zM923.998 568.999l0.000976562 22.999c0 74.667 -22.667 132.834 -68 174.501s-108 62.5 -188 62.5c-80.667 0 -152.834 -23.5 -216.501 -70.5
s-106.167 -110.167 -127.5 -189.5h600zM1034 1341c-30 -83.333 -71.832 -145.333 -125.499 -186s-120.834 -61 -201.501 -61c-81.333 0 -143.333 21 -186 63s-64.667 103.333 -66 184l86 27c4 -53.333 21.333 -93.333 52 -120s74 -40 130 -40s103.167 13.333 141.5 40
s68.5 66.667 90.5 120z" />
    <glyph glyph-name="Edot" unicode="&#x116;" horiz-adv-x="1094" 
d="M1186 1544l-25 -162h-610l-74 -469h610l-26 -161h-610l-93 -590h611l-27 -162h-782l243 1544h783zM922 1825c-4.66699 -28.667 -18.167 -52.8301 -40.5 -72.4971s-47.833 -29.5 -76.5 -29.5c-25.333 0 -46.333 8 -63 24s-25 36.667 -25 62c0 2 0.333008 4.66699 1 8
s1 6 1 8c4 27.333 17.5 50.833 40.5 70.5s48.5 29.5 76.5 29.5c25.333 0 46.333 -7.83301 63 -23.5s25 -35.834 25 -60.501c0 -0.666992 -0.333008 -2.83398 -1 -6.50098s-1 -6.83398 -1 -9.50098z" />
    <glyph glyph-name="edot" unicode="&#x117;" horiz-adv-x="1063" 
d="M1077 510l-8.00195 -57.001l-768 -1c-0.666992 -6 -1.16699 -13 -1.5 -21s-0.5 -19.333 -0.5 -34c0 -86.667 22.833 -153.334 68.5 -200.001s110.167 -70 193.5 -70c70.667 0 132.834 13.833 186.501 41.5s98.834 69.167 135.501 124.5l125 -72
c-58 -83.333 -126.5 -146.166 -205.5 -188.499s-168.167 -63.5 -267.5 -63.5c-125.333 0 -223.666 36.167 -294.999 108.5s-107 171.5 -107 297.5c0 20 0.666992 39 2 57s3.33301 35 6 51c22.667 144 87 263.667 193 359s225.333 143 358 143
c119.333 0 214.666 -34.5 285.999 -103.5s107 -161.5 107 -277.5c0 -19.333 -2.33301 -48.666 -7 -87.999zM923.998 568.999l0.000976562 22.999c0 74.667 -22.667 132.834 -68 174.501s-108 62.5 -188 62.5c-80.667 0 -152.834 -23.5 -216.501 -70.5
s-106.167 -110.167 -127.5 -189.5h600zM831.999 1235c-4.66699 -28.667 -18.167 -52.8301 -40.5 -72.4971s-47.833 -29.5 -76.5 -29.5c-25.333 0 -46.333 8 -63 24s-25 36.667 -25 62c0 2 0.333008 4.66699 1 8s1 6 1 8c4 27.333 17.5 50.833 40.5 70.5s48.5 29.5 76.5 29.5
c25.333 0 46.333 -7.83301 63 -23.5s25 -35.834 25 -60.501c0 -0.666992 -0.333008 -2.83398 -1 -6.50098s-1 -6.83398 -1 -9.50098z" />
    <glyph glyph-name="Eogonek" unicode="&#x118;" horiz-adv-x="1094" 
d="M1186 1544l-24.999 -161.998h-610l-74 -469h610l-26 -161h-610l-93 -590h611l-27 -162h-37c-42.667 -36.667 -78.5 -75.834 -107.5 -117.501s-46.5 -80.5 -52.5 -116.5c-0.666992 -3.33301 -1.16699 -6.83301 -1.5 -10.5s-0.5 -8.83398 -0.5 -15.501
c0 -30 11.333 -51.833 34 -65.5s59.334 -20.5 110.001 -20.5l-19 -115c-90.667 0 -156 11.333 -196 34s-60 60 -60 112c0 8 1.33301 21.333 4 40v5c7.33301 43.333 28.666 89.5 63.999 138.5s79.666 92.833 132.999 131.5h-653l243 1544h783z" />
    <glyph glyph-name="eogonek" unicode="&#x119;" horiz-adv-x="1063" 
d="M1077 510l-8.00195 -57l-768 -1c-0.666992 -6 -1.16699 -13 -1.5 -21s-0.5 -19.333 -0.5 -34c0 -86.667 22.833 -153.334 68.5 -200.001s110.167 -70 193.5 -70c70.667 0 132.834 13.833 186.501 41.5s98.834 69.167 135.501 124.5l125 -72
c-45.333 -65.333 -96.833 -118 -154.5 -158s-121.5 -67 -191.5 -81c-38.667 -35.333 -70.334 -72 -95.001 -110s-39.667 -73.333 -45 -106c-0.666992 -3.33301 -1.16699 -6.83301 -1.5 -10.5s-0.5 -8.83398 -0.5 -15.501c0 -30 11.333 -51.833 34 -65.5
s59.334 -20.5 110.001 -20.5l-19 -115c-91.333 0 -156.833 11.333 -196.5 34s-59.5 60 -59.5 112c0 8 1.33301 21.333 4 40v5c6 36.667 23 75.834 51 117.501s64.333 82.167 109 121.5h-18c-125.333 0 -223.666 36.167 -294.999 108.5s-107 171.5 -107 297.5
c0 20 0.666992 39 2 57s3.33301 35 6 51c22.667 144 87 263.667 193 359s225.333 143 358 143c119.333 0 214.666 -34.5 285.999 -103.5s107 -161.5 107 -277.5c0 -19.333 -2.33301 -48.666 -7 -87.999zM923.998 569l0.000976562 22.999
c0 74.667 -22.667 132.834 -68 174.501s-108 62.5 -188 62.5c-80.667 0 -152.834 -23.5 -216.501 -70.5s-106.167 -110.167 -127.5 -189.5h600z" />
    <glyph glyph-name="Ecaron" unicode="&#x11a;" horiz-adv-x="1094" 
d="M1186 1544l-25 -162h-610l-74 -469h610l-26 -161h-610l-93 -590h611l-27 -162h-782l243 1544h783zM1122 1944l-332 -297l-237 297l67 65l195 -200l260 200z" />
    <glyph glyph-name="ecaron" unicode="&#x11b;" horiz-adv-x="1063" 
d="M1077 510l-8.00195 -57.001l-768 -1c-0.666992 -6 -1.16699 -13 -1.5 -21s-0.5 -19.333 -0.5 -34c0 -86.667 22.833 -153.334 68.5 -200.001s110.167 -70 193.5 -70c70.667 0 132.834 13.833 186.501 41.5s98.834 69.167 135.501 124.5l125 -72
c-58 -83.333 -126.5 -146.166 -205.5 -188.499s-168.167 -63.5 -267.5 -63.5c-125.333 0 -223.666 36.167 -294.999 108.5s-107 171.5 -107 297.5c0 20 0.666992 39 2 57s3.33301 35 6 51c22.667 144 87 263.667 193 359s225.333 143 358 143
c119.333 0 214.666 -34.5 285.999 -103.5s107 -161.5 107 -277.5c0 -19.333 -2.33301 -48.666 -7 -87.999zM923.998 568.999l0.000976562 22.999c0 74.667 -22.667 132.834 -68 174.501s-108 62.5 -188 62.5c-80.667 0 -152.834 -23.5 -216.501 -70.5
s-106.167 -110.167 -127.5 -189.5h600zM1032 1354l-332 -297l-237 297l67 65l195 -200l260 200z" />
    <glyph glyph-name="Gcircumflex" unicode="&#x11c;" horiz-adv-x="1679" 
d="M1731 782c-39.333 -246.667 -137.835 -443.832 -295.502 -591.499s-352.167 -221.5 -583.5 -221.5c-199.333 0 -360.5 60.667 -483.5 182s-184.5 280 -184.5 476c0 22.667 1 46 3 70s5.33301 49 10 75c36.667 229.333 140.667 420.5 312 573.5
s367.666 229.5 588.999 229.5c142 0 262.833 -26.5 362.5 -79.5s176.834 -131.5 231.501 -235.5l-146 -103c-42.667 82.667 -104.167 146 -184.5 190s-174.5 66 -282.5 66c-176 0 -331.167 -61.5 -465.5 -184.5s-216.5 -278.5 -246.5 -466.5
c-3.33301 -16.667 -5.66602 -34 -6.99902 -52s-2 -37 -2 -57c0 -152 48.333 -277 145 -375s221.334 -147 374.001 -147s289 46.667 409 140s196.667 210.666 230 351.999h-484l27 159h672zM1388 1727l-67 -68l-197 201l-258 -201l-47 68l332 295z" />
    <glyph glyph-name="gcircumflex" unicode="&#x11d;" horiz-adv-x="1188" 
d="M1186 956l-160 -1007c-27.333 -170.667 -86.666 -297 -177.999 -379s-218.333 -123 -381 -123c-126.667 0 -223.834 26.833 -291.501 80.5s-101.5 129.834 -101.5 228.501v8h170c2 -53.333 24 -93.5 66 -120.5s103.333 -40.5 184 -40.5c111.333 0 195.5 26.333 252.5 79
s94.833 136.667 113.5 252l35 224c-42.667 -62 -96 -109 -160 -141s-135.667 -48 -215 -48c-115.333 0 -208.333 37.667 -279 113s-106 175 -106 299c0 18.667 0.666992 36.667 2 54s3.33301 34 6 50c23.333 147.333 85.5 267.5 186.5 360.5s219.167 139.5 354.5 139.5
c76.667 0 142.167 -15 196.5 -45s93.833 -73 118.5 -129l23 145h164zM948 488.999c2 13.333 3.50098 26.168 4.50098 38.501s1.5 24.166 1.5 35.499c0 82.667 -24.167 147.667 -72.5 195s-114.166 71 -197.499 71c-95.333 0 -177.833 -31.5 -247.5 -94.5
s-112.834 -146.833 -129.501 -251.5c-2 -13.333 -3.5 -26.333 -4.5 -39s-1.5 -24.667 -1.5 -36c0 -85.333 24.167 -153.5 72.5 -204.5s112.166 -76.5 191.499 -76.5c94 0 177.167 33.833 249.5 101.5s116.833 154.5 133.5 260.5zM1059 1137l-67 -68l-197 201l-258 -201
l-47 68l332 295z" />
    <glyph glyph-name="Gbreve" unicode="&#x11e;" horiz-adv-x="1679" 
d="M1731 782c-39.333 -246.667 -137.835 -443.832 -295.502 -591.499s-352.167 -221.5 -583.5 -221.5c-199.333 0 -360.5 60.667 -483.5 182s-184.5 280 -184.5 476c0 22.667 1 46 3 70s5.33301 49 10 75c36.667 229.333 140.667 420.5 312 573.5
s367.666 229.5 588.999 229.5c142 0 262.833 -26.5 362.5 -79.5s176.834 -131.5 231.501 -235.5l-146 -103c-42.667 82.667 -104.167 146 -184.5 190s-174.5 66 -282.5 66c-176 0 -331.167 -61.5 -465.5 -184.5s-216.5 -278.5 -246.5 -466.5
c-3.33301 -16.667 -5.66602 -34 -6.99902 -52s-2 -37 -2 -57c0 -152 48.333 -277 145 -375s221.334 -147 374.001 -147s289 46.667 409 140s196.667 210.666 230 351.999h-484l27 159h672zM1425 1931c-30 -83.333 -71.832 -145.333 -125.499 -186s-120.834 -61 -201.501 -61
c-81.333 0 -143.333 21 -186 63s-64.667 103.333 -66 184l86 27c4 -53.333 21.333 -93.333 52 -120s74 -40 130 -40s103.167 13.333 141.5 40s68.5 66.667 90.5 120z" />
    <glyph glyph-name="gbreve" unicode="&#x11f;" horiz-adv-x="1188" 
d="M1186 956l-160 -1007c-27.333 -170.667 -86.666 -297 -177.999 -379s-218.333 -123 -381 -123c-126.667 0 -223.834 26.833 -291.501 80.5s-101.5 129.834 -101.5 228.501v8h170c2 -53.333 24 -93.5 66 -120.5s103.333 -40.5 184 -40.5c111.333 0 195.5 26.333 252.5 79
s94.833 136.667 113.5 252l35 224c-42.667 -62 -96 -109 -160 -141s-135.667 -48 -215 -48c-115.333 0 -208.333 37.667 -279 113s-106 175 -106 299c0 18.667 0.666992 36.667 2 54s3.33301 34 6 50c23.333 147.333 85.5 267.5 186.5 360.5s219.167 139.5 354.5 139.5
c76.667 0 142.167 -15 196.5 -45s93.833 -73 118.5 -129l23 145h164zM948 488.999c2 13.333 3.50098 26.168 4.50098 38.501s1.5 24.166 1.5 35.499c0 82.667 -24.167 147.667 -72.5 195s-114.166 71 -197.499 71c-95.333 0 -177.833 -31.5 -247.5 -94.5
s-112.834 -146.833 -129.501 -251.5c-2 -13.333 -3.5 -26.333 -4.5 -39s-1.5 -24.667 -1.5 -36c0 -85.333 24.167 -153.5 72.5 -204.5s112.166 -76.5 191.499 -76.5c94 0 177.167 33.833 249.5 101.5s116.833 154.5 133.5 260.5zM1097 1341
c-30 -83.333 -71.832 -145.333 -125.499 -186s-120.834 -61 -201.501 -61c-81.333 0 -143.333 21 -186 63s-64.667 103.333 -66 184l86 27c4 -53.333 21.333 -93.333 52 -120s74 -40 130 -40s103.167 13.333 141.5 40s68.5 66.667 90.5 120z" />
    <glyph glyph-name="Gdot" unicode="&#x120;" horiz-adv-x="1679" 
d="M1731 782c-39.333 -246.667 -137.835 -443.832 -295.502 -591.499s-352.167 -221.5 -583.5 -221.5c-199.333 0 -360.5 60.667 -483.5 182s-184.5 280 -184.5 476c0 22.667 1 46 3 70s5.33301 49 10 75c36.667 229.333 140.667 420.5 312 573.5
s367.666 229.5 588.999 229.5c142 0 262.833 -26.5 362.5 -79.5s176.834 -131.5 231.501 -235.5l-146 -103c-42.667 82.667 -104.167 146 -184.5 190s-174.5 66 -282.5 66c-176 0 -331.167 -61.5 -465.5 -184.5s-216.5 -278.5 -246.5 -466.5
c-3.33301 -16.667 -5.66602 -34 -6.99902 -52s-2 -37 -2 -57c0 -152 48.333 -277 145 -375s221.334 -147 374.001 -147s289 46.667 409 140s196.667 210.666 230 351.999h-484l27 159h672zM1223 1825c-4.66699 -28.667 -18.167 -52.8301 -40.5 -72.4971
s-47.833 -29.5 -76.5 -29.5c-25.333 0 -46.333 8 -63 24s-25 36.667 -25 62c0 2 0.333008 4.66699 1 8s1 6 1 8c4 27.333 17.5 50.833 40.5 70.5s48.5 29.5 76.5 29.5c25.333 0 46.333 -7.83301 63 -23.5s25 -35.834 25 -60.501c0 -0.666992 -0.333008 -2.83398 -1 -6.50098
s-1 -6.83398 -1 -9.50098z" />
    <glyph glyph-name="gdot" unicode="&#x121;" horiz-adv-x="1188" 
d="M1186 956l-160 -1007c-27.333 -170.667 -86.666 -297 -177.999 -379s-218.333 -123 -381 -123c-126.667 0 -223.834 26.833 -291.501 80.5s-101.5 129.834 -101.5 228.501v8h170c2 -53.333 24 -93.5 66 -120.5s103.333 -40.5 184 -40.5c111.333 0 195.5 26.333 252.5 79
s94.833 136.667 113.5 252l35 224c-42.667 -62 -96 -109 -160 -141s-135.667 -48 -215 -48c-115.333 0 -208.333 37.667 -279 113s-106 175 -106 299c0 18.667 0.666992 36.667 2 54s3.33301 34 6 50c23.333 147.333 85.5 267.5 186.5 360.5s219.167 139.5 354.5 139.5
c76.667 0 142.167 -15 196.5 -45s93.833 -73 118.5 -129l23 145h164zM948 488.999c2 13.333 3.50098 26.168 4.50098 38.501s1.5 24.166 1.5 35.499c0 82.667 -24.167 147.667 -72.5 195s-114.166 71 -197.499 71c-95.333 0 -177.833 -31.5 -247.5 -94.5
s-112.834 -146.833 -129.501 -251.5c-2 -13.333 -3.5 -26.333 -4.5 -39s-1.5 -24.667 -1.5 -36c0 -85.333 24.167 -153.5 72.5 -204.5s112.166 -76.5 191.499 -76.5c94 0 177.167 33.833 249.5 101.5s116.833 154.5 133.5 260.5zM893.001 1235
c-4.66699 -28.667 -18.167 -52.8301 -40.5 -72.4971s-47.833 -29.5 -76.5 -29.5c-25.333 0 -46.333 8 -63 24s-25 36.667 -25 62c0 2 0.333008 4.66699 1 8s1 6 1 8c4 27.333 17.5 50.833 40.5 70.5s48.5 29.5 76.5 29.5c25.333 0 46.333 -7.83301 63 -23.5
s25 -35.834 25 -60.501c0 -0.666992 -0.333008 -2.83398 -1 -6.50098s-1 -6.83398 -1 -9.50098z" />
    <glyph glyph-name="Gcedilla" unicode="&#x122;" horiz-adv-x="1679" 
d="M1731 782c-39.333 -246.667 -137.835 -443.832 -295.502 -591.499s-352.167 -221.5 -583.5 -221.5c-199.333 0 -360.5 60.667 -483.5 182s-184.5 280 -184.5 476c0 22.667 1 46 3 70s5.33301 49 10 75c36.667 229.333 140.667 420.5 312 573.5
s367.666 229.5 588.999 229.5c142 0 262.833 -26.5 362.5 -79.5s176.834 -131.5 231.501 -235.5l-146 -103c-42.667 82.667 -104.167 146 -184.5 190s-174.5 66 -282.5 66c-176 0 -331.167 -61.5 -465.5 -184.5s-216.5 -278.5 -246.5 -466.5
c-3.33301 -16.667 -5.66602 -34 -6.99902 -52s-2 -37 -2 -57c0 -152 48.333 -277 145 -375s221.334 -147 374.001 -147s289 46.667 409 140s196.667 210.666 230 351.999h-484l27 159h672zM953.998 -101.998l-276 -320l-70 53l250 338z" />
    <glyph glyph-name="gcedilla" unicode="&#x123;" horiz-adv-x="1188" 
d="M1186 956l-160 -1007c-27.333 -170.667 -86.666 -297 -177.999 -379s-218.333 -123 -381 -123c-126.667 0 -223.834 26.833 -291.501 80.5s-101.5 129.834 -101.5 228.501v8h170c2 -53.333 24 -93.5 66 -120.5s103.333 -40.5 184 -40.5c111.333 0 195.5 26.333 252.5 79
s94.833 136.667 113.5 252l35 224c-42.667 -62 -96 -109 -160 -141s-135.667 -48 -215 -48c-115.333 0 -208.333 37.667 -279 113s-106 175 -106 299c0 18.667 0.666992 36.667 2 54s3.33301 34 6 50c23.333 147.333 85.5 267.5 186.5 360.5s219.167 139.5 354.5 139.5
c76.667 0 142.167 -15 196.5 -45s93.833 -73 118.5 -129l23 145h164zM948 488.999c2 13.333 3.50098 26.168 4.50098 38.501s1.5 24.166 1.5 35.499c0 82.667 -24.167 147.667 -72.5 195s-114.166 71 -197.499 71c-95.333 0 -177.833 -31.5 -247.5 -94.5
s-112.834 -146.833 -129.501 -251.5c-2 -13.333 -3.5 -26.333 -4.5 -39s-1.5 -24.667 -1.5 -36c0 -85.333 24.167 -153.5 72.5 -204.5s112.166 -76.5 191.499 -76.5c94 0 177.167 33.833 249.5 101.5s116.833 154.5 133.5 260.5zM1034 1339l-336 -270l-51 66l315 301z" />
    <glyph glyph-name="Hcircumflex" unicode="&#x124;" horiz-adv-x="1462" 
d="M1546 1544l-243 -1544h-173l119 750h-798l-119 -750h-172l243 1544h172l-100 -633h799l100 633h172zM1280 1727l-67 -68l-197 201l-258 -201l-47 68l332 295z" />
    <glyph glyph-name="hcircumflex" unicode="&#x125;" horiz-adv-x="1081" 
d="M1036 616l-98 -616h-164l90 571c2.66699 14.667 4.66699 29.5 6 44.5s2 30.5 2 46.5c0 60.667 -13.833 105.5 -41.5 134.5s-71.167 43.5 -130.5 43.5c-82 0 -149.833 -32.5 -203.5 -97.5s-90.167 -159.5 -109.5 -283.5l-72 -459h-163l268 1690h164l-140 -875
c38 56.667 84.833 99.167 140.5 127.5s120.167 42.5 193.5 42.5c84 0 149.333 -24 196 -72s70 -116 70 -204c0 -16.667 -0.666992 -32.667 -2 -48s-3.33301 -30.333 -6 -45zM815 1842l-67 -68l-197 201l-258 -201l-47 68l332 295z" />
    <glyph glyph-name="Itilde" unicode="&#x128;" horiz-adv-x="489" 
d="M575 1544l-243 -1544h-172l243 1544h172zM865 1862c-31.333 -53.333 -65.501 -92.998 -102.501 -118.998s-77.5 -39 -121.5 -39c-21.333 0 -43.166 4.16699 -65.499 12.5s-47.166 21.833 -74.499 40.5l-13 9c-48 34 -83.667 51 -107 51
c-26 0 -48.167 -5.83301 -66.5 -17.5s-39.833 -35.834 -64.5 -72.501l-67 45c31.333 52.667 64.666 91.667 99.999 117s75 38 119 38c22 0 44.667 -4.16699 68 -12.5s48.333 -21.833 75 -40.5c4.66699 -2.66699 11.667 -7.33398 21 -14.001
c44.667 -30 77.334 -45 98.001 -45c27.333 0 50.666 6 69.999 18s41 36 65 72z" />
    <glyph glyph-name="itilde" unicode="&#x129;" horiz-adv-x="537" 
d="M502 956l-152 -956h-164l152 956h164zM805 1272c-31.333 -53.333 -65.501 -92.998 -102.501 -118.998s-77.5 -39 -121.5 -39c-21.333 0 -43.166 4.16699 -65.499 12.5s-47.166 21.833 -74.499 40.5l-13 9c-48 34 -83.667 51 -107 51c-26 0 -48.167 -5.83301 -66.5 -17.5
s-39.833 -35.834 -64.5 -72.501l-67 45c31.333 52.667 64.666 91.667 99.999 117s75 38 119 38c22 0 44.667 -4.16699 68 -12.5s48.333 -21.833 75 -40.5c4.66699 -2.66699 11.667 -7.33398 21 -14.001c44.667 -30 77.334 -45 98.001 -45c27.333 0 50.666 6 69.999 18
s41 36 65 72z" />
    <glyph glyph-name="Imacron" unicode="&#x12a;" horiz-adv-x="489" 
d="M575 1544l-243 -1544h-172l243 1544h172zM809 1872l-18 -117h-551l18 117h551z" />
    <glyph glyph-name="imacron" unicode="&#x12b;" horiz-adv-x="537" 
d="M502 956l-152 -956h-164l152 956h164zM749 1282l-18 -117h-551l18 117h551z" />
    <glyph glyph-name="Ibreve" unicode="&#x12c;" horiz-adv-x="489" 
d="M575 1544l-243 -1544h-172l243 1544h172zM833 1931c-30 -83.333 -71.832 -145.333 -125.499 -186s-120.834 -61 -201.501 -61c-81.333 0 -143.333 21 -186 63s-64.667 103.333 -66 184l86 27c4 -53.333 21.333 -93.333 52 -120s74 -40 130 -40s103.167 13.333 141.5 40
s68.5 66.667 90.5 120z" />
    <glyph glyph-name="ibreve" unicode="&#x12d;" horiz-adv-x="537" 
d="M502 956l-152 -956h-164l152 956h164zM774 1341c-30 -83.333 -71.832 -145.333 -125.499 -186s-120.834 -61 -201.501 -61c-81.333 0 -143.333 21 -186 63s-64.667 103.333 -66 184l86 27c4 -53.333 21.333 -93.333 52 -120s74 -40 130 -40s103.167 13.333 141.5 40
s68.5 66.667 90.5 120z" />
    <glyph glyph-name="Iogonek" unicode="&#x12e;" horiz-adv-x="489" 
d="M575 1544l-243.001 -1544h-37c-43.333 -36.667 -79.333 -75.834 -108 -117.501s-46 -80.5 -52 -116.5c-0.666992 -3.33301 -1.16699 -6.83301 -1.5 -10.5s-0.5 -8.83398 -0.5 -15.501c0 -30 11.333 -51.833 34 -65.5s59 -20.5 109 -20.5l-18 -115
c-91.333 0 -156.833 11.333 -196.5 34s-59.5 60 -59.5 112c0 8 1 21 3 39c0.666992 2.66699 1 4.66699 1 6c6.66699 43.333 27.834 89.5 63.501 138.5s80.167 92.833 133.5 131.5h-43l243 1544h172z" />
    <glyph glyph-name="iogonek" unicode="&#x12f;" horiz-adv-x="537" 
d="M592 1333c-5.33301 -30.667 -20.832 -56.999 -46.499 -78.999s-53.834 -33 -84.501 -33c-27.333 0 -50.166 9 -68.499 27s-27.5 40.333 -27.5 67c0 2 0.333008 5.16699 1 9.5s1 7.16602 1 8.49902c4.66699 30.667 20 57.167 46 79.5s54.333 33.5 85 33.5
c27.333 0 50.166 -9 68.499 -27s27.5 -40.333 27.5 -67c0 -2 -0.333008 -5 -1 -9s-1 -7.33301 -1 -10zM502.001 956.001l-152.002 -955.999h-37c-42.667 -36.667 -78.5 -75.834 -107.5 -117.501s-46.167 -80.167 -51.5 -115.5c-0.666992 -3.33301 -1.16699 -7 -1.5 -11
s-0.5 -9.33301 -0.5 -16c0 -30 11.167 -51.833 33.5 -65.5s58.833 -20.5 109.5 -20.5l-19 -115c-90.667 0 -156 11.333 -196 34s-60 60 -60 112c0.666992 8.66699 2 22 4 40c0 2 0.333008 3.66699 1 5c6.66699 43.333 27.834 89.5 63.501 138.5s79.834 92.833 132.501 131.5
h-35l152 956h164z" />
    <glyph glyph-name="Idotaccent" unicode="&#x130;" horiz-adv-x="489" 
d="M575 1544l-243 -1544h-172l243 1544h172zM629 1825c-4.66699 -28.667 -18.167 -52.8301 -40.5 -72.4971s-47.833 -29.5 -76.5 -29.5c-25.333 0 -46.333 8 -63 24s-25 36.667 -25 62c0 2 0.333008 4.66699 1 8s1 6 1 8c4 27.333 17.5 50.833 40.5 70.5
s48.5 29.5 76.5 29.5c25.333 0 46.333 -7.83301 63 -23.5s25 -35.834 25 -60.501c0 -0.666992 -0.333008 -2.83398 -1 -6.50098s-1 -6.83398 -1 -9.50098z" />
    <glyph glyph-name="dotlessi" unicode="&#x131;" horiz-adv-x="537" 
d="M502 956l-152 -956h-164l152 956h164z" />
    <glyph glyph-name="Kcedilla" unicode="&#x136;" horiz-adv-x="1251" 
d="M1442 1544l-793 -727l578 -817h-219l-549 799l-127 -799h-172l243 1544h172l-112 -723l772 723h207zM739 -102l-276 -320l-70 53l250 338z" />
    <glyph glyph-name="kcedilla" unicode="&#x137;" horiz-adv-x="963" 
d="M1071 956l-498 -432l383 -524h-202l-359 504l-80 -504h-163l268 1690h164l-185 -1160l478 426h194zM596 -102l-276 -320l-70 53l250 338z" />
    <glyph glyph-name="Lacute" unicode="&#x139;" horiz-adv-x="768" 
d="M768 158l-25 -158h-583l243 1544h172l-219 -1386h412zM758 1929l-336 -270l-51 66l315 301z" />
    <glyph glyph-name="lacute" unicode="&#x13a;" horiz-adv-x="465" 
d="M584 1690l-269 -1690h-163l268 1690h164zM789 2044l-336 -270l-51 66l315 301z" />
    <glyph glyph-name="Lcedilla" unicode="&#x13b;" horiz-adv-x="768" 
d="M768 158l-25 -158h-583l243 1544h172l-219 -1386h412zM497 -102l-276 -320l-70 53l250 338z" />
    <glyph glyph-name="lcedilla" unicode="&#x13c;" horiz-adv-x="465" 
d="M584 1690l-269 -1690h-163l268 1690h164zM348 -102l-276 -320l-70 53l250 338z" />
    <glyph glyph-name="Lcaron" unicode="&#x13d;" horiz-adv-x="768" 
d="M1047 1505l-338 -516l-95 39l279 547zM768 158l-25 -158h-583l243 1544h172l-219 -1386h412z" />
    <glyph glyph-name="lcaron" unicode="&#x13e;" horiz-adv-x="793" 
d="M1030 1505l-338 -516l-94 39l279 547zM584 1690l-269 -1690h-163l268 1690h164z" />
    <glyph glyph-name="Ldot" unicode="&#x13f;" horiz-adv-x="1399" 
d="M768 158l-25 -158h-583l243 1544h172l-219 -1386h412zM1313 788c-5.33301 -32.667 -21.333 -60.501 -48 -83.501s-56.334 -34.5 -89.001 -34.5c-29.333 0 -53.833 9.66699 -73.5 29s-29.5 43 -29.5 71c0 2 0.333008 5 1 9s1 7 1 9
c5.33301 32.667 21.333 60.334 48 83.001s56.334 34 89.001 34c30 0 54.667 -9.16699 74 -27.5s29 -41.833 29 -70.5c0 -2 -0.333008 -5 -1 -9s-1 -7.33301 -1 -10z" />
    <glyph glyph-name="ldot" unicode="&#x140;" horiz-adv-x="1096" 
d="M584 1690l-269 -1690h-163l268 1690h164zM1010 788c-5.33301 -32.667 -21.333 -60.501 -48 -83.501s-56.334 -34.5 -89.001 -34.5c-29.333 0 -53.833 9.66699 -73.5 29s-29.5 43 -29.5 71c0 2 0.333008 5 1 9s1 7 1 9c5.33301 32.667 21.333 60.334 48 83.001
s56.334 34 89.001 34c30 0 54.667 -9.16699 74 -27.5s29 -41.833 29 -70.5c0 -2 -0.333008 -5 -1 -9s-1 -7.33301 -1 -10z" />
    <glyph glyph-name="Lslash" unicode="&#x141;" horiz-adv-x="768" 
d="M782 961l-333 -222l-93 -581h412l-25 -158h-583l102 645l-119 -78l-57 107l201 133l116 737h172l-100 -643l250 166z" />
    <glyph glyph-name="lslash" unicode="&#x142;" horiz-adv-x="528" 
d="M684 862l-223 -133l-115 -729h-164l101 639l-152 -90l-47 100l223 137l144 904h163l-129 -811l150 90z" />
    <glyph glyph-name="Nacute" unicode="&#x143;" horiz-adv-x="1708" 
d="M1782 1544l-250 -1587l-1004 1217l-186 -1174h-172l252 1587l1003 -1214l185 1171h172zM1348 1929l-336 -270l-51 66l315 301z" />
    <glyph glyph-name="nacute" unicode="&#x144;" horiz-adv-x="1081" 
d="M1036 616l-98 -616h-164l90 571c2.66699 14.667 4.66699 29.5 6 44.5s2 30.5 2 46.5c0 60.667 -13.833 105.5 -41.5 134.5s-71.167 43.5 -130.5 43.5c-82 0 -149.833 -32.5 -203.5 -97.5s-90.167 -159.5 -109.5 -283.5l-72 -459h-163l151 956h164l-23 -141
c38 56.667 84.833 99.167 140.5 127.5s120.167 42.5 193.5 42.5c84 0 149.333 -24 196 -72s70 -116 70 -204c0 -16.667 -0.666992 -32.667 -2 -48s-3.33301 -30.333 -6 -45zM981 1339l-336 -270l-51 66l315 301z" />
    <glyph glyph-name="Ncedilla" unicode="&#x145;" horiz-adv-x="1708" 
d="M1782 1544l-250 -1587l-1004 1217l-186 -1174h-172l252 1587l1003 -1214l185 1171h172zM968 -102l-276 -320l-70 53l250 338z" />
    <glyph glyph-name="ncedilla" unicode="&#x146;" horiz-adv-x="1081" 
d="M1036 616l-98 -616h-164l90 571c2.66699 14.667 4.66699 29.5 6 44.5s2 30.5 2 46.5c0 60.667 -13.833 105.5 -41.5 134.5s-71.167 43.5 -130.5 43.5c-82 0 -149.833 -32.5 -203.5 -97.5s-90.167 -159.5 -109.5 -283.5l-72 -459h-163l151 956h164l-23 -141
c38 56.667 84.833 99.167 140.5 127.5s120.167 42.5 193.5 42.5c84 0 149.333 -24 196 -72s70 -116 70 -204c0 -16.667 -0.666992 -32.667 -2 -48s-3.33301 -30.333 -6 -45zM655 -102l-276 -320l-70 53l250 338z" />
    <glyph glyph-name="Ncaron" unicode="&#x147;" horiz-adv-x="1708" 
d="M1782 1544l-250 -1587l-1004 1217l-186 -1174h-172l252 1587l1003 -1214l185 1171h172zM1407 1944l-332 -297l-237 297l67 65l195 -200l260 200z" />
    <glyph glyph-name="ncaron" unicode="&#x148;" horiz-adv-x="1081" 
d="M1036 616l-98 -616h-164l90 571c2.66699 14.667 4.66699 29.5 6 44.5s2 30.5 2 46.5c0 60.667 -13.833 105.5 -41.5 134.5s-71.167 43.5 -130.5 43.5c-82 0 -149.833 -32.5 -203.5 -97.5s-90.167 -159.5 -109.5 -283.5l-72 -459h-163l151 956h164l-23 -141
c38 56.667 84.833 99.167 140.5 127.5s120.167 42.5 193.5 42.5c84 0 149.333 -24 196 -72s70 -116 70 -204c0 -16.667 -0.666992 -32.667 -2 -48s-3.33301 -30.333 -6 -45zM1040 1354l-332 -297l-237 297l67 65l195 -200l260 200z" />
    <glyph glyph-name="Omacron" unicode="&#x14c;" horiz-adv-x="1765" 
d="M1815 773c-36 -226.667 -144.169 -417.332 -324.502 -571.999s-384.166 -232 -611.499 -232c-203.333 0 -369.666 63.167 -498.999 189.5s-194 287.166 -194 482.499c0 18.667 0.833008 38.667 2.5 60s4.5 45.333 8.5 72c35.333 228 142.5 418.667 321.5 572
s383.833 230 614.5 230c204.667 0 371.167 -62.167 499.5 -186.5s192.5 -284.833 192.5 -481.5c0 -26 -0.833008 -49.833 -2.5 -71.5s-4.16699 -42.5 -7.5 -62.5zM1642 772.002c3.33301 16.667 5.66895 33.667 7.00195 51s2 36 2 56c0 156 -50.667 284 -152 384
s-232.333 150 -393 150c-190.667 0 -353.834 -62.5 -489.501 -187.5s-217.5 -276.167 -245.5 -453.5c-2.66699 -16.667 -4.83398 -34 -6.50098 -52s-2.5 -36.667 -2.5 -56c0 -156.667 50 -284.667 150 -384s230.333 -149 391 -149c181.333 0 343 61.833 485 185.5
s226.667 275.5 254 455.5zM1448 1872l-18 -117h-551l18 117h551z" />
    <glyph glyph-name="omacron" unicode="&#x14d;" horiz-adv-x="1151" 
d="M1161 481c-22.667 -142 -91.332 -262.834 -205.999 -362.501s-243.334 -149.5 -386.001 -149.5c-126 0 -229.833 40.333 -311.5 121s-122.5 183 -122.5 307c0 13.333 0.5 27.166 1.5 41.499s2.5 28.5 4.5 42.5c22.667 142.667 90.5 262.334 203.5 359.001
s241.167 145 384.5 145c128 0 233 -39.667 315 -119s123 -180.333 123 -303c0 -13.333 -0.5 -26.666 -1.5 -39.999s-2.5 -27.333 -4.5 -42zM997.002 480.999c2 7.33301 3.16602 15.1689 3.49902 23.502s0.5 21.166 0.5 38.499c0 84.667 -27.5 153.5 -82.5 206.5
s-125.5 79.5 -211.5 79.5c-99.333 0 -187.166 -32.833 -263.499 -98.5s-122.5 -148.834 -138.5 -249.501c-1.33301 -7.33301 -2.33301 -15.166 -3 -23.499s-1 -20.833 -1 -37.5c0 -86.667 27.5 -157.167 82.5 -211.5s125.833 -81.5 212.5 -81.5c98 0 185.333 33.667 262 101
s123 151.666 139 252.999zM1055 1282l-18 -117h-551l18 117h551z" />
    <glyph glyph-name="Obreve" unicode="&#x14e;" horiz-adv-x="1765" 
d="M1815 773c-36 -226.667 -144.169 -417.332 -324.502 -571.999s-384.166 -232 -611.499 -232c-203.333 0 -369.666 63.167 -498.999 189.5s-194 287.166 -194 482.499c0 18.667 0.833008 38.667 2.5 60s4.5 45.333 8.5 72c35.333 228 142.5 418.667 321.5 572
s383.833 230 614.5 230c204.667 0 371.167 -62.167 499.5 -186.5s192.5 -284.833 192.5 -481.5c0 -26 -0.833008 -49.833 -2.5 -71.5s-4.16699 -42.5 -7.5 -62.5zM1642 772.002c3.33301 16.667 5.66895 33.667 7.00195 51s2 36 2 56c0 156 -50.667 284 -152 384
s-232.333 150 -393 150c-190.667 0 -353.834 -62.5 -489.501 -187.5s-217.5 -276.167 -245.5 -453.5c-2.66699 -16.667 -4.83398 -34 -6.50098 -52s-2.5 -36.667 -2.5 -56c0 -156.667 50 -284.667 150 -384s230.333 -149 391 -149c181.333 0 343 61.833 485 185.5
s226.667 275.5 254 455.5zM1472 1931c-30 -83.333 -71.832 -145.333 -125.499 -186s-120.834 -61 -201.501 -61c-81.333 0 -143.333 21 -186 63s-64.667 103.333 -66 184l86 27c4 -53.333 21.333 -93.333 52 -120s74 -40 130 -40s103.167 13.333 141.5 40
s68.5 66.667 90.5 120z" />
    <glyph glyph-name="obreve" unicode="&#x14f;" horiz-adv-x="1151" 
d="M1161 481c-22.667 -142 -91.332 -262.834 -205.999 -362.501s-243.334 -149.5 -386.001 -149.5c-126 0 -229.833 40.333 -311.5 121s-122.5 183 -122.5 307c0 13.333 0.5 27.166 1.5 41.499s2.5 28.5 4.5 42.5c22.667 142.667 90.5 262.334 203.5 359.001
s241.167 145 384.5 145c128 0 233 -39.667 315 -119s123 -180.333 123 -303c0 -13.333 -0.5 -26.666 -1.5 -39.999s-2.5 -27.333 -4.5 -42zM997.002 480.999c2 7.33301 3.16602 15.1689 3.49902 23.502s0.5 21.166 0.5 38.499c0 84.667 -27.5 153.5 -82.5 206.5
s-125.5 79.5 -211.5 79.5c-99.333 0 -187.166 -32.833 -263.499 -98.5s-122.5 -148.834 -138.5 -249.501c-1.33301 -7.33301 -2.33301 -15.166 -3 -23.499s-1 -20.833 -1 -37.5c0 -86.667 27.5 -157.167 82.5 -211.5s125.833 -81.5 212.5 -81.5c98 0 185.333 33.667 262 101
s123 151.666 139 252.999zM1079 1341c-30 -83.333 -71.832 -145.333 -125.499 -186s-120.834 -61 -201.501 -61c-81.333 0 -143.333 21 -186 63s-64.667 103.333 -66 184l86 27c4 -53.333 21.333 -93.333 52 -120s74 -40 130 -40s103.167 13.333 141.5 40
s68.5 66.667 90.5 120z" />
    <glyph glyph-name="Odblacute" unicode="&#x150;" horiz-adv-x="1765" 
d="M1815 773c-36 -226.667 -144.169 -417.332 -324.502 -571.999s-384.166 -232 -611.499 -232c-203.333 0 -369.666 63.167 -498.999 189.5s-194 287.166 -194 482.499c0 18.667 0.833008 38.667 2.5 60s4.5 45.333 8.5 72c35.333 228 142.5 418.667 321.5 572
s383.833 230 614.5 230c204.667 0 371.167 -62.167 499.5 -186.5s192.5 -284.833 192.5 -481.5c0 -26 -0.833008 -49.833 -2.5 -71.5s-4.16699 -42.5 -7.5 -62.5zM1642 772.002c3.33301 16.667 5.66895 33.667 7.00195 51s2 36 2 56c0 156 -50.667 284 -152 384
s-232.333 150 -393 150c-190.667 0 -353.834 -62.5 -489.501 -187.5s-217.5 -276.167 -245.5 -453.5c-2.66699 -16.667 -4.83398 -34 -6.50098 -52s-2.5 -36.667 -2.5 -56c0 -156.667 50 -284.667 150 -384s230.333 -149 391 -149c181.333 0 343 61.833 485 185.5
s226.667 275.5 254 455.5zM1498 1946l-287 -287l-60 57l263 310zM1250 1960l-264 -301l-70 47l238 320z" />
    <glyph glyph-name="odblacute" unicode="&#x151;" horiz-adv-x="1151" 
d="M1161 481c-22.667 -142 -91.332 -262.834 -205.999 -362.501s-243.334 -149.5 -386.001 -149.5c-126 0 -229.833 40.333 -311.5 121s-122.5 183 -122.5 307c0 13.333 0.5 27.166 1.5 41.499s2.5 28.5 4.5 42.5c22.667 142.667 90.5 262.334 203.5 359.001
s241.167 145 384.5 145c128 0 233 -39.667 315 -119s123 -180.333 123 -303c0 -13.333 -0.5 -26.666 -1.5 -39.999s-2.5 -27.333 -4.5 -42zM997.002 480.999c2 7.33301 3.16602 15.1689 3.49902 23.502s0.5 21.166 0.5 38.499c0 84.667 -27.5 153.5 -82.5 206.5
s-125.5 79.5 -211.5 79.5c-99.333 0 -187.166 -32.833 -263.499 -98.5s-122.5 -148.834 -138.5 -249.501c-1.33301 -7.33301 -2.33301 -15.166 -3 -23.499s-1 -20.833 -1 -37.5c0 -86.667 27.5 -157.167 82.5 -211.5s125.833 -81.5 212.5 -81.5c98 0 185.333 33.667 262 101
s123 151.666 139 252.999zM1104 1356l-287 -287l-60 57l263 310zM856.001 1370l-264 -301l-70 47l238 320z" />
    <glyph glyph-name="OE" unicode="&#x152;" horiz-adv-x="2437" 
d="M2529 1544l-23.999 -162h-611l-73 -469h610l-27 -161h-610l-92 -590h610l-26 -162h-783l49 307c-84 -108 -185.167 -191.333 -303.5 -250s-244.5 -88 -378.5 -88c-201.333 0 -365.666 62.5 -492.999 187.5s-191 285.167 -191 480.5c0 26.667 0.833008 51 2.5 73
s4.5 43 8.5 63c36 228.667 142.167 419.5 318.5 572.5s379.166 229.5 608.499 229.5c135.333 0 252.666 -28.667 351.999 -86s174 -139.333 224 -246l47 301h782zM1626 772c2.66699 16.667 4.66797 34.165 6.00098 52.498s2 37.833 2 58.5c0 156 -49.5 283.333 -148.5 382
s-228.167 148 -387.5 148c-190 0 -351.5 -62 -484.5 -186s-213.833 -275.667 -242.5 -455c-2.66699 -17.333 -4.83398 -35.166 -6.50098 -53.499s-2.5 -38.166 -2.5 -59.499c0 -156 49 -283 147 -381s226.667 -147 386 -147c180 0 339.833 61.5 479.5 184.5
s223.5 275.167 251.5 456.5z" />
    <glyph glyph-name="oe" unicode="&#x153;" horiz-adv-x="1925" 
d="M1931 509l-7.99805 -55.998l-760 -1c-0.666992 -6 -1.16699 -13 -1.5 -21s-0.5 -19.333 -0.5 -34c0 -86.667 22.833 -153.334 68.5 -200.001s110.167 -70 193.5 -70c69.333 0 129.666 13.667 180.999 41s95.666 69 132.999 125l125 -72
c-58.667 -84.667 -126.334 -147.834 -203.001 -189.501s-164 -62.5 -262 -62.5c-94 0 -172.333 21.833 -235 65.5s-104.667 105.834 -126 186.501c-54 -78.667 -121.5 -140.334 -202.5 -185.001s-167.167 -67 -258.5 -67c-125.333 0 -229 40.333 -311 121s-123 183 -123 307
c0 13.333 0.5 27.166 1.5 41.499s2.5 28.5 4.5 42.5c22.667 142.667 90.5 262.334 203.5 359.001s241.167 145 384.5 145c93.333 0 174.333 -22.333 243 -67s116.667 -105.667 144 -183c48.667 78.667 111 140 187 184s157 66 243 66
c118.667 0 212.834 -34.167 282.501 -102.5s104.5 -160.5 104.5 -276.5c0 -11.333 -0.5 -23.5 -1.5 -36.5s-3.16699 -33.167 -6.5 -60.5zM1778 569.002l-0.000976562 25c0 75.333 -21.833 133.333 -65.5 174s-105.167 61 -184.5 61s-150.666 -23.667 -213.999 -71
s-106 -110.333 -128 -189h592zM1004 481.002c1.33301 7.33301 2.33105 15.1689 2.99805 23.502s1 21.166 1 38.499c0 84.667 -27.667 153.5 -83 206.5s-126 79.5 -212 79.5c-99.333 0 -187.166 -32.833 -263.499 -98.5s-122.5 -148.834 -138.5 -249.501
c-1.33301 -7.33301 -2.33301 -15.166 -3 -23.499s-1 -20.833 -1 -37.5c0 -86.667 27.5 -157.167 82.5 -211.5s125.833 -81.5 212.5 -81.5c98 0 185.333 33.667 262 101s123.334 151.666 140.001 252.999z" />
    <glyph glyph-name="Racute" unicode="&#x154;" horiz-adv-x="1110" 
d="M1165 1128c-18.667 -119.333 -70.167 -213.834 -154.5 -283.501s-192.5 -106.167 -324.5 -109.5l379 -735h-209l-358 729h-52l-114 -729h-172l243 1544h322c146.667 0 257.667 -28.333 333 -85s113 -139.667 113 -249c0 -13.333 -0.5 -26.666 -1.5 -39.999
s-2.5 -27.333 -4.5 -42zM993 1122c1.33301 7.33301 2.33203 15 2.99902 23s1 19.667 1 35c0 69.333 -25.167 120.333 -75.5 153s-129.5 49 -237.5 49h-133l-80 -505h133c122.667 0 214.834 19.333 276.501 58s99.167 101 112.5 187zM1079 1929l-336 -270l-51 66l315 301z
" />
    <glyph glyph-name="racute" unicode="&#x155;" horiz-adv-x="686" 
d="M836 967l-65.998 -162.001c-10 7.33301 -21.833 12.833 -35.5 16.5s-28.5 5.5 -44.5 5.5c-80.667 0 -146.834 -34.5 -198.501 -103.5s-88.5 -172.167 -110.5 -309.5l-66 -414h-163l151 956h164l-27 -168c33.333 68.667 74.5 118.667 123.5 150s110.5 47 184.5 47
c17.333 0 34.166 -1.66699 50.499 -5s28.833 -7.66602 37.5 -12.999zM786.002 1339l-336 -270l-51 66l315 301z" />
    <glyph glyph-name="Rcedilla" unicode="&#x156;" horiz-adv-x="1110" 
d="M1165 1128c-18.667 -119.333 -70.167 -213.834 -154.5 -283.501s-192.5 -106.167 -324.5 -109.5l379 -735h-209l-358 729h-52l-114 -729h-172l243 1544h322c146.667 0 257.667 -28.333 333 -85s113 -139.667 113 -249c0 -13.333 -0.5 -26.666 -1.5 -39.999
s-2.5 -27.333 -4.5 -42zM993 1122c1.33301 7.33301 2.33203 15 2.99902 23s1 19.667 1 35c0 69.333 -25.167 120.333 -75.5 153s-129.5 49 -237.5 49h-133l-80 -505h133c122.667 0 214.834 19.333 276.501 58s99.167 101 112.5 187zM668.999 -102.001l-276 -320l-70 53
l250 338z" />
    <glyph glyph-name="rcedilla" unicode="&#x157;" horiz-adv-x="686" 
d="M836 967l-65.998 -162.001c-10 7.33301 -21.833 12.833 -35.5 16.5s-28.5 5.5 -44.5 5.5c-80.667 0 -146.834 -34.5 -198.501 -103.5s-88.5 -172.167 -110.5 -309.5l-66 -414h-163l151 956h164l-27 -168c33.333 68.667 74.5 118.667 123.5 150s110.5 47 184.5 47
c17.333 0 34.166 -1.66699 50.499 -5s28.833 -7.66602 37.5 -12.999zM352.002 -102.001l-276 -320l-70 53l250 338z" />
    <glyph glyph-name="Rcaron" unicode="&#x158;" horiz-adv-x="1110" 
d="M1165 1128c-18.667 -119.333 -70.167 -213.834 -154.5 -283.501s-192.5 -106.167 -324.5 -109.5l379 -735h-209l-358 729h-52l-114 -729h-172l243 1544h322c146.667 0 257.667 -28.333 333 -85s113 -139.667 113 -249c0 -13.333 -0.5 -26.666 -1.5 -39.999
s-2.5 -27.333 -4.5 -42zM993 1122c1.33301 7.33301 2.33203 15 2.99902 23s1 19.667 1 35c0 69.333 -25.167 120.333 -75.5 153s-129.5 49 -237.5 49h-133l-80 -505h133c122.667 0 214.834 19.333 276.501 58s99.167 101 112.5 187zM1139 1944l-332 -297l-237 297l67 65
l195 -200l260 200z" />
    <glyph glyph-name="rcaron" unicode="&#x159;" horiz-adv-x="686" 
d="M836 967l-65.998 -162.001c-10 7.33301 -21.833 12.833 -35.5 16.5s-28.5 5.5 -44.5 5.5c-80.667 0 -146.834 -34.5 -198.501 -103.5s-88.5 -172.167 -110.5 -309.5l-66 -414h-163l151 956h164l-27 -168c33.333 68.667 74.5 118.667 123.5 150s110.5 47 184.5 47
c17.333 0 34.166 -1.66699 50.499 -5s28.833 -7.66602 37.5 -12.999zM846.002 1354l-332 -297l-237 297l67 65l195 -200l260 200z" />
    <glyph glyph-name="Sacute" unicode="&#x15a;" horiz-adv-x="1145" 
d="M1149 1393l-135.001 -109.002c-17.333 41.333 -45.5 73.166 -84.5 95.499s-85.167 33.5 -138.5 33.5c-75.333 0 -137.666 -19 -186.999 -57s-79.333 -89.333 -90 -154c0 -1.33301 -0.333008 -3.33301 -1 -6c-2 -17.333 -3 -30.333 -3 -39c0 -44 14 -83.167 42 -117.5
s82.333 -75.833 163 -124.5l11 -6c236.667 -140 355 -280.667 355 -422c0 -12 -0.5 -24.333 -1.5 -37s-2.5 -25.667 -4.5 -39c-21.333 -136.667 -80.833 -244.5 -178.5 -323.5s-220.5 -118.5 -368.5 -118.5c-102 0 -187.667 23.333 -257 70
s-114.666 111.334 -135.999 194.001l139 105c14 -64.667 46.5 -115.334 97.5 -152.001s113.5 -55 187.5 -55c94 0 171 24 231 72s97 115.667 111 203c0 0.666992 0.333008 2.33398 1 5.00098c2 17.333 3 31.333 3 42c0 56.667 -21 108.334 -63 155.001
s-110.333 95.334 -205 146.001c-110.667 58.667 -188.834 115.334 -234.501 170.001s-68.5 118.667 -68.5 192c0 12.667 0.5 25.5 1.5 38.5s2.5 26.167 4.5 39.5c18 113.333 71.5 205.166 160.5 275.499s197.167 105.5 324.5 105.5c78 0 144 -15.333 198 -46
s96 -76 126 -136zM1096 1929l-336 -270l-51 66l315 301z" />
    <glyph glyph-name="sacute" unicode="&#x15b;" horiz-adv-x="817" 
d="M825 805l-146.998 -82.001c-12 40.667 -29.833 70.334 -53.5 89.001s-55.167 28 -94.5 28c-46 0 -83.667 -10.5 -113 -31.5s-47 -49.833 -53 -86.5c-0.666992 -2.66699 -1.16699 -5.5 -1.5 -8.5s-0.5 -7.5 -0.5 -13.5c0 -30 12.333 -55.833 37 -77.5
s67 -42.834 127 -63.501c89.333 -30.667 154 -65.834 194 -105.501s60 -88.5 60 -146.5c0 -6 -0.166992 -12.167 -0.5 -18.5s-1.5 -16.5 -3.5 -30.5c-14 -88 -57 -158.167 -129 -210.5s-163.333 -78.5 -274 -78.5c-83.333 0 -151.5 17 -204.5 51s-87.167 82.667 -102.5 146
l153 88c12 -46 33.333 -80.333 64 -103s71.667 -34 123 -34c55.333 0 101.5 11.667 138.5 35s58.833 55 65.5 95c0.666992 4.66699 1.16699 9.33398 1.5 14.001s0.5 11.334 0.5 20.001c0 29.333 -14 54.666 -42 75.999s-79.333 46.333 -154 75
c-72.667 28 -126.667 62.167 -162 102.5s-53 87.5 -53 141.5c0 5.33301 0.166992 10.833 0.5 16.5s1.5 14.5 3.5 26.5c13.333 82.667 51 147.667 113 195s142.333 71 241 71c71.333 0 128.666 -14.667 171.999 -44s74.666 -74.666 93.999 -135.999zM850.002 1339l-336 -270
l-51 66l315 301z" />
    <glyph glyph-name="Scircumflex" unicode="&#x15c;" horiz-adv-x="1145" 
d="M1149 1393l-135.001 -109.002c-17.333 41.333 -45.5 73.166 -84.5 95.499s-85.167 33.5 -138.5 33.5c-75.333 0 -137.666 -19 -186.999 -57s-79.333 -89.333 -90 -154c0 -1.33301 -0.333008 -3.33301 -1 -6c-2 -17.333 -3 -30.333 -3 -39c0 -44 14 -83.167 42 -117.5
s82.333 -75.833 163 -124.5l11 -6c236.667 -140 355 -280.667 355 -422c0 -12 -0.5 -24.333 -1.5 -37s-2.5 -25.667 -4.5 -39c-21.333 -136.667 -80.833 -244.5 -178.5 -323.5s-220.5 -118.5 -368.5 -118.5c-102 0 -187.667 23.333 -257 70
s-114.666 111.334 -135.999 194.001l139 105c14 -64.667 46.5 -115.334 97.5 -152.001s113.5 -55 187.5 -55c94 0 171 24 231 72s97 115.667 111 203c0 0.666992 0.333008 2.33398 1 5.00098c2 17.333 3 31.333 3 42c0 56.667 -21 108.334 -63 155.001
s-110.333 95.334 -205 146.001c-110.667 58.667 -188.834 115.334 -234.501 170.001s-68.5 118.667 -68.5 192c0 12.667 0.5 25.5 1.5 38.5s2.5 26.167 4.5 39.5c18 113.333 71.5 205.166 160.5 275.499s197.167 105.5 324.5 105.5c78 0 144 -15.333 198 -46
s96 -76 126 -136zM1120 1727l-67 -68l-197 201l-258 -201l-47 68l332 295z" />
    <glyph glyph-name="scircumflex" unicode="&#x15d;" horiz-adv-x="817" 
d="M825 805l-146.998 -82.001c-12 40.667 -29.833 70.334 -53.5 89.001s-55.167 28 -94.5 28c-46 0 -83.667 -10.5 -113 -31.5s-47 -49.833 -53 -86.5c-0.666992 -2.66699 -1.16699 -5.5 -1.5 -8.5s-0.5 -7.5 -0.5 -13.5c0 -30 12.333 -55.833 37 -77.5
s67 -42.834 127 -63.501c89.333 -30.667 154 -65.834 194 -105.501s60 -88.5 60 -146.5c0 -6 -0.166992 -12.167 -0.5 -18.5s-1.5 -16.5 -3.5 -30.5c-14 -88 -57 -158.167 -129 -210.5s-163.333 -78.5 -274 -78.5c-83.333 0 -151.5 17 -204.5 51s-87.167 82.667 -102.5 146
l153 88c12 -46 33.333 -80.333 64 -103s71.667 -34 123 -34c55.333 0 101.5 11.667 138.5 35s58.833 55 65.5 95c0.666992 4.66699 1.16699 9.33398 1.5 14.001s0.5 11.334 0.5 20.001c0 29.333 -14 54.666 -42 75.999s-79.333 46.333 -154 75
c-72.667 28 -126.667 62.167 -162 102.5s-53 87.5 -53 141.5c0 5.33301 0.166992 10.833 0.5 16.5s1.5 14.5 3.5 26.5c13.333 82.667 51 147.667 113 195s142.333 71 241 71c71.333 0 128.666 -14.667 171.999 -44s74.666 -74.666 93.999 -135.999zM876.002 1137l-67 -68
l-197 201l-258 -201l-47 68l332 295z" />
    <glyph glyph-name="Scedilla" unicode="&#x15e;" horiz-adv-x="1145" 
d="M1149 1393l-135.001 -109.002c-17.333 41.333 -45.5 73.166 -84.5 95.499s-85.167 33.5 -138.5 33.5c-75.333 0 -137.666 -19 -186.999 -57s-79.333 -89.333 -90 -154c0 -1.33301 -0.333008 -3.33301 -1 -6c-2 -17.333 -3 -30.333 -3 -39c0 -44 14 -83.167 42 -117.5
s82.333 -75.833 163 -124.5l11 -6c236.667 -140 355 -280.667 355 -422c0 -12 -0.5 -24.333 -1.5 -37s-2.5 -25.667 -4.5 -39c-21.333 -136.667 -80.833 -244.5 -178.5 -323.5s-220.5 -118.5 -368.5 -118.5c-102 0 -187.667 23.333 -257 70
s-114.666 111.334 -135.999 194.001l139 105c14 -64.667 46.5 -115.334 97.5 -152.001s113.5 -55 187.5 -55c94 0 171 24 231 72s97 115.667 111 203c0 0.666992 0.333008 2.33398 1 5.00098c2 17.333 3 31.333 3 42c0 56.667 -21 108.334 -63 155.001
s-110.333 95.334 -205 146.001c-110.667 58.667 -188.834 115.334 -234.501 170.001s-68.5 118.667 -68.5 192c0 12.667 0.5 25.5 1.5 38.5s2.5 26.167 4.5 39.5c18 113.333 71.5 205.166 160.5 275.499s197.167 105.5 324.5 105.5c78 0 144 -15.333 198 -46
s96 -76 126 -136zM685.999 -102.002l-276 -320l-70 53l250 338z" />
    <glyph glyph-name="scedilla" unicode="&#x15f;" horiz-adv-x="817" 
d="M825 805l-146.998 -82.001c-12 40.667 -29.833 70.334 -53.5 89.001s-55.167 28 -94.5 28c-46 0 -83.667 -10.5 -113 -31.5s-47 -49.833 -53 -86.5c-0.666992 -2.66699 -1.16699 -5.5 -1.5 -8.5s-0.5 -7.5 -0.5 -13.5c0 -30 12.333 -55.833 37 -77.5
s67 -42.834 127 -63.501c89.333 -30.667 154 -65.834 194 -105.501s60 -88.5 60 -146.5c0 -6 -0.166992 -12.167 -0.5 -18.5s-1.5 -16.5 -3.5 -30.5c-14 -88 -57 -158.167 -129 -210.5s-163.333 -78.5 -274 -78.5c-83.333 0 -151.5 17 -204.5 51s-87.167 82.667 -102.5 146
l153 88c12 -46 33.333 -80.333 64 -103s71.667 -34 123 -34c55.333 0 101.5 11.667 138.5 35s58.833 55 65.5 95c0.666992 4.66699 1.16699 9.33398 1.5 14.001s0.5 11.334 0.5 20.001c0 29.333 -14 54.666 -42 75.999s-79.333 46.333 -154 75
c-72.667 28 -126.667 62.167 -162 102.5s-53 87.5 -53 141.5c0 5.33301 0.166992 10.833 0.5 16.5s1.5 14.5 3.5 26.5c13.333 82.667 51 147.667 113 195s142.333 71 241 71c71.333 0 128.666 -14.667 171.999 -44s74.666 -74.666 93.999 -135.999zM522.002 -102.001
l-276 -320l-70 53l250 338z" />
    <glyph glyph-name="Scaron" unicode="&#x160;" horiz-adv-x="1145" 
d="M1149 1393l-135.001 -109.002c-17.333 41.333 -45.5 73.166 -84.5 95.499s-85.167 33.5 -138.5 33.5c-75.333 0 -137.666 -19 -186.999 -57s-79.333 -89.333 -90 -154c0 -1.33301 -0.333008 -3.33301 -1 -6c-2 -17.333 -3 -30.333 -3 -39c0 -44 14 -83.167 42 -117.5
s82.333 -75.833 163 -124.5l11 -6c236.667 -140 355 -280.667 355 -422c0 -12 -0.5 -24.333 -1.5 -37s-2.5 -25.667 -4.5 -39c-21.333 -136.667 -80.833 -244.5 -178.5 -323.5s-220.5 -118.5 -368.5 -118.5c-102 0 -187.667 23.333 -257 70
s-114.666 111.334 -135.999 194.001l139 105c14 -64.667 46.5 -115.334 97.5 -152.001s113.5 -55 187.5 -55c94 0 171 24 231 72s97 115.667 111 203c0 0.666992 0.333008 2.33398 1 5.00098c2 17.333 3 31.333 3 42c0 56.667 -21 108.334 -63 155.001
s-110.333 95.334 -205 146.001c-110.667 58.667 -188.834 115.334 -234.501 170.001s-68.5 118.667 -68.5 192c0 12.667 0.5 25.5 1.5 38.5s2.5 26.167 4.5 39.5c18 113.333 71.5 205.166 160.5 275.499s197.167 105.5 324.5 105.5c78 0 144 -15.333 198 -46
s96 -76 126 -136zM1155 1944l-332 -297l-237 297l67 65l195 -200l260 200z" />
    <glyph glyph-name="scaron" unicode="&#x161;" horiz-adv-x="817" 
d="M825 805l-146.998 -82.001c-12 40.667 -29.833 70.334 -53.5 89.001s-55.167 28 -94.5 28c-46 0 -83.667 -10.5 -113 -31.5s-47 -49.833 -53 -86.5c-0.666992 -2.66699 -1.16699 -5.5 -1.5 -8.5s-0.5 -7.5 -0.5 -13.5c0 -30 12.333 -55.833 37 -77.5
s67 -42.834 127 -63.501c89.333 -30.667 154 -65.834 194 -105.501s60 -88.5 60 -146.5c0 -6 -0.166992 -12.167 -0.5 -18.5s-1.5 -16.5 -3.5 -30.5c-14 -88 -57 -158.167 -129 -210.5s-163.333 -78.5 -274 -78.5c-83.333 0 -151.5 17 -204.5 51s-87.167 82.667 -102.5 146
l153 88c12 -46 33.333 -80.333 64 -103s71.667 -34 123 -34c55.333 0 101.5 11.667 138.5 35s58.833 55 65.5 95c0.666992 4.66699 1.16699 9.33398 1.5 14.001s0.5 11.334 0.5 20.001c0 29.333 -14 54.666 -42 75.999s-79.333 46.333 -154 75
c-72.667 28 -126.667 62.167 -162 102.5s-53 87.5 -53 141.5c0 5.33301 0.166992 10.833 0.5 16.5s1.5 14.5 3.5 26.5c13.333 82.667 51 147.667 113 195s142.333 71 241 71c71.333 0 128.666 -14.667 171.999 -44s74.666 -74.666 93.999 -135.999zM911.002 1354l-332 -297
l-237 297l67 65l195 -200l260 200z" />
    <glyph glyph-name="Tcedilla" unicode="&#x162;" horiz-adv-x="963" 
d="M1176 1544l-25 -155h-365l-219 -1389h-172l219 1389h-364l24 155h902zM596 -102l-276 -320l-70 53l250 338z" />
    <glyph glyph-name="tcedilla" unicode="&#x163;" horiz-adv-x="492" 
d="M623 956l-23 -147h-151l-130 -809h-163l129 809h-115l23 147h114l62 387h163l-61 -387h152zM362 -102l-276 -320l-70 53l250 338z" />
    <glyph glyph-name="Tcaron" unicode="&#x164;" horiz-adv-x="963" 
d="M1176 1544l-25 -155h-365l-219 -1389h-172l219 1389h-364l24 155h902zM1065 1944l-332 -297l-237 297l67 65l195 -200l260 200z" />
    <glyph glyph-name="tcaron" unicode="&#x165;" horiz-adv-x="770" 
d="M1008 1505l-301 -446l-95 39l242 477zM623 956l-23 -147h-151l-130 -809h-163l129 809h-115l23 147h114l62 387h163l-61 -387h152z" />
    <glyph glyph-name="Utilde" unicode="&#x168;" horiz-adv-x="1403" 
d="M1487 1544l-152 -966.002c-32 -205.333 -100.333 -358.166 -205 -458.499s-248.667 -150.5 -432 -150.5c-153.333 0 -268.333 36.5 -345 109.5s-115 182.833 -115 329.5c0 28.667 1.16699 57 3.5 85s5.83301 56.333 10.5 85l151 966h172l-157 -1001
c-4 -25.333 -6.66699 -47.166 -8 -65.499s-2 -35.5 -2 -51.5c0 -98.667 26 -172.5 78 -221.5s131 -73.5 237 -73.5c125.333 0 223.5 33.667 294.5 101s117.5 171 139.5 311l158 1001h172zM1309 1862c-31.333 -53.333 -65.501 -92.998 -102.501 -118.998
s-77.5 -39 -121.5 -39c-21.333 0 -43.166 4.16699 -65.499 12.5s-47.166 21.833 -74.499 40.5l-13 9c-48 34 -83.667 51 -107 51c-26 0 -48.167 -5.83301 -66.5 -17.5s-39.833 -35.834 -64.5 -72.501l-67 45c31.333 52.667 64.666 91.667 99.999 117s75 38 119 38
c22 0 44.667 -4.16699 68 -12.5s48.333 -21.833 75 -40.5c4.66699 -2.66699 11.667 -7.33398 21 -14.001c44.667 -30 77.334 -45 98.001 -45c27.333 0 50.666 6 69.999 18s41 36 65 72z" />
    <glyph glyph-name="utilde" unicode="&#x169;" horiz-adv-x="1049" 
d="M1057 956l-85.9971 -544c-24.667 -152.667 -73.334 -264.667 -146.001 -336s-174.334 -107 -305.001 -107c-110.667 0 -192.167 24.833 -244.5 74.5s-78.5 126.5 -78.5 230.5c0 20.667 1 42.334 3 65.001s5 47 9 73l86 544h164l-86 -538
c-4 -24.667 -6.66699 -45.167 -8 -61.5s-2.33301 -31.5 -3 -45.5c0 -64 14.167 -110.667 42.5 -140s75.166 -44 140.499 -44c78 0 136.667 22.667 176 68s67.333 119.666 84 222.999l86 538h166zM1059 1272c-31.333 -53.333 -65.501 -92.998 -102.501 -118.998
s-77.5 -39 -121.5 -39c-21.333 0 -43.166 4.16699 -65.499 12.5s-47.166 21.833 -74.499 40.5l-13 9c-48 34 -83.667 51 -107 51c-26 0 -48.167 -5.83301 -66.5 -17.5s-39.833 -35.834 -64.5 -72.501l-67 45c31.333 52.667 64.666 91.667 99.999 117s75 38 119 38
c22 0 44.667 -4.16699 68 -12.5s48.333 -21.833 75 -40.5c4.66699 -2.66699 11.667 -7.33398 21 -14.001c44.667 -30 77.334 -45 98.001 -45c27.333 0 50.666 6 69.999 18s41 36 65 72z" />
    <glyph glyph-name="Umacron" unicode="&#x16a;" horiz-adv-x="1403" 
d="M1487 1544l-152 -966.002c-32 -205.333 -100.333 -358.166 -205 -458.499s-248.667 -150.5 -432 -150.5c-153.333 0 -268.333 36.5 -345 109.5s-115 182.833 -115 329.5c0 28.667 1.16699 57 3.5 85s5.83301 56.333 10.5 85l151 966h172l-157 -1001
c-4 -25.333 -6.66699 -47.166 -8 -65.499s-2 -35.5 -2 -51.5c0 -98.667 26 -172.5 78 -221.5s131 -73.5 237 -73.5c125.333 0 223.5 33.667 294.5 101s117.5 171 139.5 311l158 1001h172zM1251 1872l-18 -117h-551l18 117h551z" />
    <glyph glyph-name="umacron" unicode="&#x16b;" horiz-adv-x="1049" 
d="M1057 956l-85.9971 -544c-24.667 -152.667 -73.334 -264.667 -146.001 -336s-174.334 -107 -305.001 -107c-110.667 0 -192.167 24.833 -244.5 74.5s-78.5 126.5 -78.5 230.5c0 20.667 1 42.334 3 65.001s5 47 9 73l86 544h164l-86 -538
c-4 -24.667 -6.66699 -45.167 -8 -61.5s-2.33301 -31.5 -3 -45.5c0 -64 14.167 -110.667 42.5 -140s75.166 -44 140.499 -44c78 0 136.667 22.667 176 68s67.333 119.666 84 222.999l86 538h166zM1003 1282l-18 -117h-551l18 117h551z" />
    <glyph glyph-name="Ubreve" unicode="&#x16c;" horiz-adv-x="1403" 
d="M1487 1544l-152 -966.002c-32 -205.333 -100.333 -358.166 -205 -458.499s-248.667 -150.5 -432 -150.5c-153.333 0 -268.333 36.5 -345 109.5s-115 182.833 -115 329.5c0 28.667 1.16699 57 3.5 85s5.83301 56.333 10.5 85l151 966h172l-157 -1001
c-4 -25.333 -6.66699 -47.166 -8 -65.499s-2 -35.5 -2 -51.5c0 -98.667 26 -172.5 78 -221.5s131 -73.5 237 -73.5c125.333 0 223.5 33.667 294.5 101s117.5 171 139.5 311l158 1001h172zM1275 1931c-30 -83.333 -71.832 -145.333 -125.499 -186s-120.834 -61 -201.501 -61
c-81.333 0 -143.333 21 -186 63s-64.667 103.333 -66 184l86 27c4 -53.333 21.333 -93.333 52 -120s74 -40 130 -40s103.167 13.333 141.5 40s68.5 66.667 90.5 120z" />
    <glyph glyph-name="ubreve" unicode="&#x16d;" horiz-adv-x="1049" 
d="M1057 956l-85.9971 -544c-24.667 -152.667 -73.334 -264.667 -146.001 -336s-174.334 -107 -305.001 -107c-110.667 0 -192.167 24.833 -244.5 74.5s-78.5 126.5 -78.5 230.5c0 20.667 1 42.334 3 65.001s5 47 9 73l86 544h164l-86 -538
c-4 -24.667 -6.66699 -45.167 -8 -61.5s-2.33301 -31.5 -3 -45.5c0 -64 14.167 -110.667 42.5 -140s75.166 -44 140.499 -44c78 0 136.667 22.667 176 68s67.333 119.666 84 222.999l86 538h166zM1028 1341c-30 -83.333 -71.832 -145.333 -125.499 -186
s-120.834 -61 -201.501 -61c-81.333 0 -143.333 21 -186 63s-64.667 103.333 -66 184l86 27c4 -53.333 21.333 -93.333 52 -120s74 -40 130 -40s103.167 13.333 141.5 40s68.5 66.667 90.5 120z" />
    <glyph glyph-name="Uring" unicode="&#x16e;" horiz-adv-x="1403" 
d="M1487 1544l-152 -966.002c-32 -205.333 -100.333 -358.166 -205 -458.499s-248.667 -150.5 -432 -150.5c-153.333 0 -268.333 36.5 -345 109.5s-115 182.833 -115 329.5c0 28.667 1.16699 57 3.5 85s5.83301 56.333 10.5 85l151 966h172l-157 -1001
c-4 -25.333 -6.66699 -47.166 -8 -65.499s-2 -35.5 -2 -51.5c0 -98.667 26 -172.5 78 -221.5s131 -73.5 237 -73.5c125.333 0 223.5 33.667 294.5 101s117.5 171 139.5 311l158 1001h172zM1219 1881c-10 -66.667 -42.168 -123.334 -96.501 -170.001
s-115.166 -70 -182.499 -70c-58.667 0 -107 18.833 -145 56.5s-57 85.5 -57 143.5c0 8 1 19.333 3 34c0 2 0.333008 3.66699 1 5c10 66.667 41.667 123.334 95 170.001s113 70 179 70c59.333 0 108.333 -19.167 147 -57.5s58 -86.833 58 -145.5
c0 -10 -0.166992 -17.5 -0.5 -22.5s-0.833008 -9.5 -1.5 -13.5zM1137 1880c0.666992 2.66699 1.16699 5.83203 1.5 9.49902s0.5 8.83398 0.5 15.501c0 38 -12.833 69.667 -38.5 95s-57.834 38 -96.501 38c-43.333 0 -82.333 -15.333 -117 -46s-55.667 -67.667 -63 -111
c-2 -7.33301 -3.33301 -12.833 -4 -16.5s-1 -6.5 -1 -8.5c0 -38 13 -69.667 39 -95s58.333 -38 97 -38c42.667 0 81.834 15.333 117.501 46s57.167 67.667 64.5 111z" />
    <glyph glyph-name="uring" unicode="&#x16f;" horiz-adv-x="1049" 
d="M1057 956l-85.9971 -544c-24.667 -152.667 -73.334 -264.667 -146.001 -336s-174.334 -107 -305.001 -107c-110.667 0 -192.167 24.833 -244.5 74.5s-78.5 126.5 -78.5 230.5c0 20.667 1 42.334 3 65.001s5 47 9 73l86 544h164l-86 -538
c-4 -24.667 -6.66699 -45.167 -8 -61.5s-2.33301 -31.5 -3 -45.5c0 -64 14.167 -110.667 42.5 -140s75.166 -44 140.499 -44c78 0 136.667 22.667 176 68s67.333 119.666 84 222.999l86 538h166zM969.003 1291c-10 -66.667 -42.168 -123.334 -96.501 -170.001
s-115.166 -70 -182.499 -70c-58.667 0 -107 18.833 -145 56.5s-57 85.5 -57 143.5c0 8 1 19.333 3 34c0 2 0.333008 3.66699 1 5c10 66.667 41.667 123.334 95 170.001s113 70 179 70c59.333 0 108.333 -19.167 147 -57.5s58 -86.833 58 -145.5
c0 -10 -0.166992 -17.5 -0.5 -22.5s-0.833008 -9.5 -1.5 -13.5zM887.002 1290c0.666992 2.66699 1.16699 5.83203 1.5 9.49902s0.5 8.83398 0.5 15.501c0 38 -12.833 69.667 -38.5 95s-57.834 38 -96.501 38c-43.333 0 -82.333 -15.333 -117 -46s-55.667 -67.667 -63 -111
c-2 -7.33301 -3.33301 -12.833 -4 -16.5s-1 -6.5 -1 -8.5c0 -38 13 -69.667 39 -95s58.333 -38 97 -38c42.667 0 81.834 15.333 117.501 46s57.167 67.667 64.5 111z" />
    <glyph glyph-name="Udblacute" unicode="&#x170;" horiz-adv-x="1403" 
d="M1487 1544l-152 -966.002c-32 -205.333 -100.333 -358.166 -205 -458.499s-248.667 -150.5 -432 -150.5c-153.333 0 -268.333 36.5 -345 109.5s-115 182.833 -115 329.5c0 28.667 1.16699 57 3.5 85s5.83301 56.333 10.5 85l151 966h172l-157 -1001
c-4 -25.333 -6.66699 -47.166 -8 -65.499s-2 -35.5 -2 -51.5c0 -98.667 26 -172.5 78 -221.5s131 -73.5 237 -73.5c125.333 0 223.5 33.667 294.5 101s117.5 171 139.5 311l158 1001h172zM1301 1946l-287 -287l-60 57l263 310zM1053 1960l-264 -301l-70 47l238 320z" />
    <glyph glyph-name="udblacute" unicode="&#x171;" horiz-adv-x="1049" 
d="M1057 956l-85.9971 -544c-24.667 -152.667 -73.334 -264.667 -146.001 -336s-174.334 -107 -305.001 -107c-110.667 0 -192.167 24.833 -244.5 74.5s-78.5 126.5 -78.5 230.5c0 20.667 1 42.334 3 65.001s5 47 9 73l86 544h164l-86 -538
c-4 -24.667 -6.66699 -45.167 -8 -61.5s-2.33301 -31.5 -3 -45.5c0 -64 14.167 -110.667 42.5 -140s75.166 -44 140.499 -44c78 0 136.667 22.667 176 68s67.333 119.666 84 222.999l86 538h166zM1053 1356l-287 -287l-60 57l263 310zM805.003 1370l-264 -301l-70 47
l238 320z" />
    <glyph glyph-name="Uogonek" unicode="&#x172;" horiz-adv-x="1403" 
d="M1487 1544l-151.997 -966.001c-30 -191.333 -91.333 -337 -184 -437s-218.334 -156.667 -377.001 -170c-36 -34.667 -65.333 -70 -88 -106s-36.334 -69 -41.001 -99c-0.666992 -3.33301 -1.16699 -6.83301 -1.5 -10.5s-0.5 -8.83398 -0.5 -15.501
c0 -30 11.333 -51.833 34 -65.5s59 -20.5 109 -20.5l-18 -115c-91.333 0 -156.833 11.333 -196.5 34s-59.5 60 -59.5 112c0 8 1 21 3 39c0.666992 2.66699 1 4.66699 1 6c6 36.667 23 75.834 51 117.501s64.333 82.167 109 121.5c-146.667 4 -256.334 42.333 -329.001 115
s-109 180.667 -109 324c0 28.667 1.16699 57 3.5 85s5.83301 56.333 10.5 85l151 966h172l-157 -1001c-4 -25.333 -6.66699 -47.166 -8 -65.499s-2 -35.5 -2 -51.5c0 -98.667 26 -172.5 78 -221.5s131 -73.5 237 -73.5c125.333 0 223.5 33.667 294.5 101
s117.5 171 139.5 311l158 1001h172z" />
    <glyph glyph-name="uogonek" unicode="&#x173;" horiz-adv-x="1049" 
d="M1057 956l-86 -544c-21.333 -134 -60.833 -236.333 -118.5 -307s-137.167 -114 -238.5 -130c-36 -34 -65.833 -69.5 -89.5 -106.5s-38.167 -71.167 -43.5 -102.5c-0.666992 -3.33301 -1.16699 -6.83301 -1.5 -10.5s-0.5 -8.83398 -0.5 -15.501
c0 -30 11.333 -51.833 34 -65.5s59.334 -20.5 110.001 -20.5l-19 -115c-90.667 0 -156 11.333 -196 34s-60 60 -60 112c0 8 1.33301 21.333 4 40v5c6 36.667 23 75.834 51 117.501s64.333 82.167 109 121.5c-108 1.33301 -187.5 26.833 -238.5 76.5
s-76.5 125.834 -76.5 228.501c0 21.333 1 43.5 3 66.5s5 46.833 9 71.5l86 544h164l-86 -538c-4 -24.667 -6.66699 -45.167 -8 -61.5s-2.33301 -31.5 -3 -45.5c0 -64 14.167 -110.667 42.5 -140s75.166 -44 140.499 -44c78 0 136.667 22.667 176 68
s67.333 119.666 84 222.999l86 538h166z" />
    <glyph glyph-name="Wcircumflex" unicode="&#x174;" horiz-adv-x="2234" 
d="M2488 1544l-901 -1585l-287 1210l-669 -1210l-398 1585h187l276 -1169l674 1212l283 -1212l649 1169h186zM1665 1727l-67 -68l-197 201l-258 -201l-47 68l332 295z" />
    <glyph glyph-name="wcircumflex" unicode="&#x175;" horiz-adv-x="1556" 
d="M1677 956l-614 -999l-184 680l-396 -680l-301 999h187l168 -643l397 688l184 -688l371 643h188zM1243 1137l-67 -68l-197 201l-258 -201l-47 68l332 295z" />
    <glyph glyph-name="Ycircumflex" unicode="&#x176;" horiz-adv-x="1214" 
d="M1425 1544l-614 -835l-113 -709h-172l113 709l-363 835h193l283 -680l483 680h190zM1155 1727l-67 -68l-197 201l-258 -201l-47 68l332 295z" />
    <glyph glyph-name="ycircumflex" unicode="&#x177;" horiz-adv-x="1020" 
d="M1133 956l-857 -1488h-182l342 579l-264 909h178l199 -720l403 720h181zM975 1137l-67 -68l-197 201l-258 -201l-47 68l332 295z" />
    <glyph glyph-name="Ydieresis" unicode="&#x178;" horiz-adv-x="1214" 
d="M1425 1544l-614 -835l-113 -709h-172l113 709l-363 835h193l283 -680l483 680h190zM1182 1823c-4 -28 -16.834 -51.333 -38.501 -70s-46.5 -28 -74.5 -28c-24.667 0 -45.167 7.66699 -61.5 23s-24.5 35 -24.5 59c0 0.666992 0.333008 2.83398 1 6.50098
s1 6.83398 1 9.50098c4 26 17.333 48.5 40 67.5s47.667 28.5 75 28.5c24.667 0 44.834 -7.5 60.501 -22.5s23.5 -34.167 23.5 -57.5c0 -0.666992 -0.333008 -2.83398 -1 -6.50098s-1 -6.83398 -1 -9.50098zM787.999 1823c-4 -28 -16.834 -51.334 -38.501 -70.001
s-46.167 -28 -73.5 -28c-24.667 0 -45.167 7.66699 -61.5 23s-24.5 35 -24.5 59c0 1.33301 0.333008 3.83301 1 7.5s1 6.5 1 8.5c4 26 17.333 48.5 40 67.5s47.667 28.5 75 28.5c24.667 0 44.834 -7.5 60.501 -22.5s23.5 -34.167 23.5 -57.5
c-0.666992 -1.33301 -1.16699 -3.66602 -1.5 -6.99902s-0.833008 -6.33301 -1.5 -9z" />
    <glyph glyph-name="Zacute" unicode="&#x179;" horiz-adv-x="1200" 
d="M1376 1544l-1034 -1382h770l-27 -162h-1054l1040 1382h-729l25 162h1009zM1124 1929l-336 -270l-51 66l315 301z" />
    <glyph glyph-name="zacute" unicode="&#x17a;" horiz-adv-x="1063" 
d="M1106 956l-735 -809h612l-22 -147h-910l735 809h-555l23 147h852zM973 1339l-336 -270l-51 66l315 301z" />
    <glyph glyph-name="Zdot" unicode="&#x17b;" horiz-adv-x="1200" 
d="M1376 1544l-1034 -1382h770l-27 -162h-1054l1040 1382h-729l25 162h1009zM983 1825c-4.66699 -28.667 -18.167 -52.8301 -40.5 -72.4971s-47.833 -29.5 -76.5 -29.5c-25.333 0 -46.333 8 -63 24s-25 36.667 -25 62c0 2 0.333008 4.66699 1 8s1 6 1 8
c4 27.333 17.5 50.833 40.5 70.5s48.5 29.5 76.5 29.5c25.333 0 46.333 -7.83301 63 -23.5s25 -35.834 25 -60.501c0 -0.666992 -0.333008 -2.83398 -1 -6.50098s-1 -6.83398 -1 -9.50098z" />
    <glyph glyph-name="zdot" unicode="&#x17c;" horiz-adv-x="1063" 
d="M1106 956l-735 -809h612l-22 -147h-910l735 809h-555l23 147h852zM832 1235c-4.66699 -28.667 -18.167 -52.8301 -40.5 -72.4971s-47.833 -29.5 -76.5 -29.5c-25.333 0 -46.333 8 -63 24s-25 36.667 -25 62c0 2 0.333008 4.66699 1 8s1 6 1 8
c4 27.333 17.5 50.833 40.5 70.5s48.5 29.5 76.5 29.5c25.333 0 46.333 -7.83301 63 -23.5s25 -35.834 25 -60.501c0 -0.666992 -0.333008 -2.83398 -1 -6.50098s-1 -6.83398 -1 -9.50098z" />
    <glyph glyph-name="florin" unicode="&#x192;" 
d="M1286 1544l-51.999 -154.999c-16 8.66699 -32.833 15.5 -50.5 20.5s-33.834 7.5 -48.501 7.5c-58 0 -102.167 -18.167 -132.5 -54.5s-57.833 -100.166 -82.5 -191.499l-60 -215h221l-41 -147h-221l-188 -698c-36.667 -134.667 -85 -232.5 -145 -293.5
s-138.667 -91.5 -236 -91.5c-24 0 -49.333 2.66699 -76 8s-50.667 12.666 -72 21.999l50 156c16 -8.66699 33.167 -15.667 51.5 -21s35.166 -8 50.499 -8c57.333 0 101.333 18.167 132 54.5s58.334 100.166 83.001 191.499l184 680h-207l39 147h209l64 234
c36 132.667 84.667 230 146 292s140.333 93 237 93c24 0 49 -2.83301 75 -8.5s49.333 -13.167 70 -22.5z" />
    <glyph glyph-name="circumflex" unicode="&#x2c6;" horiz-adv-x="963" 
d="M946 1137l-67 -68l-197 201l-258 -201l-47 68l332 295z" />
    <glyph glyph-name="caron" unicode="&#x2c7;" horiz-adv-x="963" 
d="M981 1354l-332 -297l-237 297l67 65l195 -200l260 200z" />
    <glyph glyph-name="uni02C9" unicode="&#x2c9;" horiz-adv-x="1022" 
d="M989 1282l-18 -117h-551l18 117h551z" />
    <glyph glyph-name="breve" unicode="&#x2d8;" horiz-adv-x="993" 
d="M999 1341c-30 -83.333 -71.832 -145.333 -125.499 -186s-120.834 -61 -201.501 -61c-81.333 0 -143.333 21 -186 63s-64.667 103.333 -66 184l86 27c4 -53.333 21.333 -93.333 52 -120s74 -40 130 -40s103.167 13.333 141.5 40s68.5 66.667 90.5 120z" />
    <glyph glyph-name="dotaccent" unicode="&#x2d9;" horiz-adv-x="733" 
d="M666 1235c-4.66699 -28.667 -18.167 -52.8301 -40.5 -72.4971s-47.833 -29.5 -76.5 -29.5c-25.333 0 -46.333 8 -63 24s-25 36.667 -25 62c0 2 0.333008 4.66699 1 8s1 6 1 8c4 27.333 17.5 50.833 40.5 70.5s48.5 29.5 76.5 29.5c25.333 0 46.333 -7.83301 63 -23.5
s25 -35.834 25 -60.501c0 -0.666992 -0.333008 -2.83398 -1 -6.50098s-1 -6.83398 -1 -9.50098z" />
    <glyph glyph-name="ring" unicode="&#x2da;" horiz-adv-x="717" 
d="M803 1291c-10 -66.667 -42.168 -123.334 -96.501 -170.001s-115.166 -70 -182.499 -70c-58.667 0 -107 18.833 -145 56.5s-57 85.5 -57 143.5c0 8 1 19.333 3 34c0 2 0.333008 3.66699 1 5c10 66.667 41.667 123.334 95 170.001s113 70 179 70
c59.333 0 108.333 -19.167 147 -57.5s58 -86.833 58 -145.5c0 -10 -0.166992 -17.5 -0.5 -22.5s-0.833008 -9.5 -1.5 -13.5zM720.999 1290c0.666992 2.66699 1.16699 5.83203 1.5 9.49902s0.5 8.83398 0.5 15.501c0 38 -12.833 69.667 -38.5 95s-57.834 38 -96.501 38
c-43.333 0 -82.333 -15.333 -117 -46s-55.667 -67.667 -63 -111c-2 -7.33301 -3.33301 -12.833 -4 -16.5s-1 -6.5 -1 -8.5c0 -38 13 -69.667 39 -95s58.333 -38 97 -38c42.667 0 81.834 15.333 117.501 46s57.167 67.667 64.5 111z" />
    <glyph glyph-name="ogonek" unicode="&#x2db;" horiz-adv-x="690" 
d="M416 0c-43.333 -36.667 -79.334 -75.832 -108.001 -117.499s-46 -80.167 -52 -115.5c-0.666992 -4 -1.16699 -7.83301 -1.5 -11.5s-0.5 -8.83398 -0.5 -15.501c0 -30 11.333 -51.833 34 -65.5s59 -20.5 109 -20.5l-18 -115c-91.333 0 -156.833 11.333 -196.5 34
s-59.5 60 -59.5 112c0 8.66699 1 21.667 3 39c0.666992 2.66699 1 4.66699 1 6c6.66699 43.333 27.834 89.5 63.501 138.5s80.167 92.833 133.5 131.5h92z" />
    <glyph glyph-name="tilde" unicode="&#x2dc;" horiz-adv-x="1036" 
d="M1053 1272c-31.333 -53.333 -65.501 -92.998 -102.501 -118.998s-77.5 -39 -121.5 -39c-21.333 0 -43.166 4.16699 -65.499 12.5s-47.166 21.833 -74.499 40.5l-13 9c-48 34 -83.667 51 -107 51c-26 0 -48.167 -5.83301 -66.5 -17.5s-39.833 -35.834 -64.5 -72.501
l-67 45c31.333 52.667 64.666 91.667 99.999 117s75 38 119 38c22 0 44.667 -4.16699 68 -12.5s48.333 -21.833 75 -40.5c4.66699 -2.66699 11.667 -7.33398 21 -14.001c44.667 -30 77.334 -45 98.001 -45c27.333 0 50.666 6 69.999 18s41 36 65 72z" />
    <glyph glyph-name="hungarumlaut" unicode="&#x2dd;" horiz-adv-x="956" 
d="M1006 1356l-287 -287l-60 57l263 310zM758 1370l-264 -301l-70 47l238 320z" />
    <glyph glyph-name="U037e" unicode="&#x37e;" horiz-adv-x="631" 
d="M576 869c-5.33301 -33.333 -21.167 -61.501 -47.5 -84.501s-55.833 -34.5 -88.5 -34.5c-28.667 0 -52.834 9.66699 -72.501 29s-29.5 43 -29.5 71c0 2 0.333008 5 1 9s1 7 1 9c5.33301 32.667 21.333 60.334 48 83.001s56.334 34 89.001 34
c29.333 0 53.5 -9.16699 72.5 -27.5s28.5 -41.833 28.5 -70.5c0 -5.33301 -0.333008 -9.33301 -1 -12s-1 -4.66699 -1 -6zM460.999 169.999l-355 -528l-94 41l287 561z" />
    <glyph glyph-name="tonos" unicode="&#x384;" horiz-adv-x="401" 
d="M498 1475l-80 -402h-94l47 402h127z" />
    <glyph glyph-name="dieresistonos" unicode="&#x385;" horiz-adv-x="942" 
d="M530 1247c0 -30.667 -11.3311 -57 -33.998 -79s-49.334 -33 -80.001 -33c-24.667 0 -45.167 7.66699 -61.5 23s-24.5 35 -24.5 59c0 29.333 11.667 55.333 35 78s50.333 34 81 34c25.333 0 45.666 -7.66699 60.999 -23s23 -35 23 -59zM1001 1249
c0 -31.333 -11.3311 -58.167 -33.998 -80.5s-49.334 -33.5 -80.001 -33.5c-25.333 0 -46 7.66699 -62 23s-24 35 -24 59c0 29.333 11.667 55.333 35 78s50.666 34 81.999 34c24.667 0 44.667 -7.5 60 -22.5s23 -34.167 23 -57.5zM770.004 1475l-82 -402h-92l45 402h129z" />
    <glyph glyph-name="Alphatonos" unicode="&#x386;" horiz-adv-x="1952" 
d="M498 1475l-80 -402h-94l47 402h127zM1947 0h-190l-127 467h-641l-272 -467h-191l963 1587zM1591 614l-162 596l-350 -596h512z" />
    <glyph glyph-name="anoteleia" unicode="&#x387;" horiz-adv-x="631" 
d="M545 788c-5.33301 -32.667 -21.333 -60.501 -48 -83.501s-56.334 -34.5 -89.001 -34.5c-29.333 0 -53.833 9.66699 -73.5 29s-29.5 43 -29.5 71c0 2 0.333008 5 1 9s1 7 1 9c5.33301 32.667 21.333 60.334 48 83.001s56.334 34 89.001 34c30 0 54.667 -9.16699 74 -27.5
s29 -41.833 29 -70.5c0 -2 -0.333008 -5 -1 -9s-1 -7.33301 -1 -10z" />
    <glyph glyph-name="Epsilontonos" unicode="&#x388;" horiz-adv-x="1495" 
d="M498 1475l-80 -402h-94l47 402h127zM1587 1544l-25 -162h-610l-74 -469h610l-26 -161h-610l-93 -590h611l-27 -162h-782l243 1544h783z" />
    <glyph glyph-name="Etatonos" unicode="&#x389;" horiz-adv-x="1864" 
d="M498 1475l-80 -402h-94l47 402h127zM1947 1544l-243 -1544h-173l119 750h-798l-119 -750h-172l243 1544h172l-100 -633h799l100 633h172z" />
    <glyph glyph-name="Iotatonos" unicode="&#x38a;" horiz-adv-x="891" 
d="M498 1475l-80 -402h-94l47 402h127zM976 1544l-243 -1544h-172l243 1544h172z" />
    <glyph glyph-name="Omicrontonos" unicode="&#x38c;" horiz-adv-x="2195" 
d="M498 1475l-80 -402h-94l47 402h127zM2245 773c-36 -226.667 -144.169 -417.332 -324.502 -571.999s-384.166 -232 -611.499 -232c-203.333 0 -369.666 63.167 -498.999 189.5s-194 287.166 -194 482.499c0 18.667 0.833008 38.667 2.5 60s4.5 45.333 8.5 72
c35.333 228 142.5 418.667 321.5 572s383.833 230 614.5 230c204.667 0 371.167 -62.167 499.5 -186.5s192.5 -284.833 192.5 -481.5c0 -26 -0.833008 -49.833 -2.5 -71.5s-4.16699 -42.5 -7.5 -62.5zM2072 772.002c3.33301 16.667 5.66797 33.667 7.00195 51
c1.33301 17.333 2 36 2 56c0 156 -50.667 284 -152 384s-232.333 150 -393 150c-190.667 0 -353.834 -62.5 -489.501 -187.5s-217.5 -276.167 -245.5 -453.5c-2.66699 -16.667 -4.83398 -34 -6.50098 -52s-2.5 -36.667 -2.5 -56c0 -156.667 50 -284.667 150 -384
s230.333 -149 391 -149c181.333 0 343 61.833 485 185.5s226.667 275.5 254 455.5z" />
    <glyph glyph-name="Upsilontonos" unicode="&#x38e;" horiz-adv-x="1616" 
d="M498 1475l-80 -402h-94l47 402h127zM1826 1544l-614 -835l-113 -709h-172l113 709l-363 835h193l283 -680l483 680h190z" />
    <glyph glyph-name="Omegatonos" unicode="&#x38f;" horiz-adv-x="2191" 
d="M498 1475l-80 -402h-94l47 402h127zM2241 773c-21.333 -130 -67.998 -248.835 -139.998 -356.502s-162.667 -194.5 -272 -260.5h342l-25 -156h-626l24 156c133.333 41.333 248.5 119 345.5 233s156.5 241.667 178.5 383c3.33301 16.667 5.66602 33.667 6.99902 51
s2 36 2 56c0 156 -50.667 284 -152 384s-232.333 150 -393 150c-190.667 0 -353.834 -62.5 -489.501 -187.5s-217.5 -276.167 -245.5 -453.5c-2.66699 -16.667 -4.83398 -33.667 -6.50098 -51s-2.5 -35.666 -2.5 -54.999c0 -120 30.5 -226.167 91.5 -318.5
s143.167 -156.166 246.5 -191.499l-24 -156h-631l25 156h344c-73.333 54 -129.666 123 -168.999 207s-59 177.333 -59 280c0 18 0.833008 37.5 2.5 58.5s4.5 44.833 8.5 71.5c35.333 228 142.5 418.667 321.5 572s383.833 230 614.5 230
c204.667 0 371.167 -62.167 499.5 -186.5s192.5 -284.833 192.5 -481.5c0 -26 -0.833008 -49.833 -2.5 -71.5s-4.16699 -42.5 -7.5 -62.5z" />
    <glyph glyph-name="iotedieresistonos" unicode="&#x390;" horiz-adv-x="537" 
d="M502 956l-152 -956h-164l152 956h164zM329 1247c0 -30.667 -11.3311 -57 -33.998 -79s-49.334 -33 -80.001 -33c-24.667 0 -45.167 7.66699 -61.5 23s-24.5 35 -24.5 59c0 29.333 11.667 55.333 35 78s50.333 34 81 34c25.333 0 45.666 -7.66699 60.999 -23
s23 -35 23 -59zM800.002 1249c0 -31.333 -11.3311 -58.167 -33.998 -80.5s-49.334 -33.5 -80.001 -33.5c-25.333 0 -46 7.66699 -62 23s-24 35 -24 59c0 29.333 11.667 55.333 35 78s50.666 34 81.999 34c24.667 0 44.667 -7.5 60 -22.5s23 -34.167 23 -57.5zM569.004 1475
l-82 -402h-92l45 402h129z" />
    <glyph glyph-name="Alpha" unicode="&#x391;" horiz-adv-x="1432" 
d="M1427 0h-190l-127 467h-641l-272 -467h-191l963 1587zM1071 614l-162 596l-350 -596h512z" />
    <glyph glyph-name="Beta" unicode="&#x392;" horiz-adv-x="1163" 
d="M1130 1146c-12.667 -83.333 -45.001 -155.166 -97.001 -215.499s-115.667 -98.833 -191 -115.5c90.667 -11.333 160.667 -44 210 -98s74 -123.667 74 -209c0 -12 -0.5 -24 -1.5 -36s-2.5 -24 -4.5 -36c-23.333 -146.667 -85.666 -256 -186.999 -328
s-243.666 -108 -426.999 -108h-346l243 1544h332c127.333 0 226.166 -28.333 296.499 -85s105.5 -136 105.5 -238c0 -12 -0.5 -23.833 -1.5 -35.5s-2.83301 -24.834 -5.5 -39.501zM955.999 1132c2 11.333 3.66602 22.333 4.99902 33s2 21 2 31
c0 65.333 -21.167 113.333 -63.5 144s-108.166 46 -197.499 46h-151l-80 -505h125c106.667 0 190 20.833 250 62.5s96.667 104.5 110 188.5zM947.998 436c1.33301 6 2.33301 13 3 21s1 19.667 1 35c0 78 -29.167 137.333 -87.5 178s-144.5 61 -258.5 61h-157l-93 -573h181
c129.333 0 226.333 22.5 291 67.5s104.667 115.167 120 210.5z" />
    <glyph glyph-name="Gamma" unicode="&#x393;" horiz-adv-x="768" 
d="M987 1544l-24 -158h-412l-219 -1386h-172l243 1544h584z" />
    <glyph glyph-name="Delta" unicode="&#x394;" horiz-adv-x="1401" 
d="M1411 0h-1421l962 1587zM1180 147l-287 1063l-627 -1063h914z" />
    <glyph glyph-name="Epsilon" unicode="&#x395;" horiz-adv-x="1094" 
d="M1186 1544l-25 -162h-610l-74 -469h610l-26 -161h-610l-93 -590h611l-27 -162h-782l243 1544h783z" />
    <glyph glyph-name="Zeta" unicode="&#x396;" horiz-adv-x="1200" 
d="M1376 1544l-1034 -1382h770l-27 -162h-1054l1040 1382h-729l25 162h1009z" />
    <glyph glyph-name="Eta" unicode="&#x397;" horiz-adv-x="1462" 
d="M1546 1544l-243 -1544h-173l119 750h-798l-119 -750h-172l243 1544h172l-100 -633h799l100 633h172z" />
    <glyph glyph-name="Theta" unicode="&#x398;" horiz-adv-x="1765" 
d="M1815 773c-36 -226.667 -144.169 -417.332 -324.502 -571.999s-384.166 -232 -611.499 -232c-203.333 0 -369.666 63.167 -498.999 189.5s-194 287.166 -194 482.499c0 18.667 0.833008 38.667 2.5 60s4.5 45.333 8.5 72c35.333 228 142.5 418.667 321.5 572
s383.833 230 614.5 230c204.667 0 371.167 -62.167 499.5 -186.5s192.5 -284.833 192.5 -481.5c0 -26 -0.833008 -49.833 -2.5 -71.5s-4.16699 -42.5 -7.5 -62.5zM1642 772.002c3.33301 16.667 5.66895 33.667 7.00195 51s2 36 2 56c0 156 -50.667 284 -152 384
s-232.333 150 -393 150c-190.667 0 -353.834 -62.5 -489.501 -187.5s-217.5 -276.167 -245.5 -453.5c-2.66699 -16.667 -4.83398 -34 -6.50098 -52s-2.5 -36.667 -2.5 -56c0 -156.667 50 -284.667 150 -384s230.333 -149 391 -149c181.333 0 343 61.833 485 185.5
s226.667 275.5 254 455.5zM1466 883.002l-24 -162h-889l25 162h888z" />
    <glyph glyph-name="Iota" unicode="&#x399;" horiz-adv-x="489" 
d="M575 1544l-243 -1544h-172l243 1544h172z" />
    <glyph glyph-name="Kappa" unicode="&#x39a;" horiz-adv-x="1251" 
d="M1442 1544l-793 -727l578 -817h-219l-549 799l-127 -799h-172l243 1544h172l-112 -723l772 723h207z" />
    <glyph glyph-name="Lambda" unicode="&#x39b;" horiz-adv-x="1278" 
d="M1288 0h-186l-281 1169l-645 -1169h-186l899 1585z" />
    <glyph glyph-name="Mu" unicode="&#x39c;" horiz-adv-x="1835" 
d="M1755 1587l-8 -1587h-174l18 1053l-680 -1096l-333 1096l-314 -1053h-176l500 1587l385 -1263z" />
    <glyph glyph-name="Nu" unicode="&#x39d;" horiz-adv-x="1708" 
d="M1782 1544l-250 -1587l-1004 1217l-186 -1174h-172l252 1587l1003 -1214l185 1171h172z" />
    <glyph glyph-name="Xi" unicode="&#x39e;" 
d="M1354 1544l-25 -162h-958l24 162h959zM1255 913l-26 -161h-959l27 161h958zM1137 162l-27 -162h-958l26 162h959z" />
    <glyph glyph-name="Omicron" unicode="&#x39f;" horiz-adv-x="1765" 
d="M1815 773c-36 -226.667 -144.169 -417.332 -324.502 -571.999s-384.166 -232 -611.499 -232c-203.333 0 -369.666 63.167 -498.999 189.5s-194 287.166 -194 482.499c0 18.667 0.833008 38.667 2.5 60s4.5 45.333 8.5 72c35.333 228 142.5 418.667 321.5 572
s383.833 230 614.5 230c204.667 0 371.167 -62.167 499.5 -186.5s192.5 -284.833 192.5 -481.5c0 -26 -0.833008 -49.833 -2.5 -71.5s-4.16699 -42.5 -7.5 -62.5zM1642 772.002c3.33301 16.667 5.66895 33.667 7.00195 51s2 36 2 56c0 156 -50.667 284 -152 384
s-232.333 150 -393 150c-190.667 0 -353.834 -62.5 -489.501 -187.5s-217.5 -276.167 -245.5 -453.5c-2.66699 -16.667 -4.83398 -34 -6.50098 -52s-2.5 -36.667 -2.5 -56c0 -156.667 50 -284.667 150 -384s230.333 -149 391 -149c181.333 0 343 61.833 485 185.5
s226.667 275.5 254 455.5z" />
    <glyph glyph-name="Pi" unicode="&#x3a0;" horiz-adv-x="1462" 
d="M1546 1544l-243 -1544h-173l220 1382h-799l-219 -1382h-172l243 1544h1143z" />
    <glyph glyph-name="Rho" unicode="&#x3a1;" horiz-adv-x="1030" 
d="M1124 1112c-22 -140.667 -85 -247.5 -189 -320.5s-245 -109.5 -423 -109.5h-72l-108 -682h-172l243 1544h244c162.667 0 284.334 -28.333 365.001 -85s121 -141.667 121 -255c0 -16 -0.833008 -31.667 -2.5 -47s-3.83398 -30.333 -6.50098 -45zM952 1112
c2 10.667 3.5 21.167 4.5 31.5s1.5 20.5 1.5 30.5c0 72 -26 124.667 -78 158s-136.333 50 -253 50h-76l-86 -538h76c134.667 0 233.167 20.667 295.5 62s100.833 110 115.5 206z" />
    <glyph glyph-name="Sigma" unicode="&#x3a3;" horiz-adv-x="1167" 
d="M1329 1544l-24 -162h-770l266 -589l-459 -631h770l-27 -162h-1054l583 793l-340 751h1055z" />
    </font>
</defs>
</svg>
